<svg width="1450" height="1191" viewBox="0 0 1450 1191" fill="none" xmlns="http://www.w3.org/2000/svg">
<mask id="mask0_75_1606" style="mask-type:luminance" maskUnits="userSpaceOnUse" x="0" y="-1" width="1450" height="1192">
<path d="M0 -0.00012207H1449.87V1190.17H0V-0.00012207Z" fill="white"/>
</mask>
<g mask="url(#mask0_75_1606)">
<path d="M1084.13 948.027C1071.05 934.974 1063.66 917.07 1063.59 898.6C1063.58 896.111 1063.57 893.623 1063.56 891.131C1063.51 877.207 1063.46 863.28 1063.41 849.353C1063.36 835.235 1063.31 821.117 1063.25 806.996C1063.2 792.482 1063.14 777.968 1063.09 763.453C1063.04 749.275 1062.99 735.097 1062.93 720.916C1062.88 706.995 1062.83 693.07 1062.78 679.149C1062.73 665.364 1062.68 651.582 1062.63 637.797C1062.57 624.515 1062.63 611.23 1062.48 597.951C1062.26 579.579 1069.98 561.432 1082.9 548.475C1095.93 535.414 1113.88 527.956 1132.33 527.934C1150.78 527.912 1168.75 535.329 1181.8 548.36C1194.91 561.434 1202.24 579.303 1202.35 597.787C1202.36 600.792 1202.37 603.8 1202.38 606.805C1202.43 620.996 1202.48 635.191 1202.54 649.383C1202.59 662.99 1202.64 676.595 1202.69 690.202C1202.74 704.301 1202.79 718.403 1202.85 732.502C1202.9 746.751 1202.95 760.998 1203 775.247C1203.06 789.706 1203.11 804.163 1203.16 818.623C1203.22 832.623 1203.27 846.621 1203.32 860.622C1203.37 873.227 1203.41 885.831 1203.46 898.436C1203.53 916.868 1196.04 934.879 1183.03 947.912C1170.01 960.973 1152.06 968.431 1133.61 968.453C1133.58 968.453 1133.55 968.453 1133.53 968.453C1115.11 968.452 1097.17 961.038 1084.13 948.027Z" fill="black"/>
<path d="M334.12 968.452C321.154 968.436 308.443 964.751 297.508 958.03C322.042 926.497 335.74 887.192 335.74 846.971C335.74 799.344 316.529 752.998 282.862 719.318C277.24 713.695 271.263 708.478 264.988 703.686C265.005 699.19 265.021 694.696 265.037 690.202C265.063 683.431 265.088 676.663 265.113 669.893C265.124 669.89 265.135 669.886 265.146 669.883V660.987C265.161 657.119 265.175 653.251 265.19 649.383C265.242 635.191 265.297 620.997 265.346 606.805C265.357 603.8 265.362 600.792 265.381 597.787C265.491 579.304 272.815 561.435 285.922 548.36C298.98 535.329 316.947 527.912 335.395 527.934C353.846 527.956 371.794 535.414 384.825 548.475C397.749 561.432 405.47 579.579 405.251 597.951C405.093 611.23 405.153 624.515 405.101 637.798C405.052 651.582 405 665.364 404.948 679.149C404.896 693.071 404.847 706.995 404.795 720.916C404.74 735.097 404.688 749.275 404.636 763.454C404.582 777.968 404.53 792.482 404.475 806.996C404.421 821.117 404.372 835.235 404.319 849.353C404.268 863.28 404.216 877.207 404.164 891.131C404.156 893.623 404.145 896.111 404.137 898.6C404.065 917.07 396.681 934.975 383.596 948.027C370.557 961.038 352.622 968.452 334.202 968.452C334.174 968.452 334.15 968.452 334.12 968.452Z" fill="black"/>
<path d="M733.864 1189.56C715.864 1189.67 697.872 1189.15 679.989 1186.92C669.57 1185.62 659.181 1184.23 648.887 1182.15C648.161 1182.01 647.439 1181.85 646.718 1181.68C634.824 1179.75 622.987 1177.5 611.202 1174.84C590.666 1170.19 570.281 1164.66 550.235 1158.21C529.91 1151.68 509.979 1143.99 490.318 1135.67C473.271 1128.47 456.555 1120.46 440.285 1111.64C421.424 1101.42 402.935 1090.55 385.325 1078.29C368.574 1066.62 352.259 1054.14 337.248 1040.28C336.226 1039.34 335.213 1038.39 334.202 1037.43C333.634 1036.89 333.071 1036.35 332.506 1035.81C330.585 1033.96 328.675 1032.1 326.766 1030.24C326.343 1029.83 325.916 1029.41 325.493 1029C325.334 1028.85 325.179 1028.69 325.023 1028.54C325.02 1028.54 325.018 1028.54 325.018 1028.54C324.89 1028.41 324.761 1028.29 324.636 1028.16C324.169 1027.71 323.704 1027.25 323.242 1026.8C317.093 1020.74 311.2 1014.41 305.666 1007.78C298.265 998.921 291.048 989.772 284.754 980.074C283.79 978.59 282.835 977.097 281.889 975.593C282.215 975.272 282.54 974.95 282.863 974.627C316.53 940.948 335.74 894.603 335.74 846.971C335.74 846.631 335.739 846.288 335.737 845.948C340.915 846.441 346.053 847.507 351.036 849.159C359.575 851.989 367.555 856.464 374.404 862.299C376.589 864.422 378.772 866.541 380.958 868.664C385.175 873.355 388.702 878.518 391.532 884.159C391.724 884.607 391.915 885.055 392.106 885.506C393.991 889.857 396.106 894.108 398.395 898.261C401.424 903.085 404.673 907.765 408.098 912.319C413.117 918.422 418.427 924.273 423.965 929.909C425.161 930.991 426.32 932.117 427.442 933.283C436.045 941.257 445.071 948.767 454.4 955.886C467.835 965.663 481.828 974.665 496.216 982.975C496.719 983.264 497.219 983.554 497.724 983.844C512.501 991.968 527.64 999.412 543.073 1006.22C547.4 1008.13 551.752 1009.98 556.123 1011.78C571.555 1017.87 587.211 1023.35 603.069 1028.21C609.642 1030.23 616.256 1032.13 622.897 1033.92C639.102 1038.03 655.469 1041.49 671.963 1044.22C673.089 1044.37 674.212 1044.56 675.329 1044.77C679.008 1045.35 682.697 1045.9 686.39 1046.41C702.147 1048.3 717.992 1049.52 733.864 1049.84C749.727 1049.52 765.569 1048.31 781.321 1046.41C785.02 1045.9 788.711 1045.35 792.396 1044.77C793.513 1044.56 794.639 1044.37 795.762 1044.22C812.257 1041.49 828.623 1038.03 844.831 1033.92C851.469 1032.13 858.083 1030.23 864.659 1028.21C880.517 1023.35 896.17 1017.87 911.602 1011.78C915.973 1009.98 920.328 1008.13 924.655 1006.22C940.084 999.412 955.224 991.968 970.004 983.844C970.506 983.554 971.009 983.264 971.511 982.975C985.9 974.665 999.89 965.663 1013.33 955.886C1022.65 948.767 1031.68 941.257 1040.29 933.283C1041.41 932.117 1042.57 930.991 1043.76 929.909C1049.3 924.273 1054.61 918.422 1059.63 912.319C1063.05 907.765 1066.3 903.085 1069.33 898.261C1071.64 894.078 1073.76 889.798 1075.66 885.413C1075.84 884.992 1076.02 884.574 1076.2 884.159C1079.03 878.518 1082.55 873.355 1086.77 868.664C1088.96 866.541 1091.14 864.422 1093.32 862.299C1100.17 856.464 1108.15 851.989 1116.69 849.159C1134.2 843.354 1153.59 844.763 1170.08 853.043C1186.56 861.324 1199.27 876.029 1205.08 893.54C1207.91 902.08 1209.08 911.152 1208.5 920.132C1208.09 926.3 1206.88 932.307 1204.88 938.156C1203.1 942.394 1201.37 946.696 1199.45 950.884C1194.79 961.025 1189.04 970.731 1182.97 980.074C1176.68 989.772 1169.46 998.921 1162.06 1007.78C1156.53 1014.41 1150.63 1020.74 1144.49 1026.8C1144.02 1027.25 1143.56 1027.71 1143.09 1028.16C1142.96 1028.29 1142.84 1028.41 1142.71 1028.54L1142.7 1028.54C1142.55 1028.69 1142.39 1028.85 1142.23 1029C1141.81 1029.41 1141.38 1029.83 1140.96 1030.24C1139.05 1032.1 1137.14 1033.96 1135.22 1035.81C1134.66 1036.35 1134.09 1036.89 1133.52 1037.43C1132.51 1038.39 1131.5 1039.34 1130.48 1040.28C1115.47 1054.14 1099.15 1066.62 1082.4 1078.29C1064.79 1090.55 1046.3 1101.42 1027.44 1111.64C1011.17 1120.46 994.455 1128.47 977.408 1135.67C957.747 1143.99 937.816 1151.68 917.491 1158.21C897.445 1164.66 877.06 1170.19 856.525 1174.84C844.74 1177.5 832.903 1179.75 821.006 1181.68C820.287 1181.85 819.563 1182.01 818.84 1182.15C808.546 1184.23 798.157 1185.62 787.737 1186.92C771.26 1188.98 754.688 1189.58 738.106 1189.58C736.691 1189.58 735.279 1189.57 733.864 1189.56Z" fill="black"/>
<path d="M1200.83 947.775C1202.2 944.58 1203.53 941.37 1204.88 938.167C1203.65 941.09 1202.42 944.012 1201.19 946.934L1201.19 946.926C1158.3 928.927 1115.4 910.927 1072.51 892.928C1072.5 892.944 1072.49 892.96 1072.49 892.976C1073.72 890.053 1074.95 887.131 1076.18 884.208C1073.51 890.531 1070.36 896.643 1066.89 902.553C1068.49 899.822 1070.1 897.09 1071.71 894.359C1067.2 901.96 1062.14 909.212 1056.67 916.158C1058.59 913.725 1060.5 911.292 1062.42 908.859C1055.22 917.961 1047.36 926.505 1039.05 934.606C1041.23 932.484 1043.42 930.361 1045.6 928.239C1043.29 930.483 1040.98 932.729 1038.67 934.975C1040.85 932.852 1043.04 930.73 1045.22 928.607C1034.09 939.38 1022.17 949.311 1009.76 958.578C1012.18 956.778 1014.59 954.979 1017.01 953.179C1002.45 964.008 987.218 973.906 971.511 982.976C969.735 984.001 967.953 985.014 966.167 986.02C968.776 984.556 971.385 983.092 973.994 981.628C957.956 990.622 941.478 998.799 924.654 1006.22C919.024 1008.7 913.351 1011.09 907.648 1013.4C910.414 1012.28 913.179 1011.17 915.945 1010.05C899.113 1016.83 882.007 1022.89 864.658 1028.22C856.628 1030.68 848.543 1032.96 840.42 1035.1C843.305 1034.34 846.19 1033.58 849.075 1032.83C831.108 1037.52 812.94 1041.41 794.614 1044.41C788.617 1045.39 782.603 1046.26 776.576 1047.04C779.543 1046.66 782.51 1046.28 785.477 1045.89C767.749 1048.16 749.901 1049.59 732.026 1049.88C729.559 1049.92 727.091 1049.94 724.623 1049.94C727.634 1049.94 730.646 1049.95 733.658 1049.95C717.96 1049.93 702.255 1049.05 686.688 1047C689.707 1047.4 692.726 1047.8 695.746 1048.2C689.189 1047.33 682.665 1046.25 676.183 1044.94C658.45 1041.35 639.565 1045.07 624.41 1054.9C608.716 1065.09 597.586 1081.55 593.927 1099.9C590.384 1117.66 594.037 1136.48 603.893 1151.67C614.099 1167.4 630.531 1178.44 648.888 1182.15C659.181 1184.24 669.571 1185.62 679.989 1186.92C699.608 1189.37 719.359 1189.75 739.109 1189.52C756.999 1189.31 774.865 1187.94 792.615 1185.73C814.1 1183.04 835.4 1179.62 856.524 1174.84C877.061 1170.19 897.445 1164.66 917.491 1158.21C937.816 1151.68 957.748 1143.99 977.409 1135.68C994.456 1128.47 1011.17 1120.46 1027.44 1111.64C1046.3 1101.42 1064.79 1090.55 1082.4 1078.29C1099.15 1066.62 1115.47 1054.14 1130.48 1040.28C1131.5 1039.34 1132.52 1038.39 1133.52 1037.43C1134.09 1036.9 1134.66 1036.35 1135.22 1035.81C1137.73 1033.4 1140.21 1030.97 1142.7 1028.54C1144.62 1026.11 1146.53 1023.68 1148.45 1021.24C1152.05 1015.97 1154.89 1010.32 1156.97 1004.28C1160.92 992.757 1161.77 980.276 1159.43 968.32C1155.94 950.427 1145.41 934.304 1130.36 923.998C1114.99 913.47 1095.72 909.446 1077.43 913.014C1059.54 916.504 1043.42 927.041 1033.11 942.09C1020.84 960.011 1017.56 983.052 1024.4 1003.67C1030.2 1021.18 1042.91 1035.89 1059.4 1044.16C1075.89 1052.44 1095.27 1053.85 1112.78 1048.05C1115.55 1046.93 1118.31 1045.82 1121.08 1044.7C1126.53 1042.09 1131.55 1038.82 1136.15 1034.91C1138.47 1032.66 1140.78 1030.42 1143.09 1028.16C1143.56 1027.71 1144.02 1027.25 1144.49 1026.8C1150.63 1020.74 1156.53 1014.41 1162.06 1007.78C1169.46 998.922 1176.68 989.773 1182.97 980.077C1189.04 970.733 1194.8 961.027 1199.45 950.885C1201.37 946.699 1203.1 942.395 1204.88 938.16C1206.88 932.311 1208.09 926.302 1208.5 920.133C1209.08 911.154 1207.91 902.082 1205.08 893.542C1199.27 876.031 1186.56 861.325 1170.08 853.046C1153.59 844.767 1134.2 843.356 1116.69 849.16C1108.15 851.99 1100.17 856.466 1093.32 862.3C1091.14 864.423 1088.95 866.545 1086.77 868.667C1082.55 873.357 1079.03 878.521 1076.19 884.161C1074.94 887.084 1073.69 890.114 1072.44 893.09C1073.67 890.168 1074.9 887.246 1076.13 884.323C1076.03 884.553 1075.93 884.781 1075.84 885.009C1074.61 887.932 1073.38 890.854 1072.15 893.777C1070.14 899.626 1068.94 905.634 1068.53 911.803C1067.94 920.782 1069.12 929.855 1071.95 938.394C1077.75 955.905 1090.46 970.611 1106.95 978.891C1123.44 987.17 1142.83 988.58 1160.34 982.776C1168.88 979.946 1176.85 975.47 1183.71 969.636C1185.89 967.514 1188.07 965.391 1190.26 963.269C1194.48 958.579 1198 953.415 1200.83 947.775Z" fill="black"/>
<path d="M993.546 316.435C987.705 310.589 984.244 302.658 983.908 294.425C983.81 293.774 983.714 293.122 983.64 292.469C983.526 291.406 983.446 290.343 983.381 289.278C982.556 286.669 981.807 284.044 981.032 281.416C980.769 280.785 980.496 280.159 980.212 279.539C980.094 279.339 979.974 279.14 979.851 278.943C978.065 276.534 976.161 274.217 974.445 271.756C972.243 268.593 970.033 265.44 968.391 263.036C967.211 261.348 966.004 259.722 964.649 258.168C963.149 256.447 961.925 254.485 960.699 252.537C960.507 252.283 960.316 252.035 960.119 251.783C959.548 251.152 958.983 250.519 958.417 249.882C957.385 248.748 956.284 247.691 955.158 246.65C954.396 246.003 953.628 245.358 952.85 244.741C950.807 243.451 948.793 242.129 946.886 240.627C946.247 240.121 945.6 239.624 944.947 239.138C942.922 237.906 940.849 236.764 938.827 235.524C936.137 233.874 933.582 232.068 930.804 230.565C929.184 229.746 927.57 228.921 925.955 228.09C923.63 227.085 921.262 226.227 918.918 225.271C916.831 224.421 914.798 223.446 912.728 222.55C912.474 222.476 912.22 222.403 911.963 222.332C908.597 221.395 905.311 220.206 902.098 218.84C900.492 218.16 898.874 217.529 897.244 216.928C891.056 214.849 884.874 212.746 878.727 210.544C874.55 209.159 870.34 207.88 866.292 206.145C862.803 204.651 859.342 203.135 857.367 202.329C853.865 201.108 850.387 199.851 846.975 198.379C844.038 197.109 841.107 195.871 838.127 194.71C835.165 193.552 832.3 192.164 829.415 190.831C826.565 189.514 823.642 188.378 820.782 187.086C816.308 185.064 811.964 182.745 807.62 180.453C804.424 178.767 801.159 177.215 797.985 175.489C791.194 171.801 784.676 167.353 778.417 162.813C775.363 160.882 772.26 159.046 769.301 156.948C766.738 155.131 764.302 153.137 763.307 152.462C760.379 150.479 757.505 148.479 754.768 146.223C751.623 143.63 748.465 141.068 745.471 138.303C741.854 134.962 738.305 131.545 734.683 128.209C734.41 127.977 734.137 127.745 733.863 127.512C733.596 127.742 733.325 127.971 733.055 128.201C729.433 131.539 725.878 134.959 722.259 138.303C719.262 141.068 716.104 143.63 712.962 146.223C710.301 148.416 707.512 150.367 706.026 151.378C703.425 153.137 700.991 155.131 698.426 156.948C695.467 159.046 692.367 160.882 689.313 162.813C683.054 167.353 676.533 171.801 669.745 175.489C666.568 177.215 663.306 178.767 660.109 180.453C655.763 182.745 651.422 185.064 646.947 187.086C644.087 188.378 641.161 189.514 638.315 190.831C635.43 192.164 632.564 193.552 629.603 194.71C626.623 195.871 623.691 197.109 620.755 198.379C617.34 199.851 613.865 201.108 611.931 201.786C608.385 203.135 604.926 204.651 601.438 206.145C597.389 207.88 593.18 209.159 589.003 210.544C582.853 212.746 576.674 214.849 570.486 216.928C568.855 217.529 567.238 218.16 565.632 218.84C562.419 220.206 559.133 221.395 555.767 222.332C555.51 222.403 555.256 222.476 555.002 222.55C552.931 223.446 550.899 224.421 548.815 225.271C546.468 226.227 544.1 227.085 541.775 228.09C540.16 228.921 538.543 229.746 536.923 230.565C534.147 232.068 531.591 233.874 528.902 235.524C526.878 236.764 524.807 237.906 522.783 239.138C522.13 239.624 521.483 240.121 520.844 240.627C518.937 242.129 516.921 243.451 514.88 244.741C514.101 245.358 513.331 246.003 512.571 246.65C511.446 247.691 510.345 248.748 509.31 249.882C508.747 250.519 508.179 251.152 507.608 251.783C507.414 252.035 507.223 252.283 507.031 252.537C505.805 254.485 504.581 256.447 503.081 258.168C501.726 259.722 500.519 261.348 499.863 262.255C497.694 265.44 495.487 268.593 493.285 271.756C491.569 274.217 489.665 276.534 487.879 278.943C487.756 279.14 487.635 279.339 487.515 279.539C487.234 280.159 486.958 280.785 486.698 281.416C485.922 284.044 485.171 286.669 484.349 289.278C484.283 290.343 484.204 291.406 484.089 292.469C484.016 293.122 483.92 293.774 483.822 294.425C483.486 302.658 480.024 310.589 474.184 316.435C468.026 322.587 459.552 326.1 450.851 326.1C437.725 326.1 425.541 318.028 420.427 305.934C417.878 299.905 417.291 293.157 418.247 286.71C418.367 285.893 418.487 285.076 418.594 284.26C418.646 282.448 418.725 280.634 419.075 278.867C419.457 276.927 419.741 274.925 420.32 273.023C420.632 271.991 420.981 270.969 421.342 269.956C422.145 267.358 422.798 264.713 423.582 262.112C424.44 259.271 425.503 256.466 426.77 253.775C428.01 251.131 429.174 248.437 430.704 245.937C433.108 241.998 435.804 238.247 438.684 234.644C440.596 232.256 442.333 229.691 444.087 227.175C445.469 225.088 446.852 222.998 448.319 220.968C449.338 219.562 450.48 218.269 451.529 216.895C452.679 215.131 453.851 213.377 455.148 211.716C456.692 209.743 458.402 207.913 460.093 206.066C461.366 204.561 462.647 203.05 464.073 201.695C466.057 199.81 468.094 197.98 470.171 196.193C471.285 195.232 472.441 194.322 473.588 193.399C474.129 192.967 474.64 192.489 475.162 192.033C476.626 190.746 478.273 189.815 479.915 188.856C480.456 188.435 480.989 188.003 481.527 187.58C483.447 186.064 485.534 184.703 487.564 183.362C489.624 181.993 491.766 180.786 493.902 179.543C495.861 178.404 497.751 177.174 499.631 175.912C502.19 174.194 504.974 172.847 507.741 171.498C509.058 170.818 510.37 170.126 511.686 169.449C515.134 167.679 518.549 166.206 522.163 164.854C524.313 164.045 526.381 163.029 528.468 162.076C531.719 160.592 535.131 159.655 538.527 158.636C540.264 157.94 541.98 157.185 543.717 156.497C546.834 155.265 550.049 154.257 553.229 153.192C556.1 152.23 558.966 151.252 561.829 150.269C565.64 148.908 569.448 147.561 573.297 146.316C575.592 145.403 577.838 144.39 580.122 143.431C583.744 141.906 587.421 140.576 589.079 139.994C592.081 138.861 595.007 137.593 597.938 136.292C600.965 134.943 604.104 133.82 607.164 132.545C610.21 131.274 613.147 129.747 616.184 128.452C618.684 127.389 621.165 126.31 623.618 125.152C627.718 123.054 631.849 120.997 635.895 118.798C639.714 116.724 643.391 114.381 647.019 111.979C649.843 109.977 652.674 107.994 655.567 106.081C656.962 105.155 658.416 104.314 659.85 103.44C660.809 102.735 661.757 102.022 662.707 101.303C664.513 99.9346 666.385 98.6562 668.264 97.3913C671.083 95.4134 673.744 93.1624 676.372 90.9196C678.844 88.6577 681.341 86.4147 683.748 84.0846C686.767 81.167 689.917 78.4079 693.088 75.6677C694.175 74.6515 695.241 73.619 696.282 72.5591C696.836 71.8459 697.369 71.1191 697.885 70.3709C698.317 69.7423 698.773 69.1333 699.235 68.5267C699.412 68.1933 699.598 67.8628 699.795 67.5378C700.437 66.4615 701.049 65.5491 701.674 64.7049C703.174 62.014 704.92 59.5391 707.171 57.2878C710.173 54.2856 713.752 51.8708 717.661 50.2154C722.772 48.0544 728.383 47.2513 733.863 47.8031C739.346 47.2513 744.957 48.0544 750.066 50.2154C753.978 51.8708 757.557 54.2856 760.556 57.2878C762.81 59.5391 764.553 62.014 766.055 64.7049C766.678 65.5491 767.29 66.4615 767.935 67.5378C768.129 67.8628 768.315 68.1933 768.495 68.5267C768.954 69.1333 769.41 69.7423 769.842 70.3709C770.361 71.1191 770.893 71.8459 771.445 72.5591C772.489 73.619 773.554 74.6515 774.639 75.6677C777.813 78.4079 780.96 81.167 783.982 84.0846C786.388 86.4147 788.885 88.6577 791.358 90.9196C793.986 93.1624 796.647 95.4134 799.466 97.3913C801.345 98.6562 803.217 99.9346 805.022 101.303C805.973 102.022 806.921 102.735 807.88 103.44C809.314 104.314 810.767 105.155 812.166 106.081C815.056 107.994 817.886 109.977 820.711 111.979C824.339 114.381 828.016 116.724 831.833 118.798C835.887 121 840.022 123.06 844.131 125.16C846.579 126.319 849.051 127.392 851.545 128.452C854.581 129.747 857.52 131.274 860.566 132.545C863.626 133.82 866.762 134.943 869.791 136.292C872.723 137.593 875.649 138.861 876.602 139.281C880.309 140.576 883.986 141.906 887.608 143.431C889.892 144.39 892.138 145.403 894.433 146.316C898.279 147.561 902.09 148.908 905.901 150.269C908.764 151.252 911.629 152.23 914.5 153.192C917.68 154.257 920.896 155.265 924.015 156.497C925.75 157.185 927.466 157.94 929.203 158.636C932.599 159.655 936.011 160.592 939.262 162.076C941.349 163.029 943.417 164.045 945.567 164.854C949.181 166.206 952.593 167.679 956.043 169.449C957.357 170.124 958.663 170.812 959.972 171.492C962.748 172.842 965.534 174.191 968.099 175.912C969.978 177.174 971.869 178.404 973.828 179.543C975.964 180.786 978.106 181.993 980.165 183.362C982.195 184.703 984.282 186.064 986.203 187.58C986.741 188.003 987.274 188.435 987.812 188.856C989.456 189.815 991.104 190.746 992.568 192.033C993.09 192.489 993.601 192.967 994.142 193.399C995.289 194.322 996.445 195.232 997.559 196.193C999.635 197.98 1001.67 199.81 1003.66 201.695C1005.08 203.05 1006.36 204.561 1007.64 206.066C1009.33 207.913 1011.04 209.743 1012.58 211.716C1013.88 213.371 1015.05 215.122 1016.2 216.884C1017.24 218.264 1018.39 219.559 1019.41 220.968C1020.88 222.998 1022.26 225.088 1023.64 227.175C1025.4 229.691 1027.13 232.256 1029.04 234.644C1031.93 238.247 1034.62 241.998 1037.03 245.937C1038.56 248.437 1039.72 251.131 1040.96 253.775C1042.22 256.466 1043.29 259.271 1044.15 262.112C1044.93 264.713 1045.58 267.358 1046.39 269.956C1046.75 270.969 1047.1 271.991 1047.41 273.023C1047.99 274.925 1048.27 276.927 1048.66 278.867C1049.01 280.634 1049.08 282.448 1049.14 284.26C1049.24 285.076 1049.36 285.893 1049.48 286.71C1050.44 293.157 1049.85 299.905 1047.3 305.934C1042.19 318.028 1030 326.1 1016.88 326.1C1008.18 326.1 999.701 322.587 993.546 316.435Z" fill="black"/>
<path d="M984.16 291.662C984.144 291.614 984.128 291.566 984.112 291.519C984.056 291.938 984 292.358 983.944 292.777C984.028 294.031 984.111 295.286 984.196 296.539C984.051 295.178 983.792 293.831 983.642 292.468C983.525 291.406 983.446 290.341 983.381 289.276C982.556 286.664 981.806 284.038 981.028 281.405C980.768 280.778 980.496 280.157 980.214 279.539C980.096 279.342 979.977 279.146 979.857 278.951C978.068 276.54 976.162 274.221 974.446 271.756C972.194 268.523 969.936 265.297 967.72 262.04C967.944 262.372 968.168 262.704 968.392 263.036C967.212 261.347 966.002 259.724 964.647 258.17C963.148 256.446 961.924 254.483 960.697 252.537C960.503 252.279 960.307 252.023 960.108 251.769C959.562 251.166 959.02 250.559 958.48 249.95C957.421 248.783 956.289 247.696 955.132 246.63C954.377 245.984 953.612 245.345 952.837 244.731C950.8 243.444 948.789 242.123 946.887 240.624C946.247 240.119 945.602 239.625 944.949 239.139C942.925 237.907 940.85 236.765 938.826 235.523C936.147 233.88 933.601 232.081 930.835 230.581C929.205 229.757 927.581 228.926 925.957 228.092C923.633 227.088 921.262 226.228 918.916 225.271C917.014 224.495 915.156 223.616 913.274 222.79C907.553 221.053 902.031 218.792 896.445 216.659C890.52 214.665 884.605 212.646 878.719 210.542C874.545 209.158 870.336 207.878 866.29 206.145C862.804 204.653 859.343 203.135 855.797 201.785C857.155 202.255 858.513 202.728 859.87 203.2C831.523 192.585 803.053 180.602 778.395 162.798C775.35 160.873 772.255 159.04 769.302 156.948C767.281 155.517 765.341 153.974 763.334 152.523C753.005 145.622 744.05 136.987 734.995 128.526C726.373 121.408 718.496 113.226 712.675 103.68C698.509 86.2597 702.392 59.7528 724.38 50.2148C739.863 43.3104 758.951 50.6317 766.556 65.402C767.011 66.051 767.464 66.7498 767.936 67.5374C768.131 67.8632 768.317 68.1939 768.497 68.5282C768.956 69.1335 769.412 69.7417 769.845 70.3676C770.366 71.1215 770.901 71.8527 771.456 72.5691C772.506 73.6337 773.577 74.6734 774.669 75.6947C777.833 78.4259 780.971 81.1747 783.98 84.084C786.39 86.4147 788.886 88.6585 791.361 90.9243C793.985 93.1638 796.643 95.409 799.459 97.3864C801.341 98.6521 803.213 99.933 805.021 101.303C805.973 102.023 806.926 102.739 807.887 103.444C809.318 104.316 810.771 105.155 812.164 106.078C815.048 107.988 817.87 109.967 820.689 111.965C824.325 114.37 828.008 116.72 831.833 118.797C835.733 120.915 839.708 122.904 843.663 124.923C855.185 130.273 866.882 135.211 878.649 139.994C877.291 139.521 875.936 139.049 874.578 138.579C878.968 140.1 883.326 141.628 887.609 143.431C889.887 144.388 892.126 145.4 894.415 146.309C898.092 147.498 901.735 148.782 905.376 150.083C913.574 152.87 921.808 155.544 929.825 158.812C939.83 161.92 949.467 166.187 958.832 170.908C964.115 173.285 968.926 176.475 973.826 179.543C978.913 182.341 983.688 185.63 988.285 189.166C995.413 193.708 1001.83 199.506 1007.43 205.843C1009.19 207.765 1010.98 209.661 1012.58 211.715C1013.88 213.372 1015.05 215.124 1016.2 216.887C1017.25 218.267 1018.39 219.561 1019.41 220.968C1020.78 222.865 1022.08 224.814 1023.37 226.766C1035.63 243.443 1041.37 250.028 1046.73 270.871C1048.01 274.806 1048.82 278.873 1049.1 282.999C1053.81 304.483 1039.86 325.949 1016.88 326.097C994.404 325.298 983.492 308.239 984.16 291.662ZM984.863 285.924C985.01 285.215 985.179 284.51 985.37 283.813C985.273 283.978 985.177 284.143 985.081 284.308C985.008 284.846 984.936 285.385 984.863 285.924ZM1008.11 261.279C1008.11 261.279 1008.11 261.279 1008.12 261.279C1008.04 261.323 1007.97 261.366 1007.89 261.41C1008.17 261.335 1008.45 261.265 1008.73 261.196C1008.52 261.224 1008.32 261.251 1008.11 261.279Z" fill="black"/>
<path d="M1369.44 491.656C1363.08 490.855 1356.93 488.826 1351.11 486.181C1347.64 484.599 1344.12 483.157 1340.6 481.69C1336.72 480.07 1333.02 478.1 1329.3 476.161C1326.51 474.871 1323.65 473.748 1320.89 472.396C1316.4 470.192 1312.01 467.894 1307.76 465.255C1304.66 463.33 1301.66 461.242 1298.59 459.259C1295.21 457.071 1291.82 454.915 1289.56 453.416C1289.16 453.148 1288.76 452.88 1288.36 452.61C1287.72 452.181 1287.07 451.746 1286.43 451.309C1286.28 451.203 1286.12 451.099 1285.96 450.992C1282.72 448.903 1279.31 447.102 1276.1 444.961C1273.37 443.136 1270.49 441.33 1267.96 439.207C1265.74 437.347 1263.61 435.413 1261.49 433.454C1261.18 433.197 1260.87 432.943 1260.56 432.692C1254.6 427.917 1248.96 422.781 1242.97 418.06C1236.66 413.088 1230.8 407.576 1224.82 402.207C1221.63 399.53 1218.49 396.796 1215.23 394.195C1211.5 391.206 1207.93 388.04 1204.38 384.844C1202.39 383.226 1200.35 381.697 1198.26 380.23C1195.99 378.705 1193.73 377.156 1191.48 375.605C1187.66 373.127 1183.78 370.756 1179.87 368.436C1176.05 366.169 1172.25 363.877 1168.34 361.784C1162.5 359.077 1156.54 356.654 1150.61 354.168C1144.32 351.537 1138.02 348.939 1131.63 346.595C1128.02 345.355 1124.41 344.115 1120.82 342.831C1117.82 341.76 1114.87 340.531 1111.89 339.395C1106.15 337.466 1100.37 335.635 1094.52 334.037C1088.97 332.521 1083.35 331.305 1077.72 330.103C1071.53 329.035 1065.32 328.322 1059.06 327.721C1052.43 327.085 1045.81 326.257 1039.18 325.719C1037.9 325.634 1036.62 325.547 1035.35 325.459C1030.19 325.131 1025.03 324.831 1019.87 324.443C1019.76 324.441 1019.64 324.438 1019.53 324.438C1010.77 324.277 1002.44 321.01 996.196 314.773C990.041 308.615 986.531 300.144 986.531 291.437C986.531 282.734 990.041 274.26 996.196 268.105C1002.27 262.032 1010.89 258.284 1019.53 258.44C1022.55 258.494 1025.55 258.825 1028.56 259.09C1032.72 259.33 1036.88 259.571 1041.05 259.847C1044.37 260.043 1047.71 260.177 1051.01 260.557C1058.95 261.467 1066.91 262.172 1074.86 262.999C1083.73 263.925 1092.41 265.868 1101.11 267.769C1108.76 269.435 1116.27 271.484 1123.72 273.896C1128.96 275.593 1134.18 277.308 1139.34 279.242C1142.58 280.453 1145.77 281.734 1149.01 282.911C1155.96 285.318 1162.85 287.845 1169.66 290.624C1175.95 293.191 1182.24 295.767 1188.47 298.483C1193.4 300.636 1198.25 302.949 1203 305.496C1206.37 307.307 1209.64 309.345 1212.93 311.301C1216.06 313.161 1219.18 315.057 1222.27 316.999C1225.95 319.324 1229.52 321.807 1233.11 324.271C1236.44 326.465 1239.8 328.67 1242.92 331.15C1245.89 333.513 1248.68 336.07 1251.48 338.622C1255.74 342.233 1260.09 345.738 1264.38 349.317C1269.65 353.72 1274.7 358.4 1279.8 363.001C1281.93 364.771 1284.14 366.454 1286.28 368.21C1288.65 370.147 1290.95 372.141 1293.27 374.13C1295.69 376.198 1298.13 378.236 1300.61 380.228C1303.27 382.358 1305.78 384.65 1308.29 386.943C1309.15 387.631 1310.02 388.292 1310.91 388.937C1312.42 389.874 1313.96 390.748 1315.49 391.66C1318.71 393.581 1321.8 395.679 1323.7 397.001C1324.56 397.58 1325.42 398.162 1326.27 398.741C1330.09 401.205 1333.93 403.639 1337.73 406.142C1340.85 408.199 1344.06 410.133 1347.34 411.919C1349.56 412.925 1351.8 413.84 1354.01 414.873C1357.04 416.29 1359.98 417.864 1362.94 419.405C1365.89 420.743 1368.9 421.934 1371.9 423.177C1373.95 424.024 1375.94 424.978 1377.97 425.871C1379.53 425.642 1381.11 425.524 1382.7 425.524C1391.4 425.524 1399.87 429.035 1406.03 435.189C1406.17 435.334 1406.32 435.479 1406.46 435.626C1416.85 445.958 1418.8 463.081 1411.43 475.653C1407.2 482.884 1399.9 488.922 1391.66 490.88C1388.11 491.724 1385.44 492.019 1381.78 492.161C1380.92 492.194 1380.05 492.188 1379.19 492.194C1379.04 492.194 1378.89 492.197 1378.74 492.197C1375.63 492.197 1372.53 492.041 1369.44 491.656Z" fill="black"/>
<path d="M88.5412 492.195C64.2035 493.293 52.2652 476.123 52.2517 458.951C52.2381 441.238 64.9137 423.522 89.7624 425.868C100.168 421.623 110.139 416.515 120.386 411.92C131.404 405.82 141.553 398.293 152.237 391.66C165.183 383.621 175.681 372.09 187.928 363.001C220.259 332.817 256.065 305.714 298.067 290.624C320.589 282.103 343.039 272.962 366.615 267.769C383.047 263.608 399.907 262.284 416.716 260.557C427.196 259.699 437.71 259.175 448.201 258.44C465.889 257.992 481.548 273.787 481.199 291.438C481.51 309.241 465.944 324.643 448.201 324.438C434.995 325.201 421.814 326.206 408.671 327.722C376.681 330.134 346.609 342.353 317.122 354.169C289.077 364.509 265.078 382.552 242.909 402.208C229.05 415.157 213.902 426.57 199.773 439.208C186.961 448.532 173.056 456.287 159.97 465.256C149.502 471.646 138.124 476.301 127.131 481.688C115.561 486.753 103.801 492.261 90.9764 492.262C90.1685 492.262 89.3579 492.24 88.5412 492.195Z" fill="black"/>
<path d="M220.841 559.706C214.309 554.013 207.57 548.662 200.521 543.63C195.533 540.278 190.547 536.92 185.74 533.303C181.721 530.282 177.752 527.225 173.654 524.324C170.744 522.589 167.786 520.936 164.849 519.248C160.902 516.983 157.156 514.388 153.411 511.798C150.958 510.197 148.474 508.681 145.912 507.247C138.397 503.679 130.729 500.445 122.913 497.59C119.596 496.511 116.264 495.514 112.895 494.593C109.838 493.757 106.779 492.856 103.7 492.066C102.197 491.872 100.689 491.714 99.1951 491.452C97.78 491.206 96.3647 490.952 94.9388 490.758C93.909 490.749 92.8818 490.76 91.8518 490.76C90.5707 490.76 89.2703 490.703 87.9838 490.741C87.2951 490.779 86.6041 490.818 85.9129 490.84C77.332 491.14 68.5766 487.171 62.5802 481.174C56.4228 475.022 52.915 466.548 52.915 457.842C52.915 449.138 56.4228 440.664 62.5802 434.509C65.5798 431.507 69.1585 429.092 73.0678 427.436C77.2148 425.683 81.4408 425 83.2494 425.049C86.727 424.828 90.128 424.759 93.6166 424.762C96.6736 424.768 99.7223 424.874 102.768 425.221C105.413 425.524 108.013 426.106 110.652 426.442C118.113 427.39 125.363 429.507 132.589 431.545C140.167 433.682 147.507 436.416 154.856 439.213C160.842 441.492 166.707 444.032 172.463 446.838C176.703 448.906 180.809 451.061 184.816 453.528C187.837 455.389 190.75 457.446 193.659 459.481C197.008 461.587 200.412 463.554 203.871 465.485C204.01 465.565 204.152 465.644 204.294 465.726C203.398 466.392 202.513 467.07 201.63 467.756C200.486 468.6 199.47 469.509 198.686 470.731C198.625 470.829 198.565 470.927 198.505 471.026C196.913 472.127 195.306 473.203 193.684 474.268C189.597 476.956 185.516 479.625 181.538 482.472C179.604 483.854 178.227 485.807 177.79 488.171C177.722 488.539 177.678 488.911 177.659 489.285C176.112 490.413 174.561 491.536 173.012 492.659C170.87 494.205 169.589 496.549 169.272 499.022C169.064 499.218 168.857 499.418 168.652 499.617C166.559 501.658 165.344 504.327 165.601 507.291C165.805 509.668 166.953 511.921 168.758 513.478C170.471 514.956 172.632 515.675 174.782 515.675C176.224 515.675 177.664 515.35 178.962 514.713V514.718C179.014 514.691 179.066 514.661 179.117 514.634C179.251 514.566 179.383 514.494 179.514 514.418C180.451 513.904 181.388 513.394 182.278 512.798C182.994 512.323 183.707 511.847 184.423 511.369C185.551 510.618 186.655 509.82 187.767 509.044C189.979 507.501 192.179 505.93 194.334 504.305C197.517 501.903 200.642 499.447 203.699 496.883C205.36 495.489 207.015 494.079 208.635 492.632C210.206 493.779 212.189 494.274 214.151 494.008C214.465 496.421 215.484 498.696 217.161 500.639C217.513 501.046 217.888 501.417 218.278 501.759C218.776 503.917 219.887 505.925 221.486 507.476C222.484 508.447 223.592 509.152 224.791 509.67V563.001C223.452 561.932 222.134 560.834 220.841 559.706Z" fill="black"/>
<path d="M1084.45 634.086C1084.58 632.764 1084.44 631.464 1084.06 630.24C1084.09 630.043 1084.11 629.847 1084.13 629.65C1084.28 628.117 1084.47 626.582 1084.58 625.044C1084.8 621.864 1085.18 618.406 1083.85 615.444C1083.88 615.321 1083.91 615.201 1083.95 615.078C1085.62 609.762 1087.72 604.596 1089.86 599.458C1091.37 595.827 1092.88 592.197 1094.47 588.599C1094.51 588.541 1094.55 588.487 1094.6 588.429C1094.88 588.058 1095.14 587.678 1095.41 587.296C1096.05 587.55 1096.72 587.749 1097.41 587.889C1099.95 588.397 1102.62 588.058 1104.95 586.943C1107.43 585.755 1109.1 583.862 1110.47 581.529C1112.49 578.108 1113.17 574.041 1114.15 570.222C1114.6 568.468 1115 566.722 1115.37 564.952C1115.97 562.152 1116.56 559.368 1117 556.541C1127.21 552.681 1137.27 548.353 1147.14 543.717C1151.31 541.464 1155.4 539.068 1159.56 536.803C1164.18 534.298 1168.75 531.736 1173.3 529.108C1176.87 527.05 1180.4 524.936 1183.91 522.781C1190.96 521.251 1198.02 519.715 1205.03 517.989C1211.24 516.459 1217.46 514.938 1223.65 513.304C1226.97 512.534 1230.31 511.862 1233.69 511.433C1234.72 511.302 1235.75 511.209 1236.78 511.089C1237.99 510.949 1239.11 510.742 1240.3 510.507C1242.55 510.007 1244.55 509.122 1246.24 507.477C1247.84 505.925 1248.95 503.917 1249.45 501.759C1249.84 501.418 1250.21 501.046 1250.56 500.639C1252.24 498.697 1253.26 496.421 1253.57 494.009C1255.54 494.277 1257.52 493.78 1259.09 492.632C1260.71 494.08 1262.36 495.49 1264.03 496.883C1267.08 499.448 1270.21 501.904 1273.39 504.305C1275.55 505.931 1277.75 507.502 1279.96 509.045C1281.07 509.821 1282.17 510.619 1283.3 511.37C1284.02 511.848 1284.73 512.323 1285.45 512.798C1286.34 513.394 1287.27 513.905 1288.21 514.419C1288.34 514.495 1288.47 514.566 1288.61 514.634C1288.66 514.664 1288.71 514.692 1288.76 514.719C1288.76 514.719 1288.76 514.716 1288.77 514.714C1290.06 515.35 1291.5 515.675 1292.95 515.675C1295.1 515.675 1297.25 514.957 1298.97 513.479C1300.77 511.922 1301.92 509.668 1302.12 507.291C1302.38 504.327 1301.17 501.658 1299.07 499.617C1298.87 499.418 1298.66 499.221 1298.46 499.025C1298.14 496.552 1296.86 494.208 1294.72 492.659C1293.16 491.537 1291.61 490.411 1290.07 489.283C1290.05 488.911 1290 488.54 1289.93 488.171C1289.5 485.808 1288.12 483.855 1286.19 482.472C1282.21 479.626 1278.13 476.957 1274.04 474.269C1272.42 473.203 1270.81 472.127 1269.22 471.026C1269.16 470.928 1269.1 470.829 1269.04 470.731C1268.26 469.51 1267.24 468.6 1266.09 467.756C1265.21 467.07 1264.33 466.393 1263.43 465.726C1263.58 465.645 1263.72 465.565 1263.86 465.486C1267.32 463.555 1270.72 461.587 1274.07 459.481C1276.98 457.446 1279.9 455.389 1282.92 453.529C1286.92 451.062 1291.03 448.906 1295.27 446.838C1301.02 444.033 1306.89 441.492 1312.87 439.214C1320.22 436.416 1327.56 433.682 1335.14 431.546C1342.37 429.508 1349.62 427.391 1357.08 426.443C1359.72 426.107 1362.32 425.525 1364.96 425.222C1368.01 424.875 1371.06 424.768 1374.11 424.763C1377.6 424.759 1381 424.828 1381.82 424.845C1386.29 425 1390.52 425.683 1394.66 427.437C1398.57 429.092 1402.15 431.508 1405.15 434.51C1411.31 440.665 1414.82 449.139 1414.82 457.842C1414.82 466.548 1411.31 475.023 1405.15 481.175C1399.15 487.171 1390.4 491.141 1381.82 490.84C1381.13 490.818 1380.44 490.78 1379.75 490.742C1378.46 490.704 1377.16 490.761 1375.88 490.761C1374.85 490.761 1373.82 490.75 1372.79 490.758C1371.37 490.952 1369.95 491.206 1368.54 491.452C1367.04 491.714 1365.53 491.873 1364.03 492.067C1360.95 492.856 1357.89 493.758 1354.84 494.594C1351.47 495.514 1348.14 496.511 1344.82 497.59C1337 500.445 1329.33 503.68 1321.82 507.25C1319.25 508.684 1316.77 510.198 1314.32 511.799C1310.57 514.389 1306.83 516.984 1302.88 519.248C1299.94 520.937 1296.99 522.59 1294.08 524.324C1289.98 527.225 1286.01 530.282 1281.99 533.304C1277.18 536.921 1272.2 540.278 1267.21 543.63C1260.16 548.662 1253.42 554.014 1246.89 559.707C1242.68 563.381 1238.22 566.755 1233.49 569.763C1229.71 572.17 1225.83 574.415 1222.02 576.789C1215.97 580.559 1209.87 584.214 1203.69 587.779C1203.19 588.066 1202.69 588.353 1202.19 588.64C1198.45 589.973 1194.71 591.273 1190.97 592.606C1177.56 597.393 1164.54 603.17 1151.42 608.699C1143.6 611.822 1135.7 614.813 1127.75 617.624C1126.27 618.132 1124.79 618.646 1123.32 619.179C1123.3 619.187 1123.28 619.192 1123.26 619.201H1123.26H1123.26C1123.26 619.201 1123.25 619.203 1123.24 619.206C1123.19 619.223 1123.15 619.239 1123.1 619.258C1123.08 619.266 1123.06 619.274 1123.03 619.283C1122.92 619.324 1122.8 619.367 1122.68 619.408C1122.78 619.375 1122.87 619.34 1122.97 619.307C1118.8 620.851 1114.71 622.555 1110.6 624.254C1108.45 625.109 1106.24 625.787 1104.06 626.577C1102 627.328 1099.94 628.087 1097.9 628.91C1095.91 629.715 1093.85 630.379 1091.86 631.188C1089.58 632.114 1087.33 633.084 1085.1 634.103C1084.87 634.193 1084.65 634.28 1084.42 634.365C1084.43 634.272 1084.44 634.179 1084.45 634.086Z" fill="black"/>
<path d="M1385.03 425.089C1385.15 425.095 1385.27 425.103 1385.39 425.111C1385.27 425.105 1385.15 425.097 1385.03 425.089Z" fill="black"/>
<path d="M1214.33 510.986C1214.1 511.041 1213.88 511.098 1213.65 511.153C1213.88 511.096 1214.1 511.041 1214.33 510.986Z" fill="black"/>
<path d="M1084.44 634.087C1084.57 632.764 1084.43 631.464 1084.06 630.24C1084.08 630.044 1084.1 629.847 1084.12 629.65C1084.27 628.118 1084.47 626.582 1084.57 625.044C1084.79 621.864 1085.17 618.406 1083.85 615.445C1083.88 615.325 1083.91 615.201 1083.94 615.079C1085.62 609.765 1087.72 604.599 1089.86 599.458C1091.37 595.83 1092.88 592.197 1094.46 588.599C1094.5 588.544 1094.55 588.487 1094.59 588.43C1094.87 588.058 1095.14 587.678 1095.4 587.296C1096.05 587.55 1096.72 587.749 1097.41 587.889C1099.94 588.397 1102.61 588.058 1104.94 586.943C1107.43 585.755 1109.09 583.862 1110.47 581.529C1112.48 578.109 1113.17 574.041 1114.14 570.222C1114.59 568.468 1114.99 566.723 1115.37 564.952C1115.96 562.152 1116.55 559.368 1117 556.544C1127.13 552.708 1137.12 548.416 1146.92 543.819C1159.39 537.066 1171.72 530.075 1183.89 522.786C1190.95 521.254 1198.01 519.716 1205.03 517.989C1211.24 516.46 1217.46 514.938 1223.65 513.304C1226.97 512.534 1230.31 511.862 1233.69 511.433C1234.72 511.302 1235.75 511.209 1236.78 511.089C1237.99 510.949 1239.11 510.742 1240.3 510.507C1242.54 510.007 1244.55 509.122 1246.24 507.477C1247.84 505.926 1248.95 503.918 1249.45 501.76C1249.84 501.418 1250.21 501.047 1250.56 500.639C1252.24 498.697 1253.26 496.422 1253.57 494.009C1255.54 494.277 1257.52 493.78 1259.09 492.633C1260.71 494.08 1262.37 495.49 1264.02 496.883C1267.08 499.448 1270.21 501.904 1273.39 504.306C1275.54 505.931 1277.74 507.502 1279.96 509.045C1281.07 509.821 1282.17 510.619 1283.3 511.37C1284.01 511.848 1284.73 512.324 1285.44 512.799C1286.34 513.394 1287.27 513.905 1288.21 514.419C1288.34 514.492 1288.47 514.566 1288.61 514.635C1288.66 514.662 1288.71 514.692 1288.76 514.719C1288.76 514.717 1288.76 514.717 1288.76 514.714C1290.06 515.35 1291.5 515.675 1292.94 515.675C1295.09 515.675 1297.25 514.957 1298.96 513.479C1300.77 511.922 1301.92 509.668 1302.12 507.291C1302.38 504.328 1301.16 501.658 1299.07 499.618C1298.87 499.418 1298.66 499.219 1298.45 499.022C1298.14 496.553 1296.86 494.209 1294.71 492.66C1293.16 491.537 1291.61 490.414 1290.07 489.283C1290.05 488.912 1290 488.54 1289.93 488.171C1289.5 485.808 1288.12 483.855 1286.18 482.473C1282.21 479.626 1278.13 476.957 1274.04 474.269C1272.42 473.204 1270.81 472.127 1269.22 471.026C1269.16 470.928 1269.1 470.83 1269.04 470.731C1268.26 469.51 1267.24 468.6 1266.09 467.756C1265.22 467.076 1264.34 466.401 1263.45 465.738C1267.14 463.369 1270.91 461.102 1274.78 458.99C1304.5 438.911 1348.96 422.829 1384.44 425.05C1383.27 424.97 1382.09 424.891 1380.91 424.812C1382.27 424.847 1383.59 424.935 1384.87 425.077C1384.92 425.08 1384.97 425.085 1385.03 425.089C1384.98 425.087 1384.94 425.084 1384.89 425.08C1427.76 429.861 1422.6 493.436 1378.79 490.732C1377.82 490.729 1376.84 490.762 1375.88 490.762C1374.84 490.762 1373.81 490.751 1372.77 490.762C1371.35 490.956 1369.94 491.21 1368.53 491.453C1367.04 491.715 1365.53 491.876 1364.02 492.07C1360.95 492.857 1357.89 493.759 1354.83 494.597C1351.45 495.52 1348.11 496.521 1344.79 497.599C1336.98 500.452 1329.32 503.683 1321.82 507.248C1319.24 508.691 1316.75 510.215 1314.28 511.824C1310.55 514.406 1306.81 516.99 1302.88 519.249C1299.93 520.94 1296.98 522.596 1294.06 524.333C1289.97 527.234 1286 530.288 1281.99 533.307C1276.92 537.118 1271.64 540.65 1266.38 544.188C1254.93 552.113 1245.21 562.232 1233.49 569.766C1223.11 576.123 1212.73 582.529 1202.18 588.643C1198.45 589.976 1194.7 591.277 1190.97 592.61C1177.56 597.393 1164.53 603.174 1151.42 608.7C1143.59 611.825 1135.69 614.814 1127.75 617.625C1126.2 618.158 1124.65 618.693 1123.11 619.254C1123.18 619.226 1123.24 619.204 1123.31 619.18C1123.1 619.256 1122.89 619.332 1122.68 619.409C1122.82 619.357 1122.97 619.303 1123.11 619.254C1118.89 620.813 1114.75 622.537 1110.6 624.253C1108.45 625.113 1106.23 625.791 1104.06 626.58C1101.99 627.329 1099.93 628.091 1097.9 628.913C1095.9 629.719 1093.85 630.383 1091.86 631.192C1089.58 632.118 1087.33 633.085 1085.09 634.104C1084.87 634.191 1084.64 634.281 1084.41 634.365C1084.42 634.273 1084.43 634.18 1084.44 634.087Z" fill="black"/>
<path d="M1105.66 615.946C1105.48 606.248 1105.36 596.547 1105.14 586.847C1107.52 585.656 1109.13 583.8 1110.47 581.528C1112.48 578.108 1113.17 574.04 1114.14 570.221C1114.59 568.467 1114.99 566.721 1115.37 564.951C1115.83 562.768 1116.29 560.596 1116.68 558.405C1122.62 553.371 1130.26 550.543 1138.08 550.551C1146.78 550.557 1155.26 554.073 1161.4 560.233C1167.62 566.453 1170.94 574.824 1171.05 583.574C1171.12 589.136 1171.25 594.698 1171.36 600.26C1164.69 603.03 1158.07 605.899 1151.42 608.701C1143.59 611.824 1135.69 614.812 1127.75 617.623C1126.24 618.142 1124.73 618.667 1123.23 619.208C1123.26 619.197 1123.29 619.189 1123.31 619.178C1123.25 619.202 1123.18 619.227 1123.11 619.251C1123.11 619.251 1123.11 619.25 1123.11 619.251C1123.11 619.253 1123.1 619.254 1123.1 619.254C1123.03 619.282 1122.96 619.309 1122.89 619.333C1122.82 619.358 1122.75 619.383 1122.68 619.41C1122.75 619.383 1122.82 619.358 1122.89 619.333C1122.9 619.331 1122.91 619.325 1122.92 619.323C1118.77 620.863 1114.69 622.563 1110.6 624.254C1109.04 624.876 1107.44 625.406 1105.85 625.95C1105.79 622.617 1105.72 619.282 1105.66 615.946Z" fill="black"/>
<path d="M1163.92 637.448C1163.88 637.462 1163.85 637.476 1163.82 637.489C1163.77 637.511 1163.72 637.53 1163.66 637.552C1163.64 637.563 1163.62 637.571 1163.6 637.579C1163.7 637.536 1163.81 637.492 1163.92 637.448Z" fill="black"/>
<path d="M1137.95 647.256C1137.83 647.299 1137.7 647.346 1137.57 647.389C1137.7 647.343 1137.82 647.299 1137.95 647.256Z" fill="black"/>
<path d="M1137.18 647.526C1136.97 647.6 1136.76 647.676 1136.54 647.753C1136.76 647.676 1136.97 647.6 1137.18 647.526Z" fill="black"/>
<path d="M1137.56 647.392C1137.67 647.354 1137.79 647.313 1137.9 647.275C1137.79 647.313 1137.67 647.354 1137.57 647.392H1137.56Z" fill="black"/>
<path d="M1106.48 659.385C1108.61 658.598 1110.72 657.746 1112.86 656.97C1116.72 655.566 1120.57 654.186 1124.36 652.596C1127.4 651.323 1130.42 650.037 1133.49 648.835C1133.7 648.761 1133.91 648.684 1134.11 648.608C1134.87 648.343 1135.62 648.075 1136.38 647.81C1136.33 647.829 1136.28 647.848 1136.23 647.868C1137.24 647.51 1138.26 647.154 1139.27 646.797C1138.82 646.955 1138.36 647.116 1137.9 647.275C1146.54 644.261 1155.12 641.041 1163.6 637.579C1163.58 637.585 1163.57 637.59 1163.56 637.596C1163.59 637.582 1163.63 637.568 1163.66 637.552C1163.72 637.53 1163.77 637.508 1163.82 637.487C1163.87 637.467 1163.92 637.446 1163.98 637.424C1163.99 637.421 1164 637.415 1164.01 637.41C1166.68 636.306 1169.34 635.184 1172 634.063C1172.04 636.479 1172.09 638.891 1172.13 641.308C1171.86 641.44 1171.58 641.573 1171.31 641.71C1170.77 641.972 1170.23 642.226 1169.71 642.502C1169.71 642.5 1169.71 642.497 1169.72 642.494C1169.67 642.516 1169.63 642.54 1169.59 642.562C1169.59 642.562 1169.58 642.565 1169.58 642.568C1169.58 642.565 1169.59 642.565 1169.59 642.562H1169.59C1169.46 642.628 1169.33 642.699 1169.2 642.77C1169.2 642.773 1169.19 642.773 1169.18 642.775C1169.17 642.781 1169.17 642.786 1169.16 642.792C1169.15 642.797 1169.14 642.8 1169.13 642.805C1169.14 642.803 1169.14 642.8 1169.15 642.797C1169.09 642.825 1169.04 642.854 1168.98 642.885C1169 642.876 1169.01 642.871 1169.02 642.863C1168.98 642.885 1168.95 642.901 1168.91 642.92C1168.91 642.92 1168.91 642.92 1168.91 642.923C1168.91 642.923 1168.91 642.92 1168.91 642.92C1168.91 642.923 1168.91 642.923 1168.91 642.923C1168.9 642.926 1168.9 642.928 1168.9 642.928C1168.9 642.928 1168.89 642.931 1168.89 642.934C1168.89 642.934 1168.88 642.935 1168.88 642.936C1168.88 642.936 1168.88 642.935 1168.88 642.934C1168.86 642.947 1168.84 642.958 1168.81 642.972C1168.81 642.972 1168.81 642.972 1168.81 642.972C1168.81 642.975 1168.81 642.975 1168.81 642.975C1168.37 643.199 1167.91 643.382 1167.48 643.598C1167.04 643.813 1166.59 644.027 1166.17 644.27C1165.93 644.406 1165.69 644.538 1165.46 644.679C1165.24 644.811 1165.03 644.944 1164.81 645.073C1164.66 645.163 1164.51 645.253 1164.35 645.346C1164.29 645.384 1164.22 645.428 1164.15 645.463C1163.9 645.595 1163.66 645.729 1163.41 645.86C1163.41 645.86 1163.41 645.86 1163.41 645.86C1162.81 646.16 1162.21 646.45 1161.62 646.742C1156.48 648.622 1151.63 651.222 1147.23 654.435C1147.06 654.522 1146.89 654.61 1146.71 654.694C1146.55 654.774 1146.4 654.853 1146.24 654.932C1146.18 654.959 1146.13 654.987 1146.07 655.017C1146.09 655.009 1146.1 655.003 1146.11 654.995C1146.09 655.006 1146.07 655.017 1146.05 655.028C1146.07 655.02 1146.08 655.014 1146.09 655.006C1145.46 655.345 1144.83 655.68 1144.2 656.022C1144.22 656.016 1144.23 656.008 1144.24 656.003C1144.14 656.052 1144.05 656.112 1143.96 656.167C1143.74 656.295 1143.53 656.424 1143.31 656.552C1143.09 656.686 1142.86 656.82 1142.64 656.951C1142.57 656.989 1142.51 657.027 1142.44 657.071C1141.81 657.5 1141.17 657.926 1140.54 658.363C1140.04 658.713 1139.53 659.063 1139.03 659.409C1138.61 659.59 1138.19 659.77 1137.77 659.948C1134.42 661.368 1131.29 663.046 1128.03 664.559C1127.37 664.868 1126.72 665.187 1126.08 665.518C1125.81 665.581 1125.53 665.644 1125.25 665.712C1121.48 666.635 1116.7 668.214 1112.97 670.135C1112.81 670.189 1112.65 670.238 1112.5 670.29C1111.82 670.512 1111.13 670.692 1110.46 670.927C1109.92 671.118 1109.37 671.29 1108.83 671.498C1108.83 671.501 1108.82 671.503 1108.81 671.506C1108.68 671.552 1108.54 671.58 1108.41 671.632C1108.25 671.692 1108.11 671.757 1107.96 671.837C1107.86 671.809 1107.74 671.831 1107.66 671.905C1107.66 671.905 1107.66 671.908 1107.65 671.908C1107.59 671.924 1107.54 671.94 1107.48 671.957C1107.41 671.976 1107.35 671.995 1107.29 672.017C1107.21 672.033 1107.12 672.052 1107.04 672.072C1107.03 672.072 1107.03 672.074 1107.02 672.077C1107.03 672.074 1107.03 672.074 1107.04 672.072H1107.04C1107.01 672.08 1106.98 672.085 1106.95 672.093C1106.95 672.093 1106.95 672.093 1106.95 672.093C1106.94 672.096 1106.94 672.096 1106.94 672.096C1106.93 672.096 1106.93 672.099 1106.93 672.099C1106.93 672.099 1106.92 672.099 1106.92 672.099C1106.88 672.11 1106.85 672.118 1106.81 672.129C1106.82 672.126 1106.83 672.123 1106.83 672.121C1106.8 672.132 1106.75 672.14 1106.72 672.151C1106.64 667.897 1106.56 663.641 1106.48 659.385Z" fill="black"/>
<path d="M1079.13 661.834C1079.19 660.889 1079.13 659.957 1078.95 659.056C1080.4 657.78 1081.45 656.228 1082.2 654.417C1082.89 652.764 1083.04 651.06 1083.19 649.303C1083.44 647.64 1083.67 645.973 1083.84 644.298C1084 642.577 1084.05 640.843 1084.13 639.119C1084.21 637.444 1084.28 635.759 1084.45 634.089C1084.58 632.767 1084.43 631.464 1084.06 630.243C1084.09 630.046 1084.11 629.85 1084.13 629.653C1084.28 628.12 1084.47 626.585 1084.58 625.047C1084.8 621.865 1085.18 618.406 1083.85 615.447C1083.88 615.324 1083.91 615.202 1083.95 615.079C1085.62 609.765 1087.72 604.599 1089.86 599.461C1091.37 595.83 1092.88 592.2 1094.47 588.602C1094.51 588.544 1094.55 588.487 1094.6 588.432C1094.88 588.061 1095.15 587.681 1095.41 587.296C1096.05 587.55 1096.72 587.75 1097.41 587.891C1099.95 588.399 1102.62 588.061 1104.95 586.946C1107.43 585.758 1109.1 583.865 1110.47 581.532C1112.49 578.111 1113.17 574.044 1114.15 570.225C1114.6 568.471 1115 566.725 1115.37 564.955C1116 561.975 1116.63 559.01 1117.09 555.992C1117.32 554.467 1117.5 552.949 1117.65 551.416C1117.8 549.908 1118.01 548.488 1117.89 546.955C1117.69 544.373 1116.88 541.805 1115.32 539.716C1116.23 539.065 1117.14 538.404 1118.05 537.759C1119.39 536.82 1120.74 535.875 1122.08 534.929C1123.04 534.981 1124 534.918 1124.94 534.741C1126.37 534.473 1127.59 533.932 1128.84 533.26C1128.83 533.263 1128.83 533.269 1128.82 533.271C1128.7 533.34 1128.57 533.408 1128.44 533.479C1128.57 533.411 1128.7 533.34 1128.82 533.271C1129.96 532.654 1131.11 532.047 1132.23 531.408C1132.34 531.392 1132.44 531.375 1132.55 531.356C1137.12 530.55 1141.74 530.012 1146.29 529.124C1148.82 528.633 1151.35 528.127 1153.87 527.597C1155.91 527.166 1157.97 526.846 1160.03 526.513C1161.45 526.371 1162.88 526.231 1164.29 526.073C1166.67 525.808 1169.1 525.674 1171.45 525.245C1175.48 524.51 1179.49 523.737 1183.5 522.869C1190.69 521.309 1197.89 519.746 1205.03 517.987C1211.24 516.457 1217.46 514.938 1223.65 513.304C1226.97 512.534 1230.31 511.862 1233.69 511.43C1234.72 511.299 1235.75 511.206 1236.78 511.086C1237.98 510.952 1239.1 510.745 1240.28 510.512C1240.27 510.512 1240.27 510.515 1240.26 510.515C1240.27 510.512 1240.29 510.51 1240.3 510.507C1240.33 510.502 1240.35 510.498 1240.37 510.493C1242.58 509.991 1244.56 509.107 1246.24 507.475C1247.84 505.926 1248.95 503.918 1249.45 501.76C1249.84 501.418 1250.21 501.044 1250.56 500.637C1252.24 498.7 1253.26 496.424 1253.57 494.015C1255.54 494.28 1257.52 493.785 1259.09 492.633C1260.71 494.08 1262.37 495.49 1264.03 496.883C1267.08 499.448 1270.21 501.904 1273.39 504.306C1275.55 505.931 1277.74 507.502 1279.96 509.045C1281.07 509.821 1282.17 510.619 1283.3 511.37C1284.02 511.848 1284.73 512.324 1285.45 512.799C1286.34 513.394 1287.27 513.905 1288.21 514.419C1288.34 514.493 1288.47 514.566 1288.61 514.635C1288.66 514.662 1288.71 514.692 1288.76 514.719C1288.76 514.717 1288.76 514.717 1288.77 514.714C1290.06 515.35 1291.5 515.675 1292.95 515.675C1295.1 515.675 1297.25 514.957 1298.97 513.479C1300.77 511.922 1301.92 509.668 1302.12 507.291C1302.38 504.327 1301.17 501.659 1299.07 499.618C1298.87 499.416 1298.66 499.219 1298.46 499.022C1298.14 496.553 1296.85 494.209 1294.72 492.663C1293.16 491.54 1291.61 490.414 1290.07 489.286C1290.05 488.912 1290 488.54 1289.93 488.171C1289.5 485.808 1288.12 483.855 1286.19 482.473C1282.21 479.626 1278.13 476.957 1274.04 474.269C1272.42 473.204 1270.81 472.127 1269.22 471.027C1269.16 470.928 1269.1 470.83 1269.04 470.731C1268.26 469.51 1267.24 468.601 1266.09 467.756C1264.34 466.391 1262.56 465.055 1260.74 463.762C1260.11 463.312 1259.46 462.883 1258.8 462.468C1257.06 461.113 1255.32 459.766 1253.56 458.432C1251.15 456.515 1248.85 454.499 1246.51 452.494C1245.8 451.887 1245.09 451.286 1244.37 450.699C1243.63 449.855 1242.87 449.03 1242.08 448.229C1240.92 447.044 1239.67 446.025 1238.3 445.164C1238.99 444.765 1239.69 444.364 1240.38 443.962C1247.74 439.665 1255.56 436.13 1263.27 432.458C1272.9 427.404 1282.57 422.446 1292.36 417.701C1297.55 415.084 1302.74 412.467 1308.04 410.077C1313.81 407.47 1320.14 405.383 1326.12 403.512C1329.77 402.367 1333.48 401.307 1337.18 400.313C1340.96 399.294 1344.85 398.625 1348.73 397.963C1363.33 393.62 1379.31 394.423 1393.38 400.376C1409.09 407.017 1421.87 419.791 1428.51 435.496C1431.94 443.607 1433.69 452.379 1433.69 461.186C1433.69 467.142 1432.9 472.988 1431.33 478.73C1430.39 481.445 1429.45 484.158 1428.51 486.874C1426.75 491.556 1422.96 497.654 1419.91 501.593C1416.45 506.073 1412.47 510.045 1408 513.512C1403.42 517.047 1398.28 520.046 1392.95 522.278C1389.91 523.549 1386.58 524.753 1383.28 525.499C1379.27 526.403 1375.24 527.245 1371.19 527.939C1371.01 527.969 1370.83 527.999 1370.65 528.031C1368.26 528.687 1365.87 529.376 1363.5 530.091C1358.91 531.919 1354.44 533.976 1353.67 534.345C1348.61 536.874 1343.54 539.388 1338.47 541.868C1334.47 543.969 1330.5 546.111 1326.51 548.209C1320.95 551.129 1315.28 553.82 1309.61 556.527C1305.25 558.931 1300.98 561.491 1296.61 563.895C1291.28 566.832 1285.84 569.575 1280.39 572.287C1276 574.601 1271.7 577.043 1267.51 579.68C1266.6 580.341 1265.68 580.98 1264.73 581.597C1264.33 581.879 1263.94 582.155 1263.53 582.428C1259.47 585.515 1255.56 588.79 1251.38 591.702C1246.39 595.174 1241.41 598.669 1236.21 601.824C1233.96 603.187 1231.74 604.572 1229.54 606.004C1229.24 606.206 1228.94 606.408 1228.65 606.607C1228.31 606.837 1227.97 607.066 1227.63 607.296C1226.87 607.815 1226.17 608.296 1225.51 608.746C1223.41 610.361 1221.2 611.852 1218.9 613.205C1218.46 613.497 1218.02 613.792 1217.58 614.082C1216.63 614.71 1215.68 615.344 1214.73 615.972C1208.33 620.206 1201.98 624.463 1195.34 628.331C1188.69 632.215 1181.84 635.742 1175.21 639.668C1174.72 639.957 1174.22 640.247 1173.73 640.531H1173.72C1173.64 640.523 1173.58 640.548 1173.51 640.575C1173.41 640.597 1173.3 640.613 1173.19 640.646C1173.03 640.695 1172.86 640.769 1172.72 640.864C1172.56 640.974 1172.41 641.097 1172.26 641.217C1172.22 641.25 1172.18 641.28 1172.14 641.31C1171.86 641.446 1171.58 641.58 1171.31 641.714C1170.77 641.976 1170.24 642.23 1169.71 642.506C1169.71 642.504 1169.71 642.504 1169.71 642.504C1169.67 642.523 1169.63 642.545 1169.59 642.566C1169.59 642.569 1169.59 642.569 1169.58 642.572C1169.59 642.569 1169.59 642.569 1169.59 642.566C1169.59 642.566 1169.59 642.566 1169.59 642.566C1169.46 642.632 1169.33 642.703 1169.2 642.774C1169.18 642.785 1169.16 642.796 1169.13 642.809C1169.14 642.807 1169.14 642.804 1169.15 642.801C1169.09 642.831 1169.04 642.859 1168.99 642.889C1169 642.881 1169.01 642.875 1169.02 642.867C1168.99 642.886 1168.95 642.905 1168.92 642.924C1168.91 642.927 1168.91 642.93 1168.9 642.932C1168.9 642.932 1168.9 642.935 1168.89 642.935C1168.89 642.935 1168.89 642.935 1168.89 642.938H1168.89C1168.89 642.938 1168.88 642.941 1168.88 642.943C1168.88 642.943 1168.88 642.941 1168.89 642.941C1168.86 642.952 1168.83 642.965 1168.81 642.979C1168.37 643.2 1167.92 643.386 1167.48 643.602C1167.04 643.818 1166.6 644.031 1166.17 644.274C1165.93 644.41 1165.69 644.542 1165.46 644.684C1165.24 644.815 1165.03 644.948 1164.81 645.077C1164.66 645.167 1164.51 645.257 1164.36 645.35C1164.29 645.388 1164.22 645.432 1164.16 645.467C1163.91 645.599 1163.66 645.733 1163.41 645.864C1162.81 646.164 1162.21 646.459 1161.6 646.754C1157.93 648.098 1154.41 649.814 1151.08 651.857C1150.63 652.062 1150.17 652.264 1149.72 652.466C1148.45 653.024 1147.18 653.587 1145.92 654.16C1139.18 657.81 1132.54 661.61 1125.59 664.907C1124.24 665.549 1122.87 666.167 1121.5 666.762C1118.68 667.636 1115.7 668.762 1113.17 670.04C1112.78 670.18 1112.39 670.316 1111.99 670.453C1111.48 670.609 1110.97 670.753 1110.46 670.931C1109.93 671.12 1109.39 671.286 1108.86 671.491C1108.09 671.734 1107.33 671.969 1106.56 672.199C1106.52 672.209 1106.47 672.22 1106.43 672.234C1103.89 672.988 1101.33 673.668 1098.75 674.272C1091.48 675.968 1084.41 678.326 1077.16 680.08C1076.74 680.181 1076.33 680.282 1075.91 680.383C1077.39 674.272 1078.73 668.15 1079.13 661.834Z" fill="black"/>
<path d="M216.358 591.701C212.173 588.789 208.255 585.513 204.199 582.426C203.794 582.153 203.396 581.878 202.996 581.596C202.054 580.979 201.128 580.34 200.224 579.678C196.028 577.042 191.733 574.6 187.34 572.286C181.888 569.573 176.449 566.831 171.119 563.894C166.754 561.49 162.481 558.93 158.124 556.526C152.458 553.819 146.778 551.128 141.224 548.208C137.231 546.11 133.258 543.968 129.265 541.867C124.186 539.387 119.121 536.873 117.75 536.193C113.289 533.975 108.825 531.918 104.233 530.09C101.856 529.374 99.471 528.686 97.0808 528.031C96.9031 527.998 96.7228 527.968 96.5452 527.938C92.4911 527.244 88.4619 526.402 84.4515 525.498C81.1487 524.752 77.8186 523.548 74.7834 522.277C69.4538 520.045 64.3123 517.046 59.7365 513.511C55.259 510.044 51.2842 506.072 47.8203 501.592C44.7743 497.652 40.9825 491.555 39.2258 486.873C38.2808 484.157 37.341 481.445 36.3984 478.729C34.825 472.987 34.0381 467.141 34.0381 461.185C34.0381 452.378 35.7975 443.606 39.2258 435.495C45.867 419.79 58.6439 407.016 74.349 400.375C88.4234 394.422 104.405 393.619 118.998 397.962C122.883 398.624 126.77 399.293 130.557 400.312C134.253 401.306 137.957 402.366 141.61 403.511C147.59 405.382 153.919 407.469 159.692 410.075C164.997 412.466 170.179 415.083 175.372 417.7C185.166 422.445 194.828 427.403 204.461 432.457C212.176 436.129 219.997 439.664 227.356 443.961C228.045 444.363 228.736 444.764 229.427 445.163C228.058 446.023 226.813 447.043 225.649 448.228C224.862 449.028 224.097 449.853 223.357 450.698C222.638 451.285 221.928 451.886 221.223 452.493C218.885 454.498 216.574 456.514 214.164 458.432C212.408 459.767 210.665 461.111 208.927 462.466C208.269 462.882 207.619 463.311 206.985 463.761C205.168 465.053 203.39 466.389 201.631 467.755C200.486 468.599 199.47 469.509 198.688 470.73C198.626 470.828 198.566 470.927 198.505 471.025C196.913 472.126 195.306 473.202 193.687 474.268C189.6 476.956 185.518 479.625 181.541 482.472C179.607 483.854 178.23 485.807 177.793 488.17C177.722 488.539 177.678 488.911 177.659 489.285C176.113 490.413 174.561 491.539 173.012 492.661C170.87 494.208 169.589 496.551 169.272 499.021C169.064 499.218 168.859 499.414 168.655 499.617C166.562 501.657 165.347 504.326 165.603 507.29C165.808 509.667 166.955 511.921 168.761 513.478C170.471 514.956 172.632 515.674 174.782 515.674C176.225 515.674 177.664 515.349 178.962 514.713C178.962 514.713 178.962 514.715 178.965 514.718C179.014 514.691 179.066 514.661 179.118 514.633C179.251 514.565 179.383 514.491 179.514 514.418C180.451 513.904 181.388 513.393 182.281 512.798C182.997 512.322 183.71 511.847 184.426 511.369C185.554 510.618 186.658 509.82 187.769 509.044C189.982 507.501 192.181 505.93 194.337 504.304C197.519 501.903 200.644 499.447 203.701 496.882C205.36 495.489 207.015 494.079 208.635 492.631C210.206 493.781 212.189 494.279 214.151 494.011C214.465 496.423 215.487 498.696 217.164 500.636C217.516 501.043 217.891 501.417 218.281 501.758C218.776 503.916 219.888 505.924 221.486 507.473C222.484 508.444 223.592 509.151 224.791 509.669V597.505C221.956 595.606 219.159 593.651 216.358 591.701Z" fill="black"/>
<path d="M1333.78 500.913C1321.47 488.604 1314.45 471.658 1314.45 454.248C1314.45 436.836 1321.47 419.89 1333.78 407.58C1346.09 395.271 1363.04 388.25 1380.45 388.25C1397.86 388.25 1414.8 395.271 1427.11 407.58C1439.42 419.89 1446.44 436.836 1446.44 454.248C1446.44 471.658 1439.42 488.604 1427.11 500.913C1414.8 513.223 1397.86 520.244 1380.45 520.244C1363.04 520.244 1346.09 513.223 1333.78 500.913Z" fill="black"/>
<path d="M40.613 500.913C28.3035 488.604 21.2854 471.658 21.2854 454.248C21.2854 436.836 28.3035 419.89 40.613 407.58C52.9255 395.271 69.8711 388.25 87.2811 388.25C104.694 388.25 121.639 395.271 133.949 407.58C146.258 419.89 153.277 436.836 153.277 454.248C153.277 471.658 146.258 488.604 133.949 500.913C121.639 513.223 104.694 520.244 87.2811 520.244C69.8711 520.244 52.9255 513.223 40.613 500.913Z" fill="black"/>
<path d="M1379.93 520.523C1379.08 520.481 1378.25 520.441 1377.44 520.4C1375.91 520.356 1374.39 520.258 1372.87 520.107C1369.2 519.799 1365.63 519.266 1362.24 518.157C1361.55 517.974 1360.87 517.777 1360.19 517.572C1357.27 517.015 1354.37 516.389 1351.54 515.471C1339.12 511.437 1327.36 506.082 1315.74 500.143C1309.04 496.717 1302.85 492.59 1296.41 488.721C1293.52 486.981 1290.57 485.348 1287.62 483.717C1287.19 483.263 1286.71 482.848 1286.19 482.474C1282.21 479.627 1278.13 476.958 1274.04 474.27C1272.42 473.205 1270.81 472.128 1269.22 471.027C1269.16 470.929 1269.1 470.831 1269.04 470.732C1268.26 469.511 1267.24 468.601 1266.09 467.757C1264.34 466.391 1262.56 465.055 1260.74 463.763C1260.11 463.313 1259.46 462.884 1258.8 462.468C1257.06 461.114 1255.32 459.767 1253.56 458.433C1252.15 457.311 1250.78 456.155 1249.41 454.989C1248.17 453.827 1246.94 452.647 1245.71 451.478C1244.84 450.751 1243.97 450.025 1243.1 449.298C1242.77 448.938 1242.42 448.58 1242.08 448.227C1240.83 446.96 1239.49 445.881 1238.01 444.982C1236.36 443.562 1234.72 442.122 1233.12 440.641C1231.33 438.98 1229.54 437.308 1227.75 435.645C1226.73 434.858 1225.69 434.087 1224.64 433.325C1221.45 431.183 1218.27 429.014 1215.17 426.733C1212.55 424.802 1210.07 422.679 1207.53 420.658C1204.91 418.581 1202.13 416.729 1199.45 414.741C1198.03 413.686 1196.64 412.615 1195.23 411.561C1189.39 407.843 1183.72 403.928 1178.5 399.349C1176.05 397.194 1173.47 395.23 1170.83 393.342C1165.32 389.84 1159.71 386.504 1153.98 383.398C1149 380.986 1144.02 378.588 1139.17 375.965C1136.57 374.561 1133.98 373.14 1131.39 371.733C1130.68 371.425 1129.97 371.124 1129.26 370.829C1128.38 370.575 1127.49 370.332 1126.6 370.094C1120.72 369.048 1114.82 368.086 1108.95 366.909C1102.48 365.614 1096.06 364.467 1089.53 363.68C1083.55 363.461 1077.59 363.431 1071.6 363.573C1065.77 364.008 1059.94 364.42 1054.11 364.666C1047.92 364.931 1041.76 364.518 1035.6 363.983C1033.66 363.959 1031.72 363.972 1029.78 363.997C1012.45 364.193 995.317 356.872 983.108 344.666C970.798 332.357 963.778 315.408 963.778 298.001C963.778 280.589 970.798 263.643 983.108 251.333C995.521 238.92 1012.29 232.202 1029.78 232.003C1035.82 231.935 1041.83 232.232 1047.84 232.716C1050.49 232.74 1053.15 232.691 1055.81 232.596C1067.13 231.743 1078.49 230.951 1089.83 231.629C1100.34 232.26 1110.78 232.858 1121.12 234.956C1128.88 236.53 1136.64 237.969 1144.45 239.278C1151.02 240.381 1157.56 241.758 1164.02 243.387C1168.22 244.444 1173.11 246.266 1176.89 247.716C1178.55 248.35 1180.25 248.927 1181.87 249.664C1190 253.388 1197.76 257.745 1205.67 261.892C1211.29 264.591 1216.94 267.279 1222.36 270.35C1231.63 275.6 1240.48 281.334 1249.31 287.314C1252.41 289.412 1255.38 291.658 1258.24 294.07C1260.34 295.843 1262.4 297.613 1264.55 299.299C1268.26 301.656 1271.95 304.044 1275.47 306.686C1278.42 308.909 1281.33 311.18 1284.36 313.308C1289.58 316.968 1294.36 321.173 1299.55 324.882C1301.78 326.382 1304 327.898 1306.19 329.458C1310 332.174 1313.43 335.384 1316.92 338.493C1319.34 340.648 1321.7 342.874 1324.07 345.092C1326.21 346.876 1328.35 348.647 1330.46 350.469C1335.83 355.124 1340.9 360.044 1346.2 364.775C1346.88 365.365 1347.58 365.947 1348.29 366.513C1353.65 369.663 1359.29 372.364 1364.55 375.697C1369.52 378.852 1374.5 381.896 1379.65 384.71C1382.5 386.015 1385.38 387.264 1388.28 388.46C1402.96 390.493 1416.7 396.902 1427.23 407.438C1435.29 415.497 1441.23 425.633 1444.25 436.628C1446.67 445.419 1446.9 454.112 1446.01 463.13C1445.72 466.061 1445.13 468.951 1444.24 471.792C1441.93 479.07 1441.24 480.968 1437.57 487.631C1436.19 490.128 1434.6 492.486 1432.79 494.715C1427.71 501.291 1421.08 507.527 1413.74 511.453C1408.86 514.07 1403.23 516.993 1397.75 518.165C1392.26 519.34 1387.3 520.566 1381.76 520.566C1381.15 520.566 1380.54 520.553 1379.93 520.523Z" fill="black"/>
<path d="M69.9843 518.165C0.415491 498.482 7.63577 398.096 79.4472 388.46C94.2431 382.136 107.875 373.118 121.534 364.778C141.176 346.415 161.468 328.896 183.369 313.308C203.896 298.75 223.213 282.495 245.371 270.347C264.647 260.911 282.811 249.145 303.709 243.384C328.189 238.155 352.819 232.727 377.9 231.629C386.861 231.303 395.796 231.648 404.732 231.992C415.793 232.418 426.854 232.844 437.951 232.005C495.361 230.874 526.219 304.841 484.622 344.666C463.529 366.537 433.925 365.313 405.292 364.089C396.053 363.693 386.915 363.297 378.198 363.68C364.902 365.554 351.604 368.05 338.469 370.829C330.131 374.79 322.198 379.595 313.754 383.398C298.483 390.594 286.586 402.583 272.495 411.56C257.68 422.018 243.557 433.265 229.78 444.946C228.272 445.85 226.912 446.943 225.647 448.227C225.215 448.667 224.789 449.115 224.371 449.571C221.112 452.379 217.869 455.207 214.638 458.053C214.482 458.182 214.323 458.308 214.165 458.433C212.411 459.766 210.668 461.113 208.928 462.465C208.27 462.88 207.62 463.312 206.986 463.763C205.169 465.055 203.391 466.391 201.634 467.757C200.489 468.601 199.47 469.508 198.689 470.732C198.626 470.83 198.566 470.926 198.509 471.027C196.916 472.128 195.307 473.201 193.687 474.269C189.6 476.958 185.519 479.627 181.542 482.473C180.927 482.913 180.367 483.41 179.878 483.959C151.967 501.608 117.352 520.282 86.7631 520.282C81.0017 520.285 75.388 519.621 69.9843 518.165Z" fill="black"/>
<path d="M964.521 312.261C964.147 311.264 964.057 311.026 963.803 310.346C961.604 307.117 959.462 303.839 957.607 300.402C954.326 293.884 949.108 288.658 944.623 282.97C938.184 275.837 930.63 269.852 923.951 262.959C918.525 258.793 913.024 254.676 907.475 250.669C902.134 247.21 897.015 243.435 891.961 239.58C886.142 236.231 879.889 233.709 873.827 230.841C866.774 227.639 859.906 224.088 853.035 220.529C843.485 216.275 833.402 213.36 823.949 208.85C814.208 204.523 804.313 200.499 794.287 196.868C785.575 193.765 777.609 189.181 770.108 183.796C767.351 181.819 764.835 179.554 762.352 177.248C759.648 175.595 756.924 173.978 754.208 172.336C746.723 167.974 740.148 162.433 733.864 156.535C727.578 162.433 721.009 167.971 713.521 172.336C710.808 173.978 708.082 175.595 705.377 177.248C702.894 179.554 700.378 181.819 697.621 183.796C690.122 189.181 682.154 193.765 673.442 196.868C663.416 200.499 653.521 204.523 643.78 208.85C634.328 213.36 624.244 216.275 614.694 220.529C607.823 224.088 600.955 227.639 593.902 230.841C587.84 233.709 581.587 236.231 575.771 239.58C570.717 243.435 565.594 247.208 560.257 250.666C554.708 254.674 549.206 258.793 543.778 262.959C537.099 269.852 529.545 275.837 523.106 282.97C519.563 287.251 516.006 291.545 512.63 295.957C509.857 300.864 507.141 305.824 503.866 310.436C499.648 340.653 476.949 365.717 446.104 369.383C396.639 375.309 360.136 329.813 373.943 282.462C375.508 277.094 377.672 271.917 379.601 266.672C382.584 256.813 386.966 247.396 392.959 239.127C397.51 231.497 401.728 223.506 407.225 216.494C418.272 202.127 429.995 188.088 443.708 176.164C450.513 169.476 457.332 162.75 464.968 156.991C472.046 151.591 479.225 146.376 486.593 141.385C494.291 135.757 501.804 129.81 510.078 125.024C521.691 118.221 534.34 113.225 546.464 107.406C553.635 103.614 560.789 99.7379 568.321 96.741C575.096 94.0447 582.013 91.7992 588.717 88.9089C599.346 84.1392 610.058 79.5249 621.056 75.6595C627.708 69.7369 635.488 65.3029 643.042 60.6618C647.519 56.4574 652.134 52.3759 657.086 48.7426C659.512 45.8769 662.015 43.0687 664.643 40.3943C667.634 37.7034 669.959 34.0046 672.66 31.2071C675.228 28.295 677.452 26.1997 681.02 23.2822C689.442 14.1523 700.282 7.29816 712.36 3.99805C719.375 2.06677 726.658 1.34265 733.864 1.78256C753.463 0.416726 773.419 8.61486 786.556 23.1536C790.132 26.0931 792.493 28.2595 795.068 31.2071C797.765 34.01 800.098 37.7061 803.086 40.3943C805.714 43.0687 808.217 45.8769 810.643 48.7426C812.123 49.8356 813.601 50.9337 815.011 52.1167C818.308 54.8785 821.581 57.6841 824.687 60.6618C830.948 64.4836 837.292 68.2181 843.127 72.6846C844.329 73.6516 845.509 74.6458 846.673 75.6595C848.541 76.326 850.418 76.9654 852.265 77.6429C858.291 80.0304 864.285 82.5409 870.287 84.9859C879.742 89.5481 889.617 93.0177 899.408 96.741C910.439 101.167 920.613 107.477 931.543 112.162C940.298 116.265 949.362 120.041 957.651 125.024C965.923 129.813 973.441 135.757 981.136 141.385C996.434 151.692 1011.2 162.846 1024.02 176.164C1037.73 188.088 1049.46 202.127 1060.5 216.494C1065.99 223.503 1070.22 231.497 1074.77 239.127C1078.51 244.64 1082.01 250.15 1084.51 256.512C1086.49 261.503 1088.02 266.661 1090.01 271.652C1092.67 278.618 1095.27 285.787 1096.05 293.231C1101.74 334.192 1070.67 370.839 1028.95 369.85C1029.31 369.875 1029.67 369.9 1029.98 369.922C1029.65 369.927 1029.32 369.93 1028.99 369.93C997.058 369.932 968.017 344.058 964.521 312.261Z" fill="black"/>
<path d="M1115.31 664.61C1097.07 660.433 1080.96 648.793 1071.23 632.817C1061.8 617.35 1058.77 598.418 1062.81 580.771C1064.86 571.829 1068.68 563.336 1074.01 555.87C1079.36 548.368 1086.52 541.244 1094.6 536.692C1094.84 536.556 1095.08 536.422 1095.32 536.283C1095.36 536.261 1095.39 536.239 1095.43 536.217C1095.46 536.203 1095.49 536.187 1095.51 536.17C1095.83 535.988 1096.15 535.807 1096.47 535.63C1099.94 533.649 1103.4 531.66 1106.87 529.68C1118.39 523.093 1129.92 516.509 1141.44 509.923C1153.19 503.206 1164.94 496.488 1176.69 489.773C1188.6 482.963 1200.52 476.155 1212.43 469.345C1224.59 462.395 1236.74 455.445 1248.9 448.498C1259.96 442.176 1271.02 435.852 1282.08 429.533C1291.24 424.294 1300.41 419.054 1309.58 413.815C1316.25 410.003 1322.92 406.187 1329.59 402.376C1333.35 400.229 1337.1 398.074 1340.87 395.929C1348.85 391.383 1357.08 388.072 1366.2 386.619C1375.06 385.212 1384.17 385.513 1392.91 387.515C1411.15 391.692 1427.25 403.332 1436.99 419.308C1446.42 434.773 1449.45 453.708 1445.41 471.355C1443.36 480.296 1439.54 488.79 1434.21 496.256C1428.84 503.785 1421.7 510.827 1413.61 515.433C1412.29 516.19 1410.96 516.947 1409.64 517.706C1403.76 521.072 1397.87 524.435 1391.98 527.797C1384.32 532.179 1376.65 536.561 1368.99 540.943C1359.1 546.595 1349.21 552.245 1339.32 557.9C1327.32 564.767 1315.3 571.624 1303.3 578.489C1291.2 585.409 1279.09 592.326 1266.99 599.243C1255.25 605.953 1243.51 612.662 1231.78 619.371C1220.37 625.892 1208.96 632.413 1197.55 638.937C1187.8 644.512 1178.05 650.102 1168.29 655.658C1168.28 655.664 1168.27 655.669 1168.26 655.675C1167.96 655.849 1167.66 656.024 1167.35 656.196C1159.33 660.715 1151.16 664.05 1142.02 665.507C1138.36 666.086 1134.67 666.375 1130.98 666.375C1125.71 666.375 1120.44 665.788 1115.31 664.61Z" fill="black"/>
<path d="M200.736 599.244C188.632 592.327 176.527 585.41 164.425 578.49C152.421 571.625 140.409 564.768 128.406 557.9C118.519 552.245 108.627 546.596 98.7382 540.944C91.0725 536.562 83.4072 532.18 75.7415 527.798C69.8544 524.435 63.9701 521.072 58.0857 517.707C56.7609 516.947 55.4358 516.19 54.1109 515.434C46.03 510.828 38.8863 503.785 33.5128 496.256C28.1858 488.79 24.3667 480.297 22.3179 471.356C18.2747 453.708 21.307 434.774 30.7346 419.309C40.4708 403.333 56.575 391.693 74.8127 387.516C83.5518 385.513 92.6681 385.213 101.522 386.62C110.641 388.073 118.877 391.384 126.86 395.93C130.621 398.074 134.378 400.23 138.134 402.377C144.808 406.188 151.476 410.004 158.147 413.815C167.315 419.055 176.481 424.294 185.646 429.534C196.707 435.853 207.766 442.177 218.827 448.498C220.815 449.632 222.804 450.771 224.79 451.908V461.398V486.209V612.996C216.772 608.412 208.755 603.825 200.736 599.244Z" fill="black"/>
<path d="M405.061 610.216C405.163 610.08 405.265 609.945 405.366 609.809C405.319 610.054 405.271 610.297 405.221 610.541C405.168 610.433 405.114 610.324 405.061 610.216Z" fill="black"/>
<path d="M1244.71 455.304C1244.49 455.103 1244.38 454.829 1244.25 454.565C1244.07 454.243 1243.88 453.927 1243.7 453.602C1243.64 453.482 1243.57 453.361 1243.51 453.239C1243.45 453.144 1243.39 453.047 1243.34 452.949C1243.18 452.655 1243.04 452.351 1242.89 452.048C1242.05 450.593 1241.13 449.178 1240.19 447.784C1239.86 447.36 1239.55 446.929 1239.21 446.513C1238.96 446.247 1238.69 446.003 1238.42 445.748C1238.19 445.528 1237.98 445.297 1237.77 445.062C1237.52 444.804 1237.25 444.556 1237 444.292C1236.72 443.993 1236.46 443.68 1236.2 443.368C1235.9 443.052 1235.59 442.739 1235.3 442.418C1235.04 442.128 1234.78 441.826 1234.52 441.534C1234.45 441.469 1234.39 441.404 1234.33 441.341C1234.04 441.035 1233.88 440.633 1233.9 440.238C1233.73 440.066 1233.56 439.895 1233.39 439.727C1233.07 439.411 1232.68 439.048 1232.45 438.623C1232.35 438.515 1232.25 438.408 1232.16 438.301C1231.79 437.919 1231.41 437.545 1231.08 437.134C1230.89 436.894 1230.7 436.648 1230.57 436.372C1230.32 435.867 1230.44 435.23 1230.82 434.826C1231.16 434.465 1231.68 434.304 1232.17 434.422C1232.51 434.506 1232.77 434.708 1233 434.976C1233.35 435.387 1233.67 435.814 1234.04 436.206L1234.05 436.222C1234.29 436.468 1234.55 436.717 1234.74 437C1234.85 437.115 1234.96 437.231 1235.06 437.345C1235.6 437.859 1236.12 438.375 1236.61 438.929C1236.85 439.186 1237.08 439.443 1237.3 439.708C1237.52 439.977 1237.72 440.265 1237.95 440.53C1238.27 440.842 1238.62 441.135 1238.9 441.478C1239.11 441.735 1239.31 442.002 1239.53 442.254C1239.95 442.738 1240.34 443.25 1240.77 443.726C1241.22 444.191 1241.66 444.664 1242.06 445.18C1242.44 445.666 1243.02 446.163 1243.02 446.832C1243.02 446.887 1243.02 446.942 1243.01 446.996C1243.13 447.168 1243.24 447.341 1243.35 447.513C1243.62 447.377 1243.93 447.327 1244.23 447.371C1244.44 447.3 1244.65 447.283 1244.85 447.312C1244.76 446.991 1244.67 446.673 1244.56 446.354C1244.32 445.633 1244.76 444.824 1245.48 444.6C1246.22 444.371 1246.99 444.797 1247.23 445.518C1247.49 446.276 1247.67 447.036 1247.83 447.815C1247.85 447.884 1247.87 447.952 1247.89 448.02C1248.21 448.781 1248.58 449.518 1248.88 450.291C1249.17 451.037 1249.7 451.99 1249.12 452.73C1248.58 453.413 1247.66 453.472 1247.05 452.94C1247.01 452.945 1246.98 452.949 1246.93 452.952C1246.9 452.954 1246.86 452.954 1246.82 452.953C1246.82 452.989 1246.83 453.026 1246.83 453.064C1246.83 453.138 1246.83 453.211 1246.82 453.283C1246.93 453.529 1247.02 453.792 1247.05 454.044C1247.13 454.67 1246.84 455.282 1246.25 455.552C1246.07 455.638 1245.87 455.68 1245.68 455.68C1245.33 455.68 1244.98 455.547 1244.71 455.304Z" fill="black"/>
<path d="M221.473 455.552C220.883 455.282 220.601 454.67 220.68 454.044C220.711 453.792 220.799 453.529 220.909 453.283C220.9 453.211 220.896 453.138 220.899 453.064C220.901 453.026 220.905 452.989 220.91 452.953C220.871 452.954 220.832 452.954 220.793 452.952C220.752 452.95 220.712 452.946 220.672 452.94C220.068 453.472 219.143 453.413 218.607 452.73C218.023 451.99 218.561 451.037 218.847 450.291C219.6 448.755 220.068 447.168 220.495 445.518C220.735 444.797 221.508 444.371 222.248 444.601C223.538 445.05 223.252 446.304 222.877 447.312C223.081 447.283 223.292 447.301 223.499 447.371C223.795 447.327 224.107 447.377 224.375 447.513C224.489 447.341 224.6 447.168 224.713 446.996C224.612 446.257 225.257 445.702 225.669 445.18C226.483 444.176 227.402 443.274 228.196 442.254C229.883 440.249 231.772 438.258 233.55 436.353C234.243 435.741 234.63 434.705 235.561 434.422C236.651 434.125 237.675 435.359 237.159 436.372C236.227 437.78 234.979 439.016 233.83 440.238C233.874 441.164 232.935 441.742 232.427 442.418C230.857 444.264 228.976 445.83 227.541 447.784C226.343 449.546 225.189 451.344 224.214 453.239C223.603 454.272 223.035 456.228 221.473 455.552Z" fill="black"/>
<path d="M153.997 1147.56C144.793 1147.56 135.833 1143.86 129.312 1137.36C122.826 1130.91 118.942 1121.84 119.021 1112.66C119.204 1091.99 119.393 1071.33 119.578 1050.66C119.808 1025.11 120.037 999.552 120.267 973.995C120.496 948.224 120.728 922.451 120.96 896.679C121.19 870.863 121.422 845.045 121.654 819.229C121.884 793.801 122.111 768.373 122.34 742.945C122.57 717.212 122.802 691.478 123.031 665.747C123.258 640.545 123.485 615.344 123.709 590.143C123.821 577.72 123.933 565.294 124.043 552.868C130.13 556.73 136.191 560.649 142.373 564.352C156.526 572.829 170.83 581.027 185.15 589.214C187.962 590.837 190.782 592.442 193.61 594.037C193.5 606.478 193.387 618.92 193.275 631.364C193.045 656.731 192.819 682.102 192.592 707.473C192.36 733.204 192.13 758.935 191.898 784.669C191.668 810.214 191.439 835.759 191.21 861.307C190.98 887.017 190.751 912.726 190.519 938.435C190.286 964.47 190.051 990.501 189.819 1016.54C189.601 1040.66 189.385 1064.79 189.169 1088.92C189.103 1096.39 189.035 1103.86 188.967 1111.33C188.964 1111.73 188.961 1112.13 188.956 1112.53C188.866 1121.79 185.328 1130.68 178.761 1137.27C172.251 1143.81 163.279 1147.54 154.057 1147.56C154.038 1147.56 154.016 1147.56 153.997 1147.56Z" fill="black"/>
<path d="M90.1726 482.755C90.5417 481.92 90.9275 481.091 91.3296 480.27C91.4635 480.458 91.601 480.644 91.7436 480.827C91.7381 480.909 91.7352 480.988 91.7299 481.07C91.4355 481.768 91.1894 482.484 90.9911 483.212C90.7181 483.06 90.4453 482.908 90.1726 482.755Z" fill="black"/>
<path d="M107.856 1127.15C94.7567 1114.05 87.4792 1096.19 87.3726 1077.7C87.3153 1067.33 87.255 1056.95 87.1978 1046.58C87.0721 1024.33 86.9437 1002.09 86.8181 979.84C86.6841 956.631 86.5531 933.424 86.4192 910.214C86.2907 887.231 86.1596 864.246 86.0284 841.263C85.8974 818.31 85.7663 795.357 85.6351 772.402C85.5068 749.563 85.3757 726.725 85.2472 703.887C85.1243 682.628 85.0041 661.366 84.884 640.112C84.7691 619.93 84.6546 599.747 84.5397 579.564C84.4471 563.569 84.3575 547.577 84.2651 531.579C86.3724 532.58 88.4848 533.572 90.5881 534.59C95.3441 537.079 100.084 539.603 104.837 542.097C110.748 545.203 116.532 548.556 122.365 551.808C129.018 556.011 135.623 560.31 142.373 564.353C156.526 572.83 170.83 581.028 185.15 589.216C195.354 595.103 205.677 600.78 216.001 606.454C218.861 608.024 221.724 609.592 224.59 611.152C224.705 631.311 224.817 651.463 224.931 671.622C225.06 693.689 225.183 715.76 225.308 737.827C225.437 760.382 225.565 782.935 225.693 805.489C225.827 828.688 225.956 851.887 226.089 875.083C226.226 898.254 226.355 921.426 226.486 944.594C226.617 967.503 226.748 990.413 226.876 1013.32C226.977 1030.95 227.081 1048.58 227.177 1066.2C227.199 1070.04 227.221 1073.87 227.242 1077.7C227.349 1096.11 219.749 1114.16 206.759 1127.15C193.715 1140.2 175.756 1147.64 157.308 1147.64C138.857 1147.63 120.9 1140.2 107.856 1127.15Z" fill="black"/>
<path d="M56.7908 943.701C30.8361 917.735 16.0266 882.005 16.0266 845.286C16.0266 808.567 30.8361 772.837 56.7908 746.871C82.7564 720.906 118.486 706.107 155.206 706.107C191.925 706.107 227.655 720.917 253.62 746.871C279.575 772.837 294.385 808.567 294.385 845.286C294.385 882.005 279.575 917.735 253.62 943.701C227.655 969.656 191.925 984.465 155.206 984.465C118.486 984.465 82.7564 969.656 56.7908 943.701Z" fill="black"/>
<path d="M16.5151 1146.86L153.139 725.131L289.762 1146.86H16.5151Z" fill="black"/>
</g>
</svg>
