<svg width="2048" height="2048" viewBox="0 0 2048 2048" fill="none" xmlns="http://www.w3.org/2000/svg">
<g clip-path="url(#clip0_75_1520)">
<mask id="mask0_75_1520" style="mask-type:luminance" maskUnits="userSpaceOnUse" x="-1" y="183" width="2049" height="1682">
<path d="M-0.127441 183.452H2048V1864.72H-0.127441V183.452Z" fill="white"/>
</mask>
<g mask="url(#mask0_75_1520)">
<path d="M1531.34 1522.66C1512.86 1504.22 1502.43 1478.93 1502.33 1452.84C1502.32 1449.32 1502.3 1445.81 1502.29 1442.29C1502.22 1422.62 1502.15 1402.94 1502.07 1383.27C1502 1363.33 1501.93 1343.38 1501.85 1323.43C1501.77 1302.93 1501.7 1282.43 1501.62 1261.93C1501.55 1241.9 1501.47 1221.87 1501.4 1201.84C1501.32 1182.17 1501.25 1162.5 1501.18 1142.84C1501.11 1123.36 1501.03 1103.89 1500.97 1084.42C1500.89 1065.66 1500.98 1046.89 1500.76 1028.13C1500.44 1002.18 1511.35 976.544 1529.61 958.241C1548.02 939.791 1573.37 929.256 1599.43 929.225C1625.49 929.194 1650.87 939.671 1669.32 958.079C1687.84 976.548 1698.18 1001.79 1698.34 1027.9C1698.36 1032.15 1698.37 1036.39 1698.39 1040.64C1698.46 1060.69 1698.53 1080.74 1698.61 1100.79C1698.68 1120.01 1698.75 1139.23 1698.82 1158.45C1698.9 1178.37 1698.97 1198.29 1699.04 1218.2C1699.12 1238.33 1699.19 1258.46 1699.27 1278.59C1699.34 1299.01 1699.42 1319.43 1699.49 1339.86C1699.57 1359.64 1699.64 1379.41 1699.71 1399.19C1699.78 1416.99 1699.84 1434.8 1699.91 1452.61C1700.01 1478.64 1689.43 1504.09 1671.06 1522.5C1652.65 1540.95 1627.3 1551.48 1601.24 1551.51C1601.2 1551.51 1601.16 1551.51 1601.12 1551.51C1575.1 1551.51 1549.77 1541.04 1531.34 1522.66Z" fill="#0C4470"/>
<path d="M471.859 1551.51C453.544 1551.49 435.588 1546.28 420.14 1536.79C454.798 1492.25 474.147 1436.72 474.147 1379.9C474.147 1312.63 447.01 1247.16 399.451 1199.58C391.509 1191.64 383.066 1184.27 374.202 1177.5C374.225 1171.14 374.248 1164.8 374.271 1158.45C374.308 1148.88 374.343 1139.32 374.379 1129.76C374.394 1129.76 374.41 1129.75 374.425 1129.75V1117.18C374.446 1111.72 374.466 1106.25 374.487 1100.79C374.561 1080.74 374.638 1060.69 374.707 1040.64C374.722 1036.39 374.73 1032.15 374.757 1027.9C374.912 1001.79 385.258 976.549 403.773 958.079C422.22 939.671 447.601 929.194 473.661 929.225C499.725 929.256 525.079 939.791 543.487 958.241C561.744 976.545 572.65 1002.18 572.341 1028.13C572.117 1046.89 572.202 1065.66 572.129 1084.42C572.059 1103.89 571.986 1123.36 571.913 1142.84C571.839 1162.5 571.77 1182.17 571.697 1201.84C571.619 1221.87 571.546 1241.9 571.472 1261.93C571.395 1282.43 571.322 1302.93 571.245 1323.44C571.168 1343.38 571.098 1363.33 571.025 1383.27C570.952 1402.94 570.878 1422.62 570.805 1442.29C570.793 1445.81 570.778 1449.32 570.767 1452.84C570.666 1478.93 560.235 1504.22 541.75 1522.66C523.331 1541.04 497.996 1551.51 471.975 1551.51C471.936 1551.51 471.901 1551.51 471.859 1551.51Z" fill="#0C4470"/>
<path d="M1036.55 1863.86C1011.12 1864.01 985.704 1863.28 960.443 1860.13C945.724 1858.29 931.048 1856.33 916.508 1853.39C915.481 1853.18 914.462 1852.96 913.443 1852.72C896.641 1849.99 879.92 1846.82 863.272 1843.06C834.263 1836.49 805.467 1828.67 777.149 1819.57C748.438 1810.34 720.282 1799.48 692.509 1787.73C668.428 1777.55 644.814 1766.24 621.83 1753.78C595.187 1739.34 569.069 1723.99 544.193 1706.67C520.529 1690.19 497.483 1672.55 476.278 1652.98C474.835 1651.65 473.403 1650.3 471.975 1648.95C471.172 1648.19 470.377 1647.43 469.579 1646.66C466.866 1644.05 464.168 1641.42 461.471 1638.8C460.873 1638.21 460.27 1637.63 459.672 1637.04C459.448 1636.83 459.229 1636.61 459.009 1636.4C459.004 1636.4 459.002 1636.39 459.002 1636.39C458.82 1636.21 458.639 1636.04 458.461 1635.86C457.802 1635.22 457.145 1634.57 456.493 1633.93C447.807 1625.37 439.482 1616.43 431.664 1607.07C421.21 1594.55 411.014 1581.63 402.123 1567.93C400.762 1565.83 399.412 1563.72 398.076 1561.6C398.536 1561.15 398.995 1560.69 399.452 1560.23C447.012 1512.66 474.148 1447.19 474.148 1379.9C474.148 1379.42 474.147 1378.94 474.143 1378.46C481.458 1379.16 488.716 1380.66 495.755 1383C507.818 1386.99 519.091 1393.31 528.765 1401.56C531.852 1404.56 534.936 1407.55 538.023 1410.55C543.981 1417.18 548.964 1424.47 552.961 1432.44C553.232 1433.07 553.502 1433.7 553.772 1434.34C556.435 1440.49 559.422 1446.49 562.655 1452.36C566.935 1459.17 571.523 1465.78 576.363 1472.22C583.452 1480.84 590.954 1489.1 598.776 1497.07C600.466 1498.59 602.103 1500.18 603.689 1501.83C615.841 1513.1 628.591 1523.7 641.77 1533.76C660.749 1547.57 680.515 1560.29 700.84 1572.03C701.551 1572.44 702.257 1572.85 702.97 1573.25C723.844 1584.73 745.231 1595.25 767.031 1604.86C773.144 1607.56 779.291 1610.17 785.466 1612.72C807.266 1621.32 829.382 1629.06 851.784 1635.93C861.068 1638.79 870.411 1641.46 879.793 1643.99C902.685 1649.8 925.804 1654.68 949.105 1658.54C950.695 1658.76 952.281 1659.02 953.859 1659.32C959.058 1660.14 964.267 1660.91 969.485 1661.63C991.744 1664.31 1014.13 1666.03 1036.55 1666.49C1058.96 1666.03 1081.34 1664.32 1103.59 1661.63C1108.81 1660.92 1114.03 1660.14 1119.23 1659.32C1120.81 1659.02 1122.4 1658.76 1123.99 1658.54C1147.29 1654.68 1170.41 1649.8 1193.3 1643.99C1202.68 1641.46 1212.02 1638.79 1221.31 1635.93C1243.71 1629.06 1265.83 1621.32 1287.63 1612.72C1293.8 1610.17 1299.95 1607.56 1306.06 1604.86C1327.86 1595.25 1349.25 1584.73 1370.12 1573.25C1370.83 1572.85 1371.54 1572.44 1372.25 1572.03C1392.58 1560.29 1412.34 1547.57 1431.33 1533.76C1444.5 1523.7 1457.25 1513.1 1469.41 1501.83C1470.99 1500.18 1472.63 1498.59 1474.32 1497.07C1482.14 1489.1 1489.64 1480.84 1496.73 1472.22C1501.57 1465.78 1506.16 1459.17 1510.44 1452.36C1513.69 1446.45 1516.7 1440.4 1519.38 1434.21C1519.63 1433.61 1519.88 1433.02 1520.13 1432.44C1524.13 1424.47 1529.11 1417.18 1535.07 1410.55C1538.16 1407.55 1541.24 1404.56 1544.33 1401.56C1554 1393.31 1565.28 1386.99 1577.34 1383C1602.08 1374.79 1629.46 1376.79 1652.75 1388.48C1676.04 1400.18 1694 1420.95 1702.2 1445.69C1706.19 1457.75 1707.85 1470.57 1707.02 1483.25C1706.45 1491.97 1704.75 1500.45 1701.92 1508.72C1699.41 1514.7 1696.96 1520.78 1694.25 1526.69C1687.67 1541.02 1679.54 1554.73 1670.97 1567.93C1662.08 1581.63 1651.89 1594.55 1641.43 1607.07C1633.61 1616.43 1625.29 1625.37 1616.6 1633.93C1615.95 1634.57 1615.29 1635.22 1614.63 1635.86C1614.45 1636.04 1614.27 1636.21 1614.09 1636.39L1614.09 1636.4C1613.86 1636.61 1613.64 1636.83 1613.42 1637.04C1612.82 1637.63 1612.22 1638.21 1611.62 1638.8C1608.92 1641.42 1606.23 1644.05 1603.52 1646.66C1602.72 1647.43 1601.92 1648.19 1601.12 1648.95C1599.69 1650.3 1598.26 1651.65 1596.82 1652.98C1575.61 1672.55 1552.56 1690.19 1528.9 1706.67C1504.02 1723.99 1477.91 1739.34 1451.26 1753.78C1428.28 1766.24 1404.67 1777.55 1380.58 1787.73C1352.81 1799.48 1324.66 1810.34 1295.94 1819.57C1267.63 1828.67 1238.83 1836.49 1209.82 1843.06C1193.17 1846.82 1176.45 1849.99 1159.65 1852.72C1158.63 1852.96 1157.61 1853.18 1156.59 1853.39C1142.05 1856.33 1127.37 1858.29 1112.65 1860.13C1089.37 1863.03 1065.96 1863.88 1042.54 1863.88C1040.54 1863.88 1038.55 1863.87 1036.55 1863.86Z" fill="#0C4470"/>
<path d="M1696.2 1522.3C1698.13 1517.79 1700.01 1513.25 1701.91 1508.73C1700.17 1512.86 1698.44 1516.99 1696.7 1521.12L1696.71 1521.1C1636.11 1495.68 1575.52 1470.25 1514.92 1444.82C1514.91 1444.85 1514.9 1444.87 1514.9 1444.89C1516.63 1440.76 1518.37 1436.64 1520.11 1432.51C1516.35 1441.44 1511.9 1450.07 1506.98 1458.42C1509.26 1454.56 1511.53 1450.7 1513.8 1446.85C1507.43 1457.58 1500.28 1467.83 1492.55 1477.64C1495.26 1474.2 1497.97 1470.77 1500.67 1467.33C1490.5 1480.19 1479.39 1492.26 1467.66 1503.7C1470.74 1500.7 1473.83 1497.7 1476.91 1494.71C1473.65 1497.88 1470.39 1501.05 1467.12 1504.22C1470.21 1501.22 1473.29 1498.22 1476.38 1495.23C1460.65 1510.44 1443.82 1524.47 1426.29 1537.56C1429.7 1535.02 1433.11 1532.48 1436.52 1529.94C1415.96 1545.23 1394.44 1559.22 1372.25 1572.03C1369.75 1573.48 1367.23 1574.91 1364.71 1576.33C1368.39 1574.26 1372.08 1572.19 1375.76 1570.12C1353.11 1582.83 1329.83 1594.38 1306.06 1604.86C1298.11 1608.37 1290.09 1611.74 1282.04 1615.01C1285.95 1613.43 1289.85 1611.85 1293.76 1610.28C1269.98 1619.86 1245.82 1628.42 1221.31 1635.94C1209.97 1639.42 1198.55 1642.64 1187.07 1645.65C1191.15 1644.59 1195.22 1643.52 1199.3 1642.45C1173.92 1649.07 1148.25 1654.57 1122.36 1658.81C1113.89 1660.2 1105.4 1661.43 1096.88 1662.53C1101.08 1661.99 1105.27 1661.45 1109.46 1660.91C1084.41 1664.11 1059.2 1666.13 1033.95 1666.54C1030.47 1666.6 1026.98 1666.63 1023.49 1666.63C1027.75 1666.63 1032 1666.63 1036.26 1666.63C1014.08 1666.61 991.897 1665.36 969.906 1662.47C974.171 1663.03 978.436 1663.6 982.701 1664.16C973.439 1662.93 964.222 1661.41 955.066 1659.55C930.016 1654.48 903.339 1659.74 881.93 1673.63C859.76 1688.02 844.039 1711.28 838.869 1737.19C833.864 1762.29 839.024 1788.88 852.948 1810.33C867.365 1832.55 890.577 1848.14 916.509 1853.39C931.048 1856.33 945.725 1858.29 960.443 1860.13C988.157 1863.59 1016.06 1864.13 1043.96 1863.79C1069.23 1863.49 1094.47 1861.57 1119.54 1858.44C1149.89 1854.65 1179.98 1849.81 1209.82 1843.06C1238.83 1836.5 1267.63 1828.68 1295.94 1819.57C1324.66 1810.34 1352.81 1799.48 1380.59 1787.74C1404.67 1777.56 1428.28 1766.24 1451.26 1753.79C1477.91 1739.35 1504.03 1723.99 1528.9 1706.67C1552.57 1690.19 1575.61 1672.55 1596.82 1652.98C1598.26 1651.65 1599.69 1650.31 1601.12 1648.96C1601.92 1648.2 1602.72 1647.43 1603.51 1646.67C1607.05 1643.26 1610.56 1639.82 1614.09 1636.4C1616.79 1632.96 1619.5 1629.52 1622.2 1626.09C1627.29 1618.64 1631.3 1610.65 1634.23 1602.13C1639.81 1585.85 1641.01 1568.21 1637.72 1551.32C1632.79 1526.05 1617.9 1503.27 1596.65 1488.71C1574.93 1473.84 1547.72 1468.16 1521.88 1473.2C1496.61 1478.13 1473.83 1493.01 1459.27 1514.27C1441.93 1539.59 1437.31 1572.14 1446.96 1601.26C1455.16 1626 1473.11 1646.77 1496.41 1658.47C1519.7 1670.16 1547.08 1672.15 1571.82 1663.95C1575.73 1662.38 1579.63 1660.8 1583.54 1659.22C1591.23 1655.53 1598.33 1650.92 1604.83 1645.39C1608.1 1642.22 1611.37 1639.05 1614.63 1635.86C1615.29 1635.22 1615.95 1634.58 1616.6 1633.93C1625.29 1625.37 1633.61 1616.43 1641.43 1607.07C1651.89 1594.55 1662.08 1581.63 1670.97 1567.93C1679.54 1554.73 1687.67 1541.02 1694.25 1526.7C1696.96 1520.78 1699.4 1514.7 1701.92 1508.72C1704.75 1500.46 1706.45 1491.97 1707.02 1483.26C1707.85 1470.57 1706.19 1457.76 1702.2 1445.69C1694 1420.96 1676.04 1400.18 1652.75 1388.49C1629.46 1376.79 1602.08 1374.8 1577.34 1383C1565.28 1386.99 1554.01 1393.32 1544.33 1401.56C1541.24 1404.56 1538.16 1407.56 1535.07 1410.55C1529.11 1417.18 1524.13 1424.47 1520.13 1432.44C1518.36 1436.57 1516.59 1440.85 1514.83 1445.05C1516.56 1440.93 1518.3 1436.8 1520.04 1432.67C1519.9 1432.99 1519.76 1433.32 1519.63 1433.64C1517.89 1437.77 1516.15 1441.9 1514.42 1446.02C1511.59 1454.29 1509.88 1462.77 1509.31 1471.49C1508.48 1484.17 1510.14 1496.99 1514.14 1509.05C1522.34 1533.79 1540.29 1554.56 1563.58 1566.26C1586.87 1577.95 1614.26 1579.94 1638.99 1571.75C1651.06 1567.75 1662.33 1561.42 1672 1553.18C1675.09 1550.19 1678.17 1547.19 1681.26 1544.19C1687.22 1537.57 1692.2 1530.27 1696.2 1522.3Z" fill="#0C4470"/>
<path d="M1403.38 630.456C1395.13 622.197 1390.24 610.995 1389.77 599.364C1389.63 598.445 1389.49 597.523 1389.39 596.601C1389.23 595.099 1389.11 593.598 1389.02 592.093C1387.86 588.408 1386.8 584.699 1385.7 580.987C1385.33 580.095 1384.95 579.211 1384.55 578.335C1384.38 578.054 1384.21 577.772 1384.04 577.494C1381.51 574.091 1378.82 570.818 1376.4 567.341C1373.29 562.872 1370.17 558.419 1367.85 555.023C1366.18 552.638 1364.47 550.342 1362.56 548.146C1360.44 545.715 1358.71 542.944 1356.98 540.193C1356.71 539.834 1356.44 539.482 1356.16 539.127C1355.36 538.236 1354.56 537.341 1353.76 536.442C1352.3 534.84 1350.74 533.347 1349.15 531.876C1348.08 530.962 1346.99 530.051 1345.89 529.179C1343.01 527.358 1340.16 525.489 1337.47 523.367C1336.57 522.653 1335.65 521.951 1334.73 521.264C1331.87 519.523 1328.94 517.91 1326.08 516.159C1322.28 513.828 1318.68 511.277 1314.75 509.154C1312.46 507.997 1310.18 506.831 1307.9 505.658C1304.62 504.238 1301.27 503.026 1297.96 501.675C1295.01 500.475 1292.14 499.098 1289.22 497.832C1288.86 497.727 1288.5 497.623 1288.13 497.523C1283.38 496.199 1278.74 494.521 1274.2 492.591C1271.93 491.63 1269.65 490.739 1267.34 489.89C1258.6 486.953 1249.87 483.982 1241.19 480.871C1235.28 478.915 1229.34 477.109 1223.62 474.658C1218.69 472.547 1213.8 470.405 1211.01 469.267C1206.06 467.542 1201.15 465.767 1196.33 463.687C1192.18 461.892 1188.04 460.144 1183.83 458.504C1179.65 456.868 1175.6 454.907 1171.53 453.024C1167.5 451.164 1163.37 449.559 1159.33 447.734C1153.01 444.878 1146.87 441.602 1140.74 438.364C1136.22 435.983 1131.61 433.791 1127.13 431.352C1117.53 426.142 1108.33 419.859 1099.48 413.446C1095.17 410.718 1090.79 408.124 1086.61 405.16C1082.99 402.594 1079.54 399.777 1078.14 398.824C1074 396.022 1069.94 393.197 1066.08 390.01C1061.63 386.347 1057.17 382.728 1052.94 378.822C1047.84 374.103 1042.82 369.275 1037.71 364.563C1037.32 364.235 1036.93 363.907 1036.55 363.579C1036.17 363.903 1035.79 364.227 1035.41 364.551C1030.29 369.267 1025.27 374.099 1020.15 378.822C1015.92 382.728 1011.46 386.347 1007.02 390.01C1003.26 393.108 999.323 395.864 997.223 397.292C993.55 399.777 990.111 402.594 986.488 405.16C982.308 408.124 977.928 410.718 973.614 413.446C964.773 419.859 955.561 426.142 945.972 431.352C941.483 433.791 936.876 435.983 932.36 438.364C926.221 441.602 920.089 444.878 913.767 447.734C909.727 449.559 905.594 451.164 901.573 453.024C897.498 454.907 893.45 456.868 889.266 458.504C885.056 460.144 880.915 461.892 876.767 463.687C871.943 465.767 867.034 467.542 864.302 468.499C859.293 470.405 854.408 472.547 849.479 474.658C843.76 477.109 837.814 478.915 831.913 480.871C823.226 483.982 814.497 486.953 805.756 489.89C803.453 490.739 801.168 491.63 798.899 492.591C794.361 494.521 789.718 496.199 784.964 497.523C784.601 497.623 784.242 497.727 783.883 497.832C780.958 499.098 778.087 500.475 775.143 501.675C771.828 503.026 768.482 504.238 765.198 505.658C762.917 506.831 760.632 507.997 758.344 509.154C754.423 511.277 750.811 513.828 747.014 516.159C744.154 517.91 741.229 519.523 738.369 521.264C737.447 521.951 736.533 522.653 735.63 523.367C732.936 525.489 730.088 527.358 727.205 529.179C726.105 530.051 725.017 530.962 723.944 531.876C722.355 533.347 720.799 534.84 719.337 536.442C718.542 537.341 717.739 538.236 716.933 539.127C716.658 539.482 716.389 539.834 716.118 540.193C714.386 542.944 712.657 545.715 710.538 548.146C708.624 550.342 706.918 552.638 705.992 553.919C702.928 558.419 699.81 562.872 696.7 567.341C694.276 570.818 691.586 574.091 689.063 577.494C688.889 577.772 688.719 578.054 688.549 578.335C688.152 579.211 687.762 580.095 687.395 580.987C686.299 584.699 685.238 588.408 684.076 592.093C683.984 593.598 683.872 595.099 683.71 596.601C683.606 597.523 683.471 598.445 683.332 599.364C682.857 610.995 677.968 622.197 669.717 630.456C661.019 639.147 649.048 644.109 636.757 644.109C618.214 644.109 601.003 632.706 593.778 615.622C590.178 607.105 589.348 597.573 590.699 588.466C590.869 587.312 591.038 586.158 591.189 585.004C591.262 582.445 591.374 579.883 591.868 577.386C592.409 574.646 592.81 571.818 593.628 569.132C594.068 567.673 594.562 566.23 595.071 564.798C596.206 561.128 597.128 557.392 598.236 553.718C599.447 549.705 600.949 545.742 602.739 541.941C604.491 538.205 606.135 534.4 608.296 530.869C611.692 525.304 615.501 520.006 619.569 514.916C622.27 511.543 624.724 507.919 627.202 504.365C629.154 501.417 631.107 498.465 633.179 495.597C634.619 493.61 636.232 491.785 637.714 489.844C639.339 487.351 640.994 484.873 642.827 482.527C645.007 479.741 647.423 477.155 649.812 474.546C651.61 472.42 653.42 470.286 655.435 468.372C658.236 465.709 661.115 463.123 664.048 460.599C665.623 459.241 667.255 457.956 668.876 456.652C669.64 456.042 670.361 455.367 671.098 454.722C673.167 452.904 675.494 451.589 677.813 450.234C678.577 449.64 679.33 449.03 680.09 448.432C682.803 446.29 685.751 444.368 688.619 442.473C691.528 440.54 694.554 438.835 697.572 437.078C700.338 435.469 703.009 433.733 705.664 431.95C709.28 429.523 713.212 427.62 717.121 425.714C718.982 424.753 720.834 423.777 722.694 422.819C727.564 420.319 732.388 418.239 737.493 416.328C740.53 415.186 743.452 413.751 746.4 412.404C750.993 410.309 755.812 408.985 760.609 407.545C763.064 406.561 765.487 405.496 767.941 404.524C772.345 402.783 776.887 401.359 781.379 399.854C785.435 398.496 789.483 397.114 793.527 395.725C798.911 393.803 804.29 391.901 809.727 390.141C812.969 388.852 816.141 387.42 819.367 386.066C824.484 383.912 829.679 382.033 832.021 381.211C836.262 379.61 840.395 377.819 844.536 375.982C848.812 374.076 853.246 372.49 857.568 370.688C861.871 368.893 866.019 366.736 870.311 364.907C873.842 363.405 877.346 361.881 880.811 360.245C886.604 357.281 892.438 354.375 898.154 351.269C903.549 348.34 908.743 345.029 913.868 341.637C917.858 338.808 921.856 336.006 925.943 333.305C927.915 331.997 929.968 330.808 931.994 329.573C933.348 328.577 934.687 327.57 936.03 326.555C938.581 324.622 941.225 322.816 943.88 321.029C947.862 318.235 951.621 315.055 955.333 311.887C958.826 308.692 962.353 305.523 965.753 302.232C970.017 298.11 974.467 294.213 978.947 290.342C980.483 288.906 981.988 287.448 983.458 285.95C984.241 284.943 984.994 283.916 985.723 282.859C986.333 281.971 986.978 281.111 987.63 280.254C987.881 279.783 988.143 279.316 988.421 278.857C989.328 277.337 990.192 276.048 991.076 274.856C993.194 271.054 995.661 267.558 998.84 264.378C1003.08 260.137 1008.14 256.726 1013.66 254.387C1020.88 251.335 1028.81 250.2 1036.55 250.98C1044.29 250.2 1052.22 251.335 1059.44 254.387C1064.96 256.726 1070.02 260.137 1074.25 264.378C1077.44 267.558 1079.9 271.054 1082.02 274.856C1082.9 276.048 1083.77 277.337 1084.68 278.857C1084.95 279.316 1085.21 279.783 1085.47 280.254C1086.12 281.111 1086.76 281.971 1087.37 282.859C1088.1 283.916 1088.86 284.943 1089.64 285.95C1091.11 287.448 1092.62 288.906 1094.15 290.342C1098.63 294.213 1103.08 298.11 1107.35 302.232C1110.75 305.523 1114.27 308.692 1117.77 311.887C1121.48 315.055 1125.24 318.235 1129.22 321.029C1131.87 322.816 1134.52 324.622 1137.07 326.555C1138.41 327.57 1139.75 328.577 1141.1 329.573C1143.13 330.808 1145.18 331.997 1147.16 333.305C1151.24 336.006 1155.24 338.808 1159.23 341.637C1164.36 345.029 1169.55 348.34 1174.94 351.269C1180.67 354.379 1186.51 357.289 1192.31 360.256C1195.77 361.893 1199.26 363.409 1202.79 364.907C1207.08 366.736 1211.23 368.893 1215.53 370.688C1219.85 372.49 1224.28 374.076 1228.56 375.982C1232.7 377.819 1236.84 379.61 1238.18 380.204C1243.42 382.033 1248.61 383.912 1253.73 386.066C1256.96 387.42 1260.13 388.852 1263.37 390.141C1268.8 391.901 1274.19 393.803 1279.57 395.725C1283.62 397.114 1287.66 398.496 1291.72 399.854C1296.21 401.359 1300.75 402.783 1305.16 404.524C1307.61 405.496 1310.03 406.561 1312.49 407.545C1317.29 408.985 1322.11 410.309 1326.7 412.404C1329.65 413.751 1332.57 415.186 1335.6 416.328C1340.71 418.239 1345.53 420.319 1350.4 422.819C1352.26 423.773 1354.11 424.745 1355.95 425.706C1359.87 427.613 1363.81 429.519 1367.43 431.95C1370.09 433.733 1372.76 435.469 1375.53 437.078C1378.54 438.835 1381.57 440.54 1384.48 442.473C1387.35 444.368 1390.3 446.29 1393.01 448.432C1393.77 449.03 1394.52 449.64 1395.28 450.234C1397.6 451.589 1399.93 452.904 1402 454.722C1402.74 455.367 1403.46 456.042 1404.22 456.652C1405.84 457.956 1407.48 459.241 1409.05 460.599C1411.98 463.123 1414.86 465.709 1417.66 468.372C1419.68 470.286 1421.48 472.42 1423.29 474.546C1425.68 477.155 1428.09 479.741 1430.27 482.527C1432.1 484.865 1433.75 487.339 1435.38 489.828C1436.85 491.777 1438.48 493.606 1439.92 495.597C1441.99 498.465 1443.94 501.417 1445.9 504.365C1448.37 507.919 1450.83 511.543 1453.53 514.916C1457.6 520.006 1461.41 525.304 1464.8 530.869C1466.96 534.4 1468.6 538.205 1470.36 541.941C1472.15 545.742 1473.65 549.705 1474.86 553.718C1475.97 557.392 1476.89 561.128 1478.03 564.798C1478.54 566.23 1479.03 567.673 1479.47 569.132C1480.29 571.818 1480.69 574.646 1481.23 577.386C1481.72 579.883 1481.84 582.445 1481.91 585.004C1482.06 586.158 1482.23 587.312 1482.4 588.466C1483.75 597.573 1482.92 607.105 1479.32 615.622C1472.09 632.706 1454.88 644.109 1436.34 644.109C1424.05 644.109 1412.08 639.147 1403.38 630.456Z" fill="#0C4470"/>
<path d="M1390.12 595.461C1390.1 595.394 1390.08 595.326 1390.05 595.258C1389.98 595.851 1389.9 596.443 1389.82 597.036C1389.94 598.807 1390.05 600.58 1390.17 602.35C1389.97 600.428 1389.6 598.526 1389.39 596.6C1389.23 595.099 1389.11 593.595 1389.02 592.091C1387.86 588.401 1386.8 584.691 1385.7 580.971C1385.33 580.086 1384.95 579.208 1384.55 578.336C1384.38 578.058 1384.21 577.781 1384.04 577.505C1381.52 574.099 1378.82 570.823 1376.4 567.341C1373.22 562.774 1370.03 558.216 1366.9 553.617C1367.22 554.085 1367.53 554.554 1367.85 555.022C1366.18 552.638 1364.47 550.345 1362.56 548.149C1360.44 545.714 1358.71 542.941 1356.98 540.192C1356.7 539.827 1356.43 539.465 1356.15 539.107C1355.38 538.255 1354.61 537.397 1353.85 536.537C1352.35 534.888 1350.75 533.354 1349.12 531.847C1348.05 530.935 1346.97 530.032 1345.88 529.164C1343 527.347 1340.16 525.48 1337.47 523.363C1336.57 522.65 1335.65 521.952 1334.73 521.266C1331.87 519.526 1328.94 517.912 1326.08 516.158C1322.3 513.837 1318.7 511.295 1314.79 509.177C1312.49 508.013 1310.2 506.839 1307.9 505.661C1304.62 504.242 1301.27 503.027 1297.96 501.675C1295.27 500.579 1292.65 499.338 1289.99 498.171C1281.9 495.717 1274.1 492.522 1266.21 489.509C1257.84 486.693 1249.49 483.841 1241.17 480.869C1235.28 478.913 1229.33 477.105 1223.62 474.658C1218.69 472.55 1213.8 470.405 1208.79 468.499C1210.71 469.162 1212.63 469.83 1214.55 470.498C1174.5 455.502 1134.29 438.574 1099.45 413.425C1095.15 410.706 1090.78 408.116 1086.61 405.16C1083.75 403.139 1081.01 400.959 1078.18 398.91C1063.59 389.162 1050.94 376.964 1038.15 365.01C1025.97 354.956 1014.84 343.397 1006.62 329.913C986.604 305.304 992.09 267.86 1023.15 254.386C1045.02 244.633 1071.99 254.975 1082.73 275.84C1083.37 276.757 1084.01 277.744 1084.68 278.857C1084.95 279.317 1085.22 279.784 1085.47 280.256C1086.12 281.111 1086.76 281.971 1087.38 282.855C1088.11 283.92 1088.87 284.953 1089.65 285.965C1091.13 287.469 1092.65 288.937 1094.19 290.38C1098.66 294.238 1103.09 298.121 1107.34 302.231C1110.75 305.523 1114.27 308.693 1117.77 311.894C1121.48 315.057 1125.23 318.229 1129.21 321.022C1131.87 322.81 1134.51 324.62 1137.07 326.555C1138.41 327.572 1139.76 328.583 1141.11 329.579C1143.14 330.811 1145.19 331.997 1147.16 333.3C1151.23 335.999 1155.22 338.794 1159.2 341.616C1164.34 345.014 1169.54 348.333 1174.94 351.268C1180.45 354.259 1186.07 357.069 1191.65 359.921C1207.93 367.478 1224.45 374.454 1241.07 381.211C1239.16 380.543 1237.24 379.875 1235.32 379.212C1241.53 381.361 1247.68 383.518 1253.73 386.065C1256.95 387.418 1260.11 388.847 1263.35 390.132C1268.54 391.811 1273.69 393.625 1278.83 395.462C1290.41 399.399 1302.04 403.178 1313.37 407.794C1327.5 412.185 1341.11 418.212 1354.34 424.881C1361.81 428.238 1368.6 432.745 1375.52 437.078C1382.71 441.031 1389.46 445.677 1395.95 450.673C1406.02 457.088 1415.08 465.279 1422.99 474.23C1425.48 476.945 1428.01 479.624 1430.27 482.526C1432.1 484.867 1433.75 487.341 1435.38 489.831C1436.86 491.781 1438.48 493.609 1439.92 495.597C1441.86 498.276 1443.69 501.03 1445.52 503.787C1462.83 527.346 1470.94 536.648 1478.51 566.091C1480.32 571.65 1481.47 577.395 1481.86 583.224C1488.52 613.572 1468.81 643.895 1436.34 644.105C1404.59 642.976 1389.18 618.877 1390.12 595.461ZM1391.12 587.355C1391.32 586.354 1391.56 585.358 1391.83 584.373C1391.69 584.606 1391.56 584.839 1391.42 585.073C1391.32 585.833 1391.22 586.594 1391.12 587.355ZM1423.96 552.541C1423.96 552.541 1423.96 552.541 1423.96 552.541C1423.86 552.603 1423.75 552.664 1423.65 552.725C1424.04 552.62 1424.43 552.521 1424.83 552.424C1424.54 552.463 1424.25 552.502 1423.96 552.541Z" fill="#0C4470"/>
<path d="M1934.38 877.977C1925.4 876.846 1916.71 873.979 1908.49 870.243C1903.58 868.009 1898.61 865.972 1893.64 863.899C1888.15 861.611 1882.93 858.829 1877.68 856.089C1873.73 854.267 1869.69 852.681 1865.8 850.771C1859.45 847.656 1853.25 844.411 1847.25 840.683C1842.86 837.963 1838.63 835.014 1834.3 832.213C1829.52 829.122 1824.72 826.077 1821.53 823.958C1820.97 823.58 1820.41 823.202 1819.84 822.82C1818.93 822.214 1818.02 821.6 1817.12 820.983C1816.9 820.832 1816.68 820.686 1816.46 820.535C1811.88 817.583 1807.06 815.04 1802.53 812.015C1798.67 809.436 1794.59 806.886 1791.02 803.887C1787.89 801.259 1784.88 798.527 1781.89 795.76C1781.45 795.397 1781.01 795.038 1780.57 794.683C1772.16 787.938 1764.18 780.683 1755.72 774.014C1746.81 766.991 1738.53 759.203 1730.09 751.62C1725.58 747.838 1721.14 743.975 1716.54 740.302C1711.26 736.08 1706.22 731.607 1701.21 727.092C1698.4 724.807 1695.52 722.646 1692.56 720.574C1689.35 718.421 1686.17 716.233 1682.99 714.041C1677.6 710.54 1672.11 707.191 1666.59 703.914C1661.2 700.711 1655.83 697.474 1650.3 694.518C1642.05 690.693 1633.64 687.27 1625.25 683.759C1616.37 680.042 1607.48 676.372 1598.44 673.061C1593.34 671.309 1588.25 669.557 1583.18 667.744C1578.93 666.231 1574.77 664.494 1570.56 662.889C1562.45 660.164 1554.28 657.579 1546.02 655.321C1538.19 653.179 1530.24 651.462 1522.29 649.764C1513.54 648.255 1504.77 647.248 1495.93 646.399C1486.56 645.5 1477.22 644.331 1467.84 643.571C1466.04 643.451 1464.24 643.327 1462.43 643.204C1455.14 642.741 1447.85 642.316 1440.57 641.768C1440.41 641.766 1440.25 641.761 1440.08 641.761C1427.71 641.533 1415.94 636.918 1407.12 628.108C1398.43 619.41 1393.47 607.443 1393.47 595.144C1393.47 582.849 1398.43 570.878 1407.12 562.184C1415.7 553.605 1427.88 548.31 1440.08 548.53C1444.36 548.608 1448.59 549.074 1452.84 549.449C1458.72 549.789 1464.6 550.128 1470.48 550.518C1475.18 550.796 1479.89 550.985 1484.56 551.521C1495.78 552.806 1507.02 553.802 1518.25 554.971C1530.78 556.279 1543.04 559.023 1555.34 561.709C1566.14 564.063 1576.74 566.957 1587.26 570.365C1594.67 572.762 1602.05 575.185 1609.34 577.917C1613.9 579.627 1618.42 581.436 1623 583.1C1632.82 586.5 1642.54 590.069 1652.17 593.994C1661.05 597.621 1669.94 601.26 1678.74 605.096C1685.71 608.137 1692.55 611.406 1699.26 615.003C1704.02 617.561 1708.64 620.44 1713.29 623.203C1717.71 625.831 1722.12 628.509 1726.48 631.253C1731.68 634.537 1736.72 638.045 1741.79 641.526C1746.5 644.625 1751.25 647.739 1755.66 651.243C1759.85 654.581 1763.79 658.193 1767.75 661.797C1773.77 666.899 1779.91 671.85 1785.97 676.906C1793.41 683.126 1800.54 689.737 1807.75 696.236C1810.76 698.736 1813.88 701.114 1816.91 703.595C1820.25 706.331 1823.51 709.148 1826.79 711.957C1830.2 714.879 1833.64 717.757 1837.15 720.571C1840.9 723.581 1844.45 726.819 1847.99 730.057C1849.21 731.029 1850.45 731.963 1851.7 732.873C1853.83 734.197 1856.01 735.432 1858.17 736.721C1862.72 739.434 1867.08 742.398 1869.77 744.266C1870.98 745.084 1872.19 745.905 1873.4 746.724C1878.8 750.205 1884.21 753.643 1889.58 757.178C1893.99 760.084 1898.52 762.816 1903.16 765.34C1906.29 766.76 1909.47 768.053 1912.58 769.512C1916.86 771.514 1921.01 773.737 1925.19 775.914C1929.36 777.805 1933.62 779.487 1937.85 781.243C1940.74 782.439 1943.56 783.786 1946.42 785.048C1948.63 784.724 1950.86 784.558 1953.1 784.558C1965.4 784.558 1977.37 789.517 1986.06 798.211C1986.27 798.416 1986.47 798.62 1986.67 798.829C2001.35 813.424 2004.1 837.612 1993.7 855.372C1987.72 865.587 1977.4 874.115 1965.77 876.882C1960.76 878.074 1956.98 878.491 1951.82 878.691C1950.6 878.737 1949.37 878.73 1948.15 878.737C1947.94 878.737 1947.72 878.742 1947.51 878.742C1943.13 878.742 1938.74 878.521 1934.38 877.977Z" fill="#0C4470"/>
<path d="M124.948 878.738C90.5683 880.29 73.7039 856.036 73.6848 831.778C73.6655 806.755 91.5714 781.729 126.673 785.044C141.373 779.047 155.458 771.831 169.933 765.34C185.497 756.723 199.834 746.091 214.926 736.721C233.214 725.364 248.045 709.075 265.345 696.236C311.017 653.597 361.597 615.312 420.93 593.994C452.744 581.958 484.458 569.045 517.762 561.709C540.974 555.832 564.792 553.96 588.537 551.521C603.34 550.31 618.194 549.569 633.012 548.531C658 547.897 680.12 570.211 679.626 595.144C680.066 620.293 658.077 642.051 633.012 641.762C614.358 642.838 595.738 644.258 577.172 646.4C531.983 649.808 489.502 667.069 447.847 683.76C408.23 698.366 374.328 723.855 343.012 751.621C323.435 769.913 302.037 786.036 282.077 803.888C263.979 817.059 244.336 828.015 225.851 840.684C211.063 849.711 194.99 856.286 179.461 863.896C163.118 871.052 146.505 878.832 128.388 878.833C127.247 878.833 126.102 878.802 124.948 878.738Z" fill="#0C4470"/>
<path d="M311.838 974.107C302.611 966.065 293.091 958.505 283.134 951.397C276.088 946.662 269.045 941.919 262.253 936.809C256.576 932.541 250.969 928.223 245.181 924.125C241.071 921.674 236.891 919.339 232.743 916.955C227.166 913.756 221.876 910.089 216.585 906.431C213.12 904.169 209.612 902.028 205.992 900.002C195.376 894.962 184.543 890.393 173.502 886.36C168.817 884.836 164.11 883.427 159.351 882.127C155.033 880.946 150.711 879.672 146.362 878.557C144.239 878.283 142.109 878.059 139.998 877.689C137.999 877.341 136 876.983 133.986 876.709C132.531 876.697 131.08 876.712 129.625 876.712C127.815 876.712 125.978 876.631 124.161 876.685C123.188 876.739 122.212 876.793 121.236 876.824C109.114 877.249 96.7457 871.641 88.2751 863.171C79.5769 854.48 74.6218 842.51 74.6218 830.211C74.6218 817.916 79.5769 805.945 88.2751 797.25C92.5124 793.009 97.5677 789.598 103.09 787.259C108.948 784.782 114.918 783.817 117.473 783.887C122.385 783.574 127.19 783.478 132.118 783.481C136.436 783.489 140.743 783.64 145.046 784.13C148.781 784.558 152.455 785.38 156.183 785.855C166.722 787.194 176.964 790.185 187.171 793.063C197.876 796.081 208.245 799.944 218.627 803.896C227.082 807.114 235.367 810.703 243.498 814.667C249.487 817.588 255.288 820.633 260.949 824.117C265.217 826.745 269.331 829.651 273.44 832.526C278.172 835.502 282.98 838.28 287.866 841.008C288.062 841.12 288.263 841.232 288.464 841.348C287.198 842.29 285.947 843.247 284.701 844.215C283.084 845.408 281.649 846.693 280.541 848.418C280.456 848.557 280.371 848.696 280.286 848.835C278.036 850.39 275.767 851.91 273.475 853.415C267.702 857.213 261.937 860.983 256.318 865.004C253.585 866.957 251.641 869.716 251.023 873.054C250.927 873.575 250.865 874.1 250.838 874.628C248.654 876.222 246.462 877.808 244.274 879.394C241.248 881.579 239.438 884.89 238.991 888.382C238.697 888.66 238.404 888.942 238.115 889.223C235.159 892.106 233.441 895.876 233.804 900.063C234.094 903.421 235.714 906.605 238.265 908.804C240.685 910.892 243.737 911.907 246.775 911.907C248.812 911.907 250.846 911.448 252.679 910.549V910.556C252.752 910.518 252.826 910.475 252.899 910.437C253.088 910.34 253.273 910.24 253.458 910.132C254.782 909.406 256.105 908.685 257.364 907.843C258.375 907.172 259.382 906.5 260.393 905.825C261.987 904.764 263.546 903.637 265.117 902.541C268.242 900.361 271.349 898.142 274.394 895.846C278.89 892.453 283.304 888.984 287.623 885.361C289.969 883.392 292.307 881.401 294.596 879.356C296.815 880.977 299.616 881.675 302.387 881.301C302.831 884.708 304.271 887.923 306.64 890.667C307.138 891.242 307.666 891.767 308.218 892.249C308.921 895.297 310.491 898.134 312.749 900.326C314.159 901.697 315.725 902.693 317.418 903.425V978.761C315.526 977.252 313.665 975.701 311.838 974.107Z" fill="#0C4470"/>
<path d="M1531.79 1079.18C1531.98 1077.31 1531.77 1075.47 1531.24 1073.74C1531.28 1073.47 1531.31 1073.19 1531.34 1072.91C1531.55 1070.75 1531.82 1068.58 1531.97 1066.4C1532.28 1061.91 1532.82 1057.03 1530.95 1052.84C1530.99 1052.67 1531.04 1052.5 1531.08 1052.33C1533.45 1044.82 1536.41 1037.52 1539.44 1030.26C1541.58 1025.13 1543.71 1020 1545.94 1014.92C1546.01 1014.84 1546.07 1014.76 1546.13 1014.68C1546.52 1014.16 1546.9 1013.62 1547.28 1013.08C1548.18 1013.44 1549.13 1013.72 1550.11 1013.92C1553.69 1014.64 1557.46 1014.16 1560.75 1012.58C1564.26 1010.9 1566.61 1008.23 1568.56 1004.93C1571.4 1000.1 1572.37 994.356 1573.75 988.961C1574.38 986.484 1574.95 984.018 1575.48 981.517C1576.31 977.562 1577.15 973.629 1577.78 969.635C1592.2 964.182 1606.41 958.07 1620.35 951.521C1626.24 948.337 1632.02 944.953 1637.9 941.754C1644.42 938.215 1650.88 934.595 1657.3 930.883C1662.34 927.977 1667.34 924.99 1672.3 921.945C1682.26 919.784 1692.23 917.615 1702.13 915.176C1710.91 913.015 1719.69 910.866 1728.43 908.558C1733.12 907.47 1737.84 906.52 1742.62 905.914C1744.07 905.729 1745.52 905.598 1746.98 905.429C1748.69 905.231 1750.27 904.938 1751.96 904.606C1755.12 903.9 1757.95 902.65 1760.35 900.327C1762.61 898.135 1764.17 895.298 1764.87 892.25C1765.42 891.767 1765.95 891.242 1766.45 890.667C1768.82 887.924 1770.26 884.709 1770.7 881.302C1773.47 881.68 1776.28 880.977 1778.49 879.357C1780.78 881.402 1783.12 883.393 1785.47 885.361C1789.79 888.985 1794.2 892.454 1798.7 895.846C1801.74 898.142 1804.85 900.361 1807.97 902.542C1809.54 903.638 1811.1 904.765 1812.7 905.826C1813.71 906.501 1814.72 907.173 1815.73 907.844C1816.98 908.685 1818.31 909.407 1819.64 910.133C1819.82 910.24 1820 910.341 1820.19 910.437C1820.26 910.48 1820.34 910.518 1820.41 910.557C1820.41 910.557 1820.41 910.553 1820.42 910.549C1822.25 911.448 1824.28 911.908 1826.32 911.908C1829.36 911.908 1832.41 910.893 1834.83 908.805C1837.38 906.605 1839 903.421 1839.29 900.064C1839.65 895.877 1837.93 892.107 1834.98 889.224C1834.69 888.942 1834.4 888.664 1834.1 888.387C1833.66 884.894 1831.85 881.583 1828.82 879.395C1826.63 877.809 1824.44 876.219 1822.25 874.625C1822.23 874.1 1822.16 873.576 1822.07 873.055C1821.45 869.716 1819.51 866.957 1816.77 865.005C1811.15 860.984 1805.39 857.213 1799.62 853.416C1797.33 851.911 1795.06 850.39 1792.8 848.835C1792.72 848.696 1792.64 848.557 1792.55 848.418C1791.45 846.693 1790.01 845.408 1788.39 844.216C1787.15 843.247 1785.89 842.29 1784.63 841.349C1784.83 841.233 1785.03 841.121 1785.23 841.009C1790.12 838.281 1794.93 835.502 1799.66 832.527C1803.77 829.652 1807.89 826.746 1812.15 824.118C1817.81 820.633 1823.61 817.588 1829.6 814.667C1837.73 810.704 1846.02 807.115 1854.47 803.897C1864.85 799.945 1875.22 796.082 1885.93 793.064C1896.13 790.185 1906.38 787.195 1916.92 785.856C1920.64 785.381 1924.32 784.559 1928.05 784.131C1932.36 783.64 1936.66 783.49 1940.98 783.482C1945.91 783.478 1950.71 783.575 1951.86 783.598C1958.18 783.818 1964.15 784.783 1970.01 787.26C1975.53 789.599 1980.59 793.01 1984.82 797.251C1993.52 805.946 1998.48 817.916 1998.48 830.211C1998.48 842.51 1993.52 854.481 1984.82 863.172C1976.35 871.642 1963.98 877.249 1951.86 876.825C1950.89 876.794 1949.91 876.74 1948.94 876.686C1947.12 876.632 1945.28 876.713 1943.47 876.713C1942.02 876.713 1940.57 876.698 1939.11 876.709C1937.1 876.983 1935.1 877.342 1933.1 877.689C1930.99 878.06 1928.86 878.284 1926.74 878.557C1922.39 879.673 1918.07 880.946 1913.75 882.127C1908.99 883.428 1904.28 884.836 1899.6 886.36C1888.55 890.393 1877.72 894.963 1867.1 900.006C1863.48 902.032 1859.98 904.17 1856.51 906.432C1851.22 910.09 1845.93 913.756 1840.36 916.955C1836.21 919.34 1832.03 921.675 1827.92 924.125C1822.13 928.224 1816.52 932.542 1810.85 936.81C1804.05 941.92 1797.01 946.662 1789.96 951.397C1780.01 958.506 1770.49 966.066 1761.26 974.108C1755.31 979.298 1749.01 984.064 1742.34 988.313C1736.99 991.713 1731.51 994.885 1726.14 998.239C1717.59 1003.56 1708.96 1008.73 1700.24 1013.76C1699.54 1014.17 1698.82 1014.57 1698.11 1014.98C1692.84 1016.86 1687.55 1018.7 1682.27 1020.58C1663.33 1027.34 1644.93 1035.51 1626.4 1043.32C1615.35 1047.73 1604.19 1051.95 1592.96 1055.92C1590.87 1056.64 1588.78 1057.37 1586.7 1058.12C1586.67 1058.13 1586.64 1058.14 1586.62 1058.15H1586.61H1586.62C1586.62 1058.15 1586.6 1058.15 1586.6 1058.16C1586.53 1058.18 1586.46 1058.2 1586.39 1058.23C1586.36 1058.24 1586.33 1058.25 1586.3 1058.27C1586.13 1058.32 1585.97 1058.39 1585.8 1058.44C1585.94 1058.4 1586.07 1058.35 1586.21 1058.3C1580.32 1060.48 1574.54 1062.89 1568.74 1065.29C1565.7 1066.5 1562.57 1067.45 1559.5 1068.57C1556.58 1069.63 1553.67 1070.7 1550.8 1071.87C1547.98 1073 1545.07 1073.94 1542.26 1075.08C1539.05 1076.39 1535.86 1077.76 1532.71 1079.2C1532.39 1079.33 1532.07 1079.45 1531.75 1079.57C1531.76 1079.44 1531.78 1079.31 1531.79 1079.18Z" fill="#0C4470"/>
<path d="M1956.4 783.943C1956.56 783.951 1956.74 783.963 1956.91 783.974C1956.74 783.966 1956.56 783.955 1956.4 783.943Z" fill="#0C4470"/>
<path d="M1715.27 905.284C1714.95 905.361 1714.63 905.442 1714.31 905.52C1714.63 905.438 1714.95 905.361 1715.27 905.284Z" fill="#0C4470"/>
<path d="M1531.78 1079.18C1531.97 1077.31 1531.77 1075.47 1531.24 1073.75C1531.27 1073.47 1531.3 1073.19 1531.33 1072.91C1531.55 1070.75 1531.82 1068.58 1531.97 1066.41C1532.28 1061.91 1532.81 1057.03 1530.94 1052.84C1530.99 1052.67 1531.03 1052.5 1531.08 1052.33C1533.44 1044.82 1536.41 1037.52 1539.43 1030.26C1541.57 1025.14 1543.7 1020 1545.94 1014.92C1546 1014.84 1546.06 1014.76 1546.12 1014.68C1546.52 1014.16 1546.9 1013.62 1547.27 1013.08C1548.18 1013.44 1549.12 1013.72 1550.1 1013.92C1553.68 1014.64 1557.45 1014.16 1560.74 1012.58C1564.26 1010.9 1566.61 1008.23 1568.55 1004.93C1571.4 1000.1 1572.36 994.357 1573.74 988.962C1574.37 986.484 1574.94 984.018 1575.47 981.518C1576.31 977.562 1577.14 973.63 1577.77 969.64C1592.09 964.221 1606.19 958.159 1620.04 951.664C1637.65 942.124 1655.08 932.249 1672.26 921.953C1682.23 919.788 1692.22 917.616 1702.13 915.177C1710.9 913.016 1719.69 910.866 1728.43 908.558C1733.12 907.47 1737.84 906.521 1742.62 905.915C1744.07 905.73 1745.52 905.599 1746.98 905.429C1748.69 905.232 1750.27 904.939 1751.96 904.607C1755.12 903.901 1757.95 902.65 1760.35 900.327C1762.6 898.135 1764.17 895.299 1764.87 892.25C1765.42 891.768 1765.95 891.243 1766.45 890.668C1768.82 887.924 1770.26 884.71 1770.7 881.302C1773.47 881.68 1776.28 880.978 1778.5 879.357C1780.78 881.402 1783.12 883.393 1785.46 885.362C1789.78 888.985 1794.2 892.455 1798.69 895.847C1801.74 898.143 1804.85 900.362 1807.97 902.542C1809.54 903.638 1811.1 904.765 1812.69 905.826C1813.71 906.502 1814.71 907.173 1815.72 907.844C1816.99 908.686 1818.31 909.408 1819.63 910.133C1819.82 910.237 1820 910.341 1820.19 910.438C1820.27 910.476 1820.34 910.519 1820.41 910.558C1820.41 910.554 1820.41 910.554 1820.41 910.55C1822.25 911.449 1824.28 911.908 1826.32 911.908C1829.35 911.908 1832.41 910.893 1834.82 908.805C1837.37 906.606 1838.99 903.422 1839.28 900.065C1839.65 895.878 1837.93 892.107 1834.97 889.224C1834.68 888.943 1834.39 888.661 1834.1 888.383C1833.65 884.895 1831.84 881.584 1828.82 879.396C1826.63 877.81 1824.44 876.224 1822.25 874.626C1822.23 874.101 1822.17 873.576 1822.07 873.055C1821.45 869.717 1819.5 866.958 1816.77 865.005C1811.15 860.984 1805.39 857.214 1799.61 853.416C1797.32 851.912 1795.06 850.391 1792.81 848.836C1792.72 848.697 1792.64 848.558 1792.55 848.419C1791.44 846.694 1790.01 845.409 1788.39 844.216C1787.15 843.255 1785.91 842.302 1784.65 841.365C1789.87 838.019 1795.19 834.816 1800.66 831.833C1842.64 803.469 1905.44 780.75 1955.57 783.888C1953.91 783.776 1952.25 783.664 1950.58 783.552C1952.51 783.602 1954.37 783.726 1956.18 783.926C1956.25 783.931 1956.32 783.938 1956.4 783.943C1956.33 783.941 1956.27 783.936 1956.21 783.931C2016.76 790.684 2009.48 880.492 1947.59 876.672C1946.21 876.668 1944.83 876.714 1943.47 876.714C1942.01 876.714 1940.55 876.699 1939.09 876.714C1937.08 876.988 1935.08 877.347 1933.1 877.691C1930.98 878.061 1928.85 878.289 1926.73 878.563C1922.38 879.674 1918.06 880.948 1913.74 882.132C1908.97 883.437 1904.25 884.849 1899.55 886.373C1888.52 890.402 1877.71 894.968 1867.1 900.004C1863.47 902.041 1859.95 904.194 1856.46 906.467C1851.19 910.114 1845.91 913.765 1840.35 916.957C1836.19 919.345 1832.01 921.684 1827.89 924.138C1822.12 928.237 1816.51 932.551 1810.84 936.815C1803.68 942.199 1796.22 947.188 1788.79 952.186C1772.62 963.381 1758.89 977.675 1742.33 988.318C1727.67 997.298 1713 1006.35 1698.1 1014.98C1692.83 1016.87 1687.54 1018.7 1682.27 1020.59C1663.32 1027.34 1644.92 1035.51 1626.4 1043.32C1615.34 1047.73 1604.18 1051.95 1592.96 1055.93C1590.77 1056.68 1588.59 1057.43 1586.41 1058.23C1586.51 1058.19 1586.6 1058.16 1586.69 1058.12C1586.39 1058.23 1586.1 1058.34 1585.8 1058.45C1586 1058.37 1586.21 1058.29 1586.41 1058.23C1580.45 1060.43 1574.6 1062.86 1568.73 1065.29C1565.7 1066.5 1562.56 1067.46 1559.49 1068.57C1556.58 1069.63 1553.67 1070.71 1550.79 1071.87C1547.97 1073.01 1545.07 1073.95 1542.26 1075.09C1539.04 1076.4 1535.86 1077.76 1532.71 1079.2C1532.38 1079.33 1532.06 1079.45 1531.74 1079.57C1531.76 1079.44 1531.77 1079.31 1531.78 1079.18Z" fill="#0C4470"/>
<path d="M1561.76 1053.55C1561.5 1039.85 1561.34 1026.15 1561.02 1012.45C1564.38 1010.76 1566.66 1008.14 1568.55 1004.93C1571.4 1000.1 1572.36 994.355 1573.74 988.96C1574.37 986.482 1574.94 984.017 1575.47 981.516C1576.12 978.432 1576.78 975.365 1577.33 972.27C1585.72 965.157 1596.51 961.163 1607.55 961.175C1619.85 961.182 1631.82 966.149 1640.5 974.851C1649.28 983.638 1653.97 995.462 1654.13 1007.82C1654.23 1015.68 1654.41 1023.54 1654.57 1031.39C1645.15 1035.31 1635.79 1039.36 1626.4 1043.32C1615.34 1047.73 1604.18 1051.95 1592.96 1055.92C1590.82 1056.66 1588.7 1057.4 1586.58 1058.16C1586.62 1058.15 1586.65 1058.13 1586.69 1058.12C1586.6 1058.15 1586.5 1058.19 1586.41 1058.22C1586.41 1058.22 1586.41 1058.22 1586.41 1058.22C1586.4 1058.22 1586.4 1058.23 1586.39 1058.23C1586.29 1058.26 1586.19 1058.3 1586.09 1058.34C1585.99 1058.37 1585.89 1058.41 1585.8 1058.45C1585.9 1058.41 1585.99 1058.37 1586.09 1058.34C1586.11 1058.33 1586.12 1058.33 1586.14 1058.32C1580.27 1060.5 1574.51 1062.9 1568.73 1065.29C1566.53 1066.17 1564.27 1066.92 1562.02 1067.68C1561.93 1062.98 1561.84 1058.26 1561.76 1053.55Z" fill="#0C4470"/>
<path d="M1644.05 1083.93C1644.01 1083.95 1643.96 1083.97 1643.91 1083.99C1643.84 1084.02 1643.77 1084.04 1643.69 1084.07C1643.66 1084.09 1643.63 1084.1 1643.6 1084.11C1643.75 1084.05 1643.9 1083.99 1644.05 1083.93Z" fill="#0C4470"/>
<path d="M1607.37 1097.78C1607.19 1097.84 1607.01 1097.91 1606.83 1097.97C1607.01 1097.91 1607.19 1097.84 1607.37 1097.78Z" fill="#0C4470"/>
<path d="M1606.29 1098.16C1605.99 1098.27 1605.68 1098.38 1605.38 1098.48C1605.68 1098.38 1605.98 1098.27 1606.29 1098.16Z" fill="#0C4470"/>
<path d="M1606.82 1097.97C1606.98 1097.92 1607.14 1097.86 1607.29 1097.81C1607.14 1097.86 1606.98 1097.92 1606.83 1097.97H1606.82Z" fill="#0C4470"/>
<path d="M1562.91 1114.92C1565.92 1113.8 1568.91 1112.6 1571.93 1111.5C1577.38 1109.52 1582.81 1107.57 1588.17 1105.33C1592.46 1103.53 1596.74 1101.71 1601.07 1100.01C1601.36 1099.91 1601.66 1099.8 1601.95 1099.69C1603.02 1099.32 1604.08 1098.94 1605.15 1098.56C1605.08 1098.59 1605.01 1098.62 1604.93 1098.65C1606.37 1098.14 1607.81 1097.64 1609.24 1097.13C1608.59 1097.36 1607.94 1097.58 1607.3 1097.81C1619.51 1093.55 1631.63 1089 1643.6 1084.11C1643.58 1084.12 1643.56 1084.13 1643.55 1084.14C1643.59 1084.12 1643.64 1084.1 1643.69 1084.07C1643.77 1084.04 1643.84 1084.01 1643.91 1083.98C1643.99 1083.95 1644.06 1083.92 1644.13 1083.89C1644.15 1083.89 1644.17 1083.88 1644.18 1083.87C1647.95 1082.31 1651.71 1080.73 1655.46 1079.15C1655.53 1082.56 1655.59 1085.97 1655.65 1089.38C1655.27 1089.57 1654.88 1089.75 1654.49 1089.95C1653.74 1090.32 1652.98 1090.68 1652.23 1091.07C1652.23 1091.06 1652.24 1091.06 1652.25 1091.06C1652.18 1091.09 1652.13 1091.12 1652.06 1091.15C1652.06 1091.15 1652.06 1091.16 1652.05 1091.16C1652.06 1091.16 1652.06 1091.16 1652.06 1091.15H1652.07C1651.88 1091.24 1651.7 1091.34 1651.52 1091.44C1651.51 1091.45 1651.5 1091.45 1651.49 1091.45C1651.48 1091.46 1651.47 1091.47 1651.45 1091.48C1651.44 1091.48 1651.43 1091.49 1651.42 1091.5C1651.42 1091.49 1651.44 1091.49 1651.44 1091.48C1651.36 1091.52 1651.29 1091.56 1651.21 1091.61C1651.23 1091.6 1651.24 1091.59 1651.26 1091.58C1651.21 1091.61 1651.16 1091.63 1651.11 1091.66C1651.11 1091.66 1651.11 1091.66 1651.1 1091.66C1651.1 1091.66 1651.11 1091.66 1651.11 1091.66C1651.11 1091.66 1651.1 1091.66 1651.1 1091.66C1651.1 1091.66 1651.09 1091.67 1651.09 1091.67C1651.08 1091.67 1651.08 1091.67 1651.07 1091.68C1651.07 1091.68 1651.07 1091.68 1651.07 1091.68C1651.07 1091.68 1651.07 1091.68 1651.07 1091.68C1651.03 1091.7 1651 1091.71 1650.96 1091.73C1650.96 1091.73 1650.96 1091.73 1650.96 1091.73C1650.96 1091.73 1650.96 1091.73 1650.96 1091.73C1650.34 1092.05 1649.7 1092.31 1649.08 1092.61C1648.46 1092.92 1647.83 1093.22 1647.23 1093.56C1646.89 1093.76 1646.56 1093.94 1646.23 1094.14C1645.92 1094.33 1645.62 1094.52 1645.31 1094.7C1645.1 1094.83 1644.88 1094.95 1644.67 1095.08C1644.57 1095.14 1644.48 1095.2 1644.39 1095.25C1644.03 1095.44 1643.68 1095.62 1643.33 1095.81C1643.33 1095.81 1643.33 1095.81 1643.34 1095.81C1642.49 1096.23 1641.64 1096.64 1640.8 1097.06C1633.55 1099.71 1626.7 1103.38 1620.48 1107.92C1620.24 1108.05 1619.99 1108.17 1619.75 1108.29C1619.53 1108.4 1619.3 1108.51 1619.08 1108.63C1619 1108.66 1618.92 1108.7 1618.85 1108.75C1618.86 1108.73 1618.88 1108.73 1618.9 1108.71C1618.87 1108.73 1618.85 1108.75 1618.81 1108.76C1618.83 1108.75 1618.85 1108.74 1618.87 1108.73C1617.98 1109.21 1617.09 1109.68 1616.2 1110.17C1616.22 1110.16 1616.24 1110.15 1616.26 1110.14C1616.12 1110.21 1615.99 1110.29 1615.86 1110.37C1615.55 1110.55 1615.25 1110.73 1614.94 1110.91C1614.62 1111.1 1614.31 1111.29 1613.99 1111.48C1613.9 1111.53 1613.81 1111.59 1613.71 1111.65C1612.82 1112.25 1611.91 1112.85 1611.02 1113.47C1610.32 1113.97 1609.61 1114.46 1608.9 1114.95C1608.3 1115.21 1607.7 1115.46 1607.11 1115.71C1602.38 1117.72 1597.96 1120.09 1593.36 1122.22C1592.42 1122.66 1591.5 1123.11 1590.61 1123.58C1590.22 1123.67 1589.83 1123.76 1589.44 1123.85C1584.1 1125.16 1577.35 1127.39 1572.08 1130.1C1571.86 1130.18 1571.63 1130.25 1571.41 1130.32C1570.46 1130.63 1569.49 1130.89 1568.54 1131.22C1567.77 1131.49 1566.99 1131.73 1566.23 1132.03C1566.23 1132.03 1566.22 1132.03 1566.21 1132.04C1566.03 1132.1 1565.83 1132.14 1565.64 1132.22C1565.42 1132.3 1565.21 1132.39 1565.01 1132.51C1564.87 1132.47 1564.7 1132.5 1564.59 1132.6C1564.58 1132.6 1564.58 1132.61 1564.57 1132.61C1564.49 1132.63 1564.41 1132.65 1564.32 1132.67C1564.23 1132.7 1564.14 1132.73 1564.06 1132.76C1563.94 1132.78 1563.82 1132.81 1563.71 1132.84C1563.7 1132.84 1563.69 1132.84 1563.68 1132.85C1563.69 1132.84 1563.7 1132.84 1563.71 1132.84H1563.71C1563.67 1132.85 1563.62 1132.86 1563.58 1132.87C1563.58 1132.87 1563.58 1132.87 1563.57 1132.87C1563.57 1132.87 1563.57 1132.87 1563.56 1132.87C1563.56 1132.87 1563.55 1132.88 1563.55 1132.88C1563.55 1132.88 1563.54 1132.88 1563.54 1132.88C1563.48 1132.89 1563.43 1132.9 1563.38 1132.92C1563.39 1132.91 1563.4 1132.91 1563.41 1132.91C1563.36 1132.92 1563.3 1132.93 1563.25 1132.95C1563.14 1126.94 1563.02 1120.93 1562.91 1114.92Z" fill="#0C4470"/>
<path d="M1524.28 1118.38C1524.36 1117.04 1524.27 1115.72 1524.03 1114.45C1526.07 1112.65 1527.56 1110.46 1528.62 1107.9C1529.58 1105.56 1529.8 1103.16 1530.01 1100.67C1530.37 1098.32 1530.7 1095.97 1530.93 1093.6C1531.16 1091.17 1531.23 1088.72 1531.34 1086.29C1531.46 1083.92 1531.55 1081.54 1531.79 1079.18C1531.98 1077.32 1531.77 1075.47 1531.24 1073.75C1531.28 1073.47 1531.31 1073.19 1531.34 1072.92C1531.55 1070.75 1531.82 1068.58 1531.97 1066.41C1532.28 1061.91 1532.82 1057.03 1530.95 1052.85C1530.99 1052.67 1531.04 1052.5 1531.08 1052.33C1533.45 1044.82 1536.42 1037.52 1539.44 1030.27C1541.57 1025.14 1543.71 1020.01 1545.94 1014.93C1546.01 1014.84 1546.07 1014.76 1546.13 1014.69C1546.52 1014.16 1546.9 1013.63 1547.27 1013.08C1548.18 1013.44 1549.13 1013.72 1550.11 1013.92C1553.68 1014.64 1557.46 1014.16 1560.75 1012.59C1564.26 1010.91 1566.61 1008.23 1568.56 1004.94C1571.4 1000.11 1572.37 994.361 1573.75 988.966C1574.38 986.488 1574.95 984.022 1575.48 981.522C1576.37 977.311 1577.26 973.124 1577.9 968.86C1578.22 966.707 1578.48 964.561 1578.7 962.396C1578.9 960.266 1579.2 958.259 1579.03 956.094C1578.75 952.447 1577.6 948.82 1575.41 945.868C1576.69 944.949 1577.97 944.015 1579.25 943.104C1581.16 941.777 1583.06 940.442 1584.95 939.107C1586.31 939.18 1587.66 939.091 1588.99 938.841C1591.01 938.462 1592.73 937.698 1594.5 936.749C1594.49 936.753 1594.48 936.76 1594.48 936.764C1594.3 936.861 1594.12 936.957 1593.94 937.058C1594.12 936.961 1594.3 936.861 1594.48 936.764C1596.08 935.892 1597.7 935.035 1599.29 934.132C1599.44 934.109 1599.59 934.086 1599.74 934.059C1606.2 932.921 1612.72 932.16 1619.16 930.906C1622.73 930.212 1626.3 929.498 1629.86 928.749C1632.75 928.139 1635.65 927.688 1638.56 927.217C1640.57 927.016 1642.58 926.819 1644.58 926.595C1647.93 926.221 1651.38 926.032 1654.69 925.426C1660.39 924.388 1666.05 923.296 1671.71 922.069C1681.87 919.865 1692.04 917.658 1702.13 915.173C1710.91 913.012 1719.69 910.866 1728.43 908.558C1733.12 907.47 1737.84 906.521 1742.62 905.911C1744.07 905.726 1745.52 905.595 1746.98 905.425C1748.68 905.236 1750.25 904.942 1751.92 904.615C1751.92 904.615 1751.91 904.618 1751.9 904.618C1751.92 904.615 1751.94 904.611 1751.96 904.607C1751.99 904.6 1752.02 904.594 1752.05 904.587C1755.18 903.878 1757.97 902.629 1760.34 900.323C1762.61 898.135 1764.17 895.299 1764.87 892.25C1765.42 891.768 1765.95 891.239 1766.45 890.664C1768.82 887.928 1770.26 884.713 1770.7 881.31C1773.47 881.684 1776.28 880.986 1778.5 879.357C1780.79 881.402 1783.12 883.394 1785.47 885.361C1789.79 888.985 1794.2 892.455 1798.7 895.847C1801.74 898.143 1804.85 900.362 1807.97 902.542C1809.54 903.638 1811.1 904.765 1812.7 905.826C1813.71 906.501 1814.72 907.173 1815.73 907.844C1816.98 908.686 1818.31 909.407 1819.64 910.133C1819.82 910.237 1820 910.341 1820.19 910.438C1820.26 910.476 1820.34 910.519 1820.41 910.557C1820.41 910.554 1820.41 910.554 1820.42 910.55C1822.24 911.449 1824.28 911.908 1826.32 911.908C1829.36 911.908 1832.41 910.893 1834.83 908.805C1837.38 906.606 1839 903.422 1839.29 900.065C1839.65 895.878 1837.93 892.107 1834.98 889.225C1834.69 888.939 1834.4 888.661 1834.1 888.383C1833.66 884.895 1831.84 881.584 1828.82 879.399C1826.63 877.813 1824.44 876.223 1822.25 874.63C1822.23 874.101 1822.16 873.576 1822.07 873.055C1821.45 869.717 1819.51 866.958 1816.77 865.005C1811.15 860.984 1805.39 857.214 1799.62 853.416C1797.33 851.911 1795.06 850.391 1792.8 848.836C1792.72 848.697 1792.64 848.558 1792.55 848.419C1791.45 846.694 1790.01 845.409 1788.39 844.216C1785.91 842.287 1783.4 840.4 1780.83 838.574C1779.93 837.937 1779.02 837.332 1778.09 836.745C1775.63 834.831 1773.17 832.929 1770.69 831.045C1767.28 828.336 1764.02 825.488 1760.72 822.656C1759.72 821.799 1758.72 820.95 1757.7 820.12C1756.66 818.928 1755.58 817.763 1754.47 816.632C1752.82 814.957 1751.06 813.518 1749.13 812.302C1750.11 811.739 1751.08 811.171 1752.06 810.604C1762.46 804.534 1773.5 799.54 1784.4 794.353C1798.01 787.214 1811.66 780.21 1825.49 773.507C1832.83 769.81 1840.15 766.113 1847.64 762.736C1855.8 759.055 1864.74 756.106 1873.18 753.463C1878.34 751.846 1883.58 750.348 1888.8 748.944C1894.15 747.505 1899.64 746.559 1905.13 745.625C1925.74 739.489 1948.32 740.624 1968.2 749.033C1990.39 758.414 2008.44 776.459 2017.82 798.645C2022.66 810.102 2025.14 822.494 2025.14 834.936C2025.14 843.348 2024.03 851.606 2021.81 859.718C2020.48 863.554 2019.15 867.386 2017.82 871.222C2015.33 877.836 2009.98 886.45 2005.67 892.015C2000.78 898.343 1995.17 903.954 1988.84 908.852C1982.38 913.845 1975.12 918.082 1967.58 921.235C1963.3 923.03 1958.59 924.732 1953.93 925.785C1948.26 927.063 1942.57 928.251 1936.85 929.231C1936.59 929.274 1936.34 929.316 1936.09 929.362C1932.71 930.289 1929.34 931.261 1925.99 932.272C1919.5 934.854 1913.19 937.76 1912.1 938.281C1904.96 941.854 1897.8 945.405 1890.62 948.909C1884.98 951.876 1879.37 954.902 1873.73 957.866C1865.89 961.991 1857.86 965.792 1849.86 969.617C1843.7 973.012 1837.67 976.628 1831.5 980.024C1823.97 984.173 1816.29 988.047 1808.59 991.879C1802.38 995.148 1796.31 998.598 1790.39 1002.32C1789.11 1003.26 1787.8 1004.16 1786.47 1005.03C1785.9 1005.43 1785.34 1005.82 1784.77 1006.2C1779.04 1010.56 1773.5 1015.19 1767.6 1019.31C1760.55 1024.21 1753.51 1029.15 1746.17 1033.6C1743 1035.53 1739.86 1037.49 1736.75 1039.51C1736.33 1039.79 1735.91 1040.08 1735.49 1040.36C1735.01 1040.68 1734.54 1041.01 1734.06 1041.33C1732.98 1042.07 1731.99 1042.75 1731.06 1043.38C1728.09 1045.66 1724.97 1047.77 1721.72 1049.68C1721.1 1050.09 1720.48 1050.51 1719.86 1050.92C1718.52 1051.81 1717.18 1052.7 1715.83 1053.59C1706.79 1059.57 1697.81 1065.58 1688.45 1071.05C1679.05 1076.54 1669.37 1081.52 1660 1087.06C1659.31 1087.47 1658.61 1087.88 1657.91 1088.28H1657.9C1657.79 1088.27 1657.7 1088.31 1657.61 1088.34C1657.46 1088.38 1657.3 1088.4 1657.15 1088.44C1656.92 1088.51 1656.69 1088.62 1656.49 1088.75C1656.26 1088.91 1656.05 1089.08 1655.83 1089.25C1655.78 1089.3 1655.72 1089.34 1655.66 1089.38C1655.27 1089.58 1654.88 1089.76 1654.5 1089.95C1653.74 1090.32 1652.98 1090.68 1652.23 1091.07C1652.24 1091.07 1652.24 1091.07 1652.24 1091.07C1652.18 1091.1 1652.12 1091.13 1652.06 1091.16C1652.06 1091.16 1652.06 1091.16 1652.06 1091.17C1652.06 1091.16 1652.06 1091.16 1652.06 1091.16C1652.07 1091.16 1652.07 1091.16 1652.07 1091.16C1651.89 1091.25 1651.7 1091.35 1651.52 1091.45C1651.49 1091.47 1651.45 1091.48 1651.42 1091.5C1651.43 1091.5 1651.44 1091.49 1651.44 1091.49C1651.37 1091.53 1651.29 1091.57 1651.21 1091.61C1651.23 1091.6 1651.25 1091.59 1651.27 1091.58C1651.22 1091.61 1651.16 1091.64 1651.12 1091.66C1651.11 1091.67 1651.1 1091.67 1651.09 1091.67C1651.09 1091.67 1651.08 1091.68 1651.08 1091.68C1651.08 1091.68 1651.08 1091.68 1651.07 1091.68H1651.08C1651.07 1091.68 1651.06 1091.69 1651.06 1091.69C1651.06 1091.69 1651.07 1091.69 1651.07 1091.69C1651.03 1091.7 1651 1091.72 1650.96 1091.74C1650.35 1092.05 1649.7 1092.32 1649.09 1092.62C1648.46 1092.92 1647.83 1093.23 1647.23 1093.57C1646.9 1093.76 1646.56 1093.95 1646.23 1094.15C1645.92 1094.33 1645.62 1094.52 1645.31 1094.7C1645.1 1094.83 1644.89 1094.96 1644.67 1095.09C1644.58 1095.14 1644.49 1095.21 1644.39 1095.26C1644.04 1095.44 1643.69 1095.63 1643.34 1095.82C1642.49 1096.24 1641.63 1096.66 1640.78 1097.07C1635.6 1098.97 1630.62 1101.4 1625.92 1104.28C1625.28 1104.57 1624.64 1104.86 1623.99 1105.14C1622.2 1105.93 1620.41 1106.73 1618.63 1107.54C1609.11 1112.69 1599.72 1118.06 1589.91 1122.72C1588 1123.62 1586.07 1124.5 1584.13 1125.34C1580.15 1126.57 1575.94 1128.16 1572.37 1129.97C1571.82 1130.16 1571.26 1130.36 1570.7 1130.55C1569.98 1130.77 1569.25 1130.98 1568.54 1131.23C1567.79 1131.49 1567.02 1131.73 1566.27 1132.02C1565.19 1132.36 1564.11 1132.69 1563.02 1133.02C1562.97 1133.03 1562.9 1133.05 1562.85 1133.07C1559.26 1134.13 1555.64 1135.09 1551.99 1135.95C1541.73 1138.34 1531.74 1141.67 1521.5 1144.15C1520.91 1144.29 1520.32 1144.44 1519.73 1144.58C1521.82 1135.95 1523.71 1127.3 1524.28 1118.38Z" fill="#0C4470"/>
<path d="M305.505 1019.3C299.593 1015.19 294.06 1010.56 288.329 1006.2C287.758 1005.82 287.195 1005.43 286.631 1005.03C285.299 1004.16 283.991 1003.25 282.714 1002.32C276.786 998.596 270.72 995.146 264.515 991.878C256.812 988.045 249.128 984.171 241.6 980.023C235.433 976.627 229.397 973.011 223.242 969.615C215.238 965.79 207.215 961.989 199.37 957.864C193.728 954.9 188.117 951.875 182.475 948.907C175.301 945.403 168.146 941.853 166.209 940.892C159.907 937.758 153.601 934.853 147.114 932.271C143.757 931.259 140.388 930.287 137.012 929.361C136.761 929.315 136.506 929.272 136.255 929.23C130.528 928.25 124.836 927.061 119.171 925.784C114.505 924.73 109.801 923.028 105.514 921.234C97.985 918.081 90.722 913.844 84.258 908.85C77.933 903.953 72.3182 898.342 67.4249 892.013C63.122 886.448 57.7656 877.835 55.2842 871.22C53.9491 867.384 52.6216 863.553 51.2901 859.717C49.0674 851.605 47.9558 843.346 47.9558 834.934C47.9558 822.492 50.4412 810.101 55.2842 798.643C64.6657 776.457 82.7146 758.412 104.9 749.031C124.782 740.622 147.358 739.488 167.973 745.623C173.46 746.558 178.951 747.503 184.3 748.942C189.521 750.347 194.755 751.845 199.914 753.461C208.362 756.105 217.303 759.053 225.457 762.735C232.951 766.111 240.272 769.808 247.608 773.505C261.443 780.208 275.092 787.213 288.7 794.352C299.597 799.538 310.646 804.532 321.042 810.602C322.014 811.17 322.991 811.737 323.967 812.3C322.034 813.516 320.274 814.955 318.63 816.63C317.519 817.761 316.438 818.926 315.392 820.119C314.377 820.949 313.374 821.797 312.378 822.654C309.075 825.487 305.81 828.335 302.407 831.044C299.925 832.931 297.463 834.83 295.009 836.744C294.079 837.33 293.161 837.936 292.265 838.573C289.699 840.398 287.187 842.285 284.701 844.215C283.084 845.407 281.649 846.692 280.545 848.417C280.456 848.556 280.372 848.695 280.287 848.834C278.037 850.389 275.768 851.91 273.479 853.415C267.706 857.212 261.94 860.982 256.322 865.003C253.59 866.956 251.645 869.715 251.027 873.053C250.927 873.574 250.865 874.099 250.838 874.628C248.654 876.222 246.462 877.812 244.274 879.398C241.249 881.582 239.439 884.893 238.991 888.382C238.698 888.659 238.408 888.937 238.119 889.223C235.163 892.106 233.446 895.876 233.808 900.063C234.098 903.42 235.718 906.604 238.269 908.804C240.685 910.891 243.738 911.907 246.775 911.907C248.812 911.907 250.846 911.447 252.679 910.548C252.679 910.548 252.679 910.552 252.683 910.556C252.752 910.517 252.825 910.475 252.899 910.436C253.088 910.34 253.273 910.235 253.458 910.131C254.782 909.406 256.106 908.684 257.368 907.843C258.379 907.171 259.386 906.5 260.397 905.824C261.991 904.763 263.55 903.636 265.121 902.54C268.246 900.36 271.353 898.141 274.398 895.845C278.894 892.453 283.308 888.984 287.627 885.36C289.969 883.392 292.308 881.401 294.596 879.355C296.815 880.98 299.617 881.682 302.387 881.304C302.831 884.712 304.275 887.922 306.644 890.662C307.142 891.238 307.671 891.766 308.223 892.248C308.921 895.297 310.492 898.133 312.749 900.321C314.159 901.693 315.725 902.691 317.418 903.424V1027.5C313.414 1024.82 309.463 1022.06 305.505 1019.3Z" fill="#0C4470"/>
<path d="M1884.01 891.055C1866.62 873.666 1856.7 849.728 1856.7 825.134C1856.7 800.537 1866.62 776.599 1884.01 759.21C1901.4 741.821 1925.33 731.904 1949.93 731.904C1974.52 731.904 1998.46 741.821 2015.85 759.21C2033.24 776.599 2043.16 800.537 2043.16 825.134C2043.16 849.728 2033.24 873.666 2015.85 891.055C1998.46 908.444 1974.52 918.362 1949.93 918.362C1925.33 918.362 1901.4 908.444 1884.01 891.055Z" fill="#0C4470"/>
<path d="M57.2436 891.055C39.8549 873.666 29.9409 849.728 29.9409 825.134C29.9409 800.537 39.8549 776.599 57.2436 759.21C74.6365 741.821 98.5743 731.904 123.168 731.904C147.766 731.904 171.703 741.821 189.092 759.21C206.481 776.599 216.395 800.537 216.395 825.134C216.395 849.728 206.481 873.666 189.092 891.055C171.703 908.444 147.766 918.362 123.168 918.362C98.5743 918.362 74.6365 908.444 57.2436 891.055Z" fill="#0C4470"/>
<path d="M1949.19 918.755C1948 918.697 1946.83 918.639 1945.68 918.581C1943.52 918.52 1941.37 918.381 1939.23 918.169C1934.04 917.733 1929 916.98 1924.2 915.413C1923.24 915.155 1922.27 914.877 1921.31 914.587C1917.19 913.8 1913.09 912.916 1909.1 911.62C1891.54 905.92 1874.94 898.356 1858.53 889.967C1849.06 885.127 1840.31 879.297 1831.22 873.832C1827.13 871.374 1822.97 869.066 1818.8 866.762C1818.19 866.121 1817.51 865.535 1816.77 865.006C1811.15 860.985 1805.39 857.215 1799.61 853.418C1797.33 851.913 1795.06 850.392 1792.8 848.837C1792.72 848.698 1792.64 848.559 1792.55 848.42C1791.44 846.695 1790.01 845.41 1788.39 844.217C1785.91 842.288 1783.39 840.401 1780.83 838.575C1779.93 837.939 1779.01 837.333 1778.08 836.746C1775.63 834.832 1773.16 832.93 1770.69 831.046C1768.7 829.46 1766.75 827.828 1764.82 826.18C1763.07 824.54 1761.33 822.873 1759.59 821.221C1758.36 820.195 1757.14 819.168 1755.91 818.142C1755.44 817.633 1754.95 817.127 1754.47 816.629C1752.7 814.839 1750.81 813.314 1748.71 812.045C1746.38 810.038 1744.07 808.004 1741.81 805.913C1739.27 803.566 1736.76 801.205 1734.23 798.854C1732.78 797.743 1731.32 796.654 1729.83 795.578C1725.32 792.552 1720.83 789.488 1716.46 786.266C1712.76 783.538 1709.25 780.539 1705.66 777.684C1701.96 774.75 1698.03 772.134 1694.24 769.325C1692.24 767.835 1690.28 766.323 1688.29 764.833C1680.04 759.581 1672.03 754.051 1664.65 747.583C1661.19 744.538 1657.54 741.764 1653.81 739.097C1646.03 734.15 1638.11 729.438 1630.01 725.05C1622.99 721.642 1615.95 718.254 1609.09 714.55C1605.42 712.566 1601.77 710.559 1598.11 708.572C1597.1 708.135 1596.1 707.711 1595.09 707.294C1593.85 706.935 1592.6 706.592 1591.34 706.256C1583.02 704.778 1574.69 703.42 1566.4 701.757C1557.26 699.927 1548.2 698.307 1538.97 697.195C1530.53 696.886 1522.1 696.844 1513.64 697.045C1505.41 697.658 1497.17 698.241 1488.93 698.588C1480.2 698.963 1471.49 698.38 1462.79 697.624C1460.05 697.589 1457.31 697.608 1454.56 697.643C1430.08 697.921 1405.88 687.578 1388.64 670.336C1371.25 652.947 1361.33 629.006 1361.33 604.416C1361.33 579.818 1371.25 555.881 1388.64 538.491C1406.17 520.956 1429.86 511.467 1454.56 511.185C1463.1 511.088 1471.58 511.509 1480.07 512.192C1483.83 512.227 1487.57 512.157 1491.33 512.022C1507.33 510.818 1523.37 509.699 1539.39 510.656C1554.25 511.548 1568.99 512.393 1583.59 515.357C1594.55 517.579 1605.52 519.613 1616.55 521.462C1625.84 523.021 1635.07 524.966 1644.2 527.266C1650.13 528.759 1657.04 531.333 1662.38 533.382C1664.73 534.277 1667.12 535.092 1669.41 536.134C1680.89 541.394 1691.87 547.549 1703.03 553.407C1710.97 557.22 1718.95 561.017 1726.61 565.355C1739.71 572.771 1752.21 580.872 1764.68 589.319C1769.06 592.283 1773.25 595.455 1777.29 598.862C1780.26 601.367 1783.17 603.868 1786.2 606.249C1791.44 609.579 1796.67 612.952 1801.63 616.684C1805.8 619.825 1809.91 623.032 1814.19 626.038C1821.56 631.209 1828.33 637.148 1835.65 642.389C1838.8 644.508 1841.94 646.649 1845.03 648.853C1850.41 652.689 1855.26 657.223 1860.19 661.615C1863.61 664.659 1866.95 667.805 1870.29 670.938C1873.31 673.458 1876.34 675.959 1879.31 678.533C1886.89 685.109 1894.07 692.059 1901.54 698.743C1902.52 699.576 1903.5 700.398 1904.5 701.197C1912.07 705.646 1920.04 709.463 1927.46 714.171C1934.49 718.628 1941.53 722.927 1948.81 726.902C1952.83 728.747 1956.9 730.511 1961 732.201C1981.73 735.072 2001.13 744.125 2016.02 759.009C2027.4 770.394 2035.78 784.711 2040.06 800.243C2043.48 812.662 2043.8 824.941 2042.54 837.68C2042.13 841.821 2041.3 845.904 2040.05 849.917C2036.78 860.198 2035.81 862.88 2030.62 872.292C2028.68 875.819 2026.43 879.15 2023.87 882.299C2016.69 891.588 2007.33 900.398 1996.96 905.943C1990.06 909.64 1982.12 913.769 1974.37 915.425C1966.61 917.084 1959.61 918.817 1951.78 918.817C1950.92 918.817 1950.06 918.798 1949.19 918.755Z" fill="#0C4470"/>
<path d="M98.7342 915.425C0.459494 887.62 10.659 745.812 112.102 732.201C133.003 723.267 152.259 710.528 171.555 698.747C199.301 672.806 227.966 648.058 258.904 626.038C287.901 605.473 315.189 582.512 346.49 565.351C373.719 552.021 399.378 535.4 428.9 527.262C463.481 519.875 498.274 512.208 533.704 510.656C546.362 510.197 558.985 510.683 571.607 511.169C587.233 511.772 602.858 512.374 618.534 511.188C699.632 509.59 743.224 614.078 684.462 670.336C654.666 701.231 612.846 699.502 572.398 697.774C559.347 697.214 546.439 696.654 534.125 697.195C515.343 699.842 496.557 703.369 478.002 707.294C466.224 712.889 455.018 719.677 443.09 725.049C421.517 735.214 404.711 752.151 384.806 764.832C363.878 779.605 343.927 795.493 324.466 811.994C322.336 813.271 320.414 814.815 318.627 816.629C318.017 817.25 317.415 817.883 316.825 818.527C312.221 822.495 307.64 826.489 303.075 830.51C302.855 830.691 302.631 830.869 302.408 831.046C299.93 832.929 297.468 834.832 295.01 836.742C294.08 837.328 293.161 837.938 292.266 838.575C289.7 840.4 287.188 842.287 284.706 844.217C283.089 845.409 281.65 846.691 280.546 848.42C280.457 848.559 280.372 848.693 280.291 848.836C278.041 850.392 275.768 851.908 273.48 853.417C267.707 857.214 261.941 860.984 256.323 865.006C255.454 865.627 254.663 866.329 253.972 867.105C214.544 892.035 165.646 918.416 122.436 918.416C114.298 918.42 106.368 917.482 98.7342 915.425Z" fill="#0C4470"/>
<path d="M1362.38 624.559C1361.85 623.15 1361.72 622.815 1361.37 621.854C1358.26 617.293 1355.23 612.662 1352.61 607.807C1347.98 598.599 1340.61 591.217 1334.27 583.182C1325.18 573.106 1314.5 564.651 1305.07 554.915C1297.41 549.03 1289.63 543.214 1281.8 537.553C1274.25 532.667 1267.02 527.334 1259.88 521.889C1251.66 517.158 1242.83 513.596 1234.26 509.544C1224.3 505.021 1214.6 500.004 1204.89 494.976C1191.4 488.967 1177.16 484.85 1163.8 478.478C1150.04 472.366 1136.07 466.681 1121.9 461.553C1109.6 457.169 1098.34 450.693 1087.75 443.087C1083.85 440.293 1080.3 437.094 1076.79 433.837C1072.97 431.502 1069.12 429.218 1065.29 426.898C1054.71 420.735 1045.42 412.909 1036.55 404.578C1027.67 412.909 1018.39 420.731 1007.81 426.898C1003.98 429.218 1000.13 431.502 996.306 433.837C992.798 437.094 989.244 440.293 985.351 443.087C974.757 450.693 963.501 457.169 951.194 461.553C937.031 466.681 923.054 472.366 909.292 478.478C895.94 484.85 881.696 488.967 868.205 494.976C858.5 500.004 848.798 505.021 838.834 509.544C830.27 513.596 821.437 517.158 813.221 521.889C806.082 527.334 798.846 532.664 791.305 537.549C783.468 543.21 775.696 549.03 768.028 554.915C758.592 564.651 747.922 573.106 738.826 583.182C733.821 589.23 728.796 595.296 724.027 601.529C720.11 608.459 716.274 615.467 711.647 621.981C705.689 664.667 673.624 700.073 630.051 705.252C560.175 713.622 508.61 649.354 528.114 582.465C530.325 574.882 533.382 567.569 536.106 560.159C540.32 546.232 546.51 532.93 554.977 521.248C561.406 510.47 567.364 499.182 575.129 489.276C590.735 468.981 607.294 449.15 626.667 432.305C636.279 422.858 645.912 413.357 656.698 405.222C666.696 397.593 676.838 390.226 687.246 383.175C698.121 375.226 708.733 366.824 720.422 360.063C736.827 350.454 754.695 343.396 771.821 335.176C781.951 329.82 792.058 324.344 802.697 320.111C812.268 316.302 822.039 313.13 831.509 309.047C846.525 302.309 861.656 295.791 877.193 290.33C886.589 281.964 897.58 275.7 908.25 269.144C914.575 263.205 921.094 257.439 928.09 252.307C931.517 248.259 935.051 244.292 938.764 240.514C942.99 236.713 946.274 231.487 950.09 227.536C953.718 223.422 956.859 220.462 961.899 216.341C973.796 203.444 989.109 193.761 1006.17 189.099C1016.08 186.371 1026.37 185.348 1036.55 185.97C1064.23 184.04 1092.42 195.621 1110.98 216.159C1116.03 220.311 1119.37 223.372 1123.01 227.536C1126.82 231.495 1130.11 236.716 1134.33 240.514C1138.05 244.292 1141.58 248.259 1145.01 252.307C1147.1 253.851 1149.19 255.402 1151.18 257.073C1155.84 260.974 1160.46 264.938 1164.85 269.144C1173.69 274.543 1182.65 279.818 1190.9 286.128C1192.59 287.494 1194.26 288.898 1195.9 290.33C1198.54 291.272 1201.2 292.175 1203.8 293.132C1212.32 296.505 1220.78 300.051 1229.26 303.505C1242.62 309.95 1256.57 314.851 1270.4 320.111C1285.98 326.362 1300.35 335.277 1315.79 341.895C1328.16 347.691 1340.97 353.024 1352.67 360.063C1364.36 366.828 1374.98 375.226 1385.85 383.175C1407.46 397.735 1428.32 413.492 1446.43 432.305C1465.8 449.15 1482.36 468.981 1497.97 489.276C1505.72 499.178 1511.7 510.47 1518.12 521.248C1523.4 529.036 1528.34 536.82 1531.89 545.807C1534.68 552.858 1536.84 560.144 1539.64 567.194C1543.41 577.035 1547.07 587.161 1548.17 597.677C1556.21 655.54 1512.32 707.309 1453.39 705.912C1453.9 705.947 1454.41 705.981 1454.85 706.013C1454.39 706.02 1453.91 706.024 1453.45 706.024C1408.34 706.028 1367.32 669.476 1362.38 624.559Z" fill="#0C4470"/>
<path d="M1575.38 1122.3C1549.62 1116.4 1526.87 1099.95 1513.12 1077.39C1499.8 1055.54 1495.52 1028.79 1501.23 1003.86C1504.12 991.232 1509.52 979.234 1517.04 968.688C1524.6 958.091 1534.72 948.026 1546.14 941.597C1546.48 941.404 1546.81 941.215 1547.15 941.018C1547.2 940.987 1547.25 940.956 1547.31 940.926C1547.35 940.906 1547.39 940.883 1547.42 940.86C1547.87 940.602 1548.32 940.347 1548.77 940.096C1553.67 937.298 1558.57 934.489 1563.47 931.691C1579.74 922.387 1596.02 913.086 1612.3 903.782C1628.89 894.293 1645.49 884.803 1662.1 875.318C1678.92 865.697 1695.76 856.08 1712.58 846.46C1729.75 836.642 1746.93 826.825 1764.1 817.011C1779.72 808.082 1795.35 799.148 1810.97 790.222C1823.92 782.82 1836.87 775.418 1849.82 768.017C1859.24 762.633 1868.66 757.242 1878.09 751.859C1883.39 748.826 1888.7 745.781 1894.01 742.751C1905.29 736.33 1916.93 731.653 1929.81 729.6C1942.31 727.613 1955.19 728.037 1967.54 730.865C1993.3 736.766 2016.05 753.209 2029.8 775.777C2043.12 797.624 2047.4 824.371 2041.69 849.3C2038.8 861.931 2033.4 873.928 2025.88 884.475C2018.29 895.111 2008.2 905.06 1996.78 911.566C1994.91 912.635 1993.04 913.704 1991.17 914.776C1982.85 919.531 1974.54 924.281 1966.22 929.032C1955.4 935.222 1944.57 941.412 1933.74 947.602C1919.77 955.586 1905.8 963.567 1891.83 971.555C1874.87 981.256 1857.9 990.943 1840.95 1000.64C1823.85 1010.42 1806.75 1020.19 1789.65 1029.96C1773.07 1039.44 1756.49 1048.91 1739.91 1058.39C1723.79 1067.6 1707.68 1076.81 1691.56 1086.03C1677.78 1093.91 1664.02 1101.8 1650.23 1109.65C1650.22 1109.66 1650.2 1109.67 1650.19 1109.67C1649.76 1109.92 1649.33 1110.17 1648.91 1110.41C1637.58 1116.79 1626.03 1121.51 1613.11 1123.56C1607.95 1124.38 1602.74 1124.79 1597.52 1124.79C1590.08 1124.79 1582.64 1123.96 1575.38 1122.3Z" fill="#0C4470"/>
<path d="M283.438 1029.96C266.339 1020.19 249.239 1010.42 232.144 1000.64C215.187 990.943 198.219 981.257 181.262 971.556C167.296 963.567 153.322 955.587 139.353 947.602C128.524 941.412 117.696 935.222 106.867 929.033C98.5507 924.282 90.2385 919.532 81.926 914.777C80.0545 913.705 78.1827 912.635 76.3111 911.566C64.8958 905.06 54.8045 895.111 47.2136 884.476C39.6886 873.929 34.2937 861.932 31.3994 849.301C25.6879 824.371 29.9715 797.624 43.2892 775.778C57.0427 753.21 79.792 736.767 105.555 730.866C117.9 728.038 130.778 727.613 143.285 729.6C156.166 731.654 167.802 736.331 179.078 742.752C184.392 745.782 189.698 748.826 195.004 751.86C204.432 757.243 213.852 762.634 223.275 768.018C236.226 775.419 249.174 782.821 262.121 790.222C277.746 799.148 293.368 808.082 308.993 817.012C311.802 818.614 314.612 820.223 317.417 821.828V835.235V870.282V1049.39C306.091 1042.91 294.765 1036.43 283.438 1029.96Z" fill="#0C4470"/>
<path d="M572.072 1045.46C572.216 1045.27 572.36 1045.08 572.504 1044.88C572.437 1045.23 572.368 1045.57 572.298 1045.92C572.223 1045.76 572.147 1045.61 572.072 1045.46Z" fill="#0C4470"/>
<path d="M1758.18 826.625C1757.87 826.342 1757.72 825.955 1757.53 825.581C1757.28 825.128 1757 824.68 1756.75 824.221C1756.66 824.052 1756.58 823.881 1756.49 823.708C1756.41 823.574 1756.32 823.438 1756.25 823.299C1756.02 822.883 1755.82 822.454 1755.62 822.026C1754.42 819.971 1753.12 817.972 1751.79 816.002C1751.34 815.404 1750.89 814.795 1750.42 814.207C1750.05 813.832 1749.67 813.487 1749.3 813.126C1748.98 812.816 1748.68 812.489 1748.38 812.158C1748.02 811.794 1747.64 811.443 1747.29 811.07C1746.9 810.648 1746.53 810.205 1746.16 809.765C1745.73 809.319 1745.3 808.877 1744.89 808.422C1744.52 808.013 1744.16 807.586 1743.78 807.174C1743.7 807.083 1743.61 806.991 1743.52 806.902C1743.1 806.468 1742.88 805.901 1742.91 805.343C1742.67 805.1 1742.43 804.859 1742.19 804.621C1741.74 804.176 1741.18 803.663 1740.86 803.062C1740.72 802.91 1740.59 802.758 1740.45 802.606C1739.93 802.068 1739.39 801.538 1738.93 800.959C1738.66 800.619 1738.39 800.272 1738.2 799.882C1737.85 799.168 1738.02 798.269 1738.56 797.698C1739.04 797.188 1739.78 796.961 1740.46 797.127C1740.95 797.246 1741.32 797.532 1741.64 797.91C1742.13 798.49 1742.59 799.093 1743.11 799.648L1743.13 799.67C1743.47 800.017 1743.83 800.37 1744.1 800.769C1744.25 800.932 1744.4 801.095 1744.55 801.257C1745.31 801.982 1746.05 802.711 1746.74 803.494C1747.07 803.857 1747.4 804.22 1747.71 804.594C1748.03 804.975 1748.31 805.382 1748.64 805.756C1749.09 806.197 1749.58 806.611 1749.98 807.095C1750.28 807.457 1750.56 807.836 1750.87 808.191C1751.46 808.874 1752 809.599 1752.61 810.27C1753.25 810.927 1753.87 811.595 1754.44 812.324C1754.97 813.011 1755.8 813.713 1755.8 814.658C1755.8 814.736 1755.79 814.813 1755.79 814.889C1755.95 815.133 1756.1 815.378 1756.26 815.621C1756.64 815.428 1757.08 815.358 1757.5 815.419C1757.79 815.32 1758.09 815.296 1758.38 815.336C1758.26 814.883 1758.12 814.433 1757.97 813.983C1757.63 812.964 1758.26 811.822 1759.27 811.506C1760.31 811.182 1761.41 811.783 1761.74 812.802C1762.1 813.872 1762.36 814.946 1762.59 816.047C1762.61 816.144 1762.64 816.241 1762.68 816.336C1763.13 817.412 1763.65 818.452 1764.07 819.544C1764.48 820.598 1765.24 821.944 1764.41 822.99C1763.65 823.955 1762.35 824.038 1761.49 823.286C1761.44 823.294 1761.38 823.3 1761.32 823.303C1761.27 823.306 1761.21 823.306 1761.16 823.305C1761.17 823.356 1761.17 823.408 1761.17 823.461C1761.18 823.565 1761.17 823.669 1761.16 823.771C1761.31 824.119 1761.44 824.49 1761.48 824.846C1761.59 825.73 1761.2 826.594 1760.36 826.976C1760.1 827.098 1759.82 827.156 1759.55 827.156C1759.05 827.156 1758.56 826.97 1758.18 826.625Z" fill="#0C4470"/>
<path d="M312.731 826.977C311.897 826.595 311.5 825.73 311.612 824.846C311.654 824.49 311.779 824.119 311.935 823.771C311.922 823.669 311.917 823.566 311.92 823.461C311.923 823.408 311.928 823.356 311.935 823.305C311.881 823.306 311.826 823.306 311.77 823.303C311.713 823.3 311.656 823.294 311.6 823.287C310.746 824.039 309.44 823.955 308.683 822.99C307.857 821.945 308.617 820.598 309.022 819.544C310.086 817.374 310.747 815.133 311.349 812.802C311.689 811.784 312.781 811.182 313.827 811.506C315.649 812.141 315.244 813.913 314.714 815.336C315.003 815.296 315.3 815.32 315.592 815.419C316.012 815.358 316.453 815.429 316.83 815.621C316.991 815.378 317.149 815.133 317.308 814.889C317.165 813.845 318.076 813.062 318.658 812.324C319.809 810.906 321.106 809.632 322.228 808.191C324.611 805.358 327.28 802.546 329.792 799.855C330.77 798.991 331.317 797.526 332.632 797.127C334.172 796.707 335.619 798.451 334.89 799.882C333.574 801.871 331.811 803.617 330.187 805.343C330.249 806.651 328.922 807.468 328.206 808.422C325.987 811.031 323.33 813.243 321.303 816.003C319.61 818.492 317.98 821.032 316.603 823.709C315.74 825.168 314.938 827.931 312.731 826.977Z" fill="#0C4470"/>
<path d="M217.412 1804.52C204.411 1804.52 191.753 1799.3 182.542 1790.12C173.38 1781 167.893 1768.2 168.005 1755.22C168.263 1726.03 168.53 1696.84 168.792 1667.65C169.116 1631.55 169.441 1595.44 169.765 1559.34C170.089 1522.94 170.417 1486.53 170.745 1450.12C171.069 1413.66 171.397 1377.18 171.725 1340.72C172.049 1304.8 172.369 1268.88 172.693 1232.96C173.018 1196.6 173.346 1160.25 173.67 1123.9C173.99 1088.3 174.311 1052.7 174.627 1017.1C174.785 999.554 174.943 982.001 175.099 964.448C183.697 969.903 192.259 975.439 200.992 980.67C220.986 992.644 241.192 1004.23 261.421 1015.79C265.393 1018.08 269.377 1020.35 273.371 1022.6C273.215 1040.18 273.057 1057.75 272.898 1075.33C272.573 1111.17 272.253 1147.01 271.933 1182.85C271.605 1219.19 271.281 1255.54 270.953 1291.89C270.629 1327.98 270.304 1364.07 269.98 1400.16C269.656 1436.47 269.332 1472.79 269.004 1509.11C268.676 1545.89 268.344 1582.66 268.016 1619.44C267.708 1653.52 267.403 1687.6 267.098 1721.68C267.005 1732.24 266.909 1742.79 266.812 1753.35C266.808 1753.91 266.805 1754.47 266.797 1755.04C266.669 1768.13 261.672 1780.68 252.395 1789.99C243.198 1799.22 230.525 1804.5 217.497 1804.52C217.47 1804.52 217.439 1804.52 217.412 1804.52Z" fill="#0C4470"/>
<path d="M127.253 865.404C127.774 864.224 128.319 863.053 128.887 861.893C129.076 862.159 129.271 862.422 129.472 862.68C129.464 862.796 129.46 862.908 129.453 863.023C129.037 864.009 128.689 865.02 128.409 866.049C128.023 865.835 127.638 865.62 127.253 865.404Z" fill="#0C4470"/>
<path d="M152.233 1775.7C133.728 1757.19 123.448 1731.96 123.297 1705.84C123.216 1691.19 123.131 1676.53 123.05 1661.88C122.873 1630.45 122.691 1599.02 122.514 1567.6C122.325 1534.81 122.14 1502.03 121.951 1469.24C121.769 1436.78 121.584 1404.31 121.399 1371.84C121.213 1339.42 121.028 1306.99 120.843 1274.57C120.662 1242.3 120.477 1210.04 120.295 1177.78C120.121 1147.75 119.952 1117.71 119.782 1087.69C119.62 1059.18 119.458 1030.67 119.296 1002.16C119.165 979.564 119.038 956.972 118.908 934.374C121.885 935.787 124.869 937.189 127.84 938.627C134.558 942.143 141.254 945.709 147.968 949.232C156.318 953.619 164.489 958.356 172.729 962.949C182.126 968.887 191.457 974.96 200.992 980.672C220.985 992.646 241.191 1004.23 261.421 1015.79C275.834 1024.11 290.418 1032.13 305.001 1040.14C309.041 1042.36 313.086 1044.58 317.134 1046.78C317.296 1075.26 317.454 1103.73 317.616 1132.2C317.798 1163.37 317.971 1194.55 318.149 1225.73C318.33 1257.59 318.512 1289.45 318.693 1321.31C318.882 1354.08 319.064 1386.85 319.252 1419.62C319.446 1452.35 319.627 1485.08 319.812 1517.81C319.997 1550.17 320.182 1582.53 320.364 1614.9C320.507 1639.79 320.653 1664.7 320.789 1689.6C320.819 1695.01 320.85 1700.43 320.881 1705.84C321.032 1731.84 310.296 1757.35 291.946 1775.7C273.519 1794.13 248.15 1804.63 222.089 1804.63C196.025 1804.63 170.66 1794.12 152.233 1775.7Z" fill="#0C4470"/>
<path d="M80.0967 1516.55C43.4325 1479.87 22.5122 1429.39 22.5122 1377.52C22.5122 1325.65 43.4325 1275.18 80.0967 1238.5C116.776 1201.82 167.249 1180.92 219.12 1180.92C270.991 1180.92 321.463 1201.84 358.143 1238.5C394.807 1275.18 415.728 1325.65 415.728 1377.52C415.728 1429.39 394.807 1479.87 358.143 1516.55C321.463 1553.21 270.991 1574.13 219.12 1574.13C167.249 1574.13 116.776 1553.21 80.0967 1516.55Z" fill="#0C4470"/>
<path d="M23.2024 1803.53L216.2 1207.79L409.198 1803.53H23.2024Z" fill="#0C4470"/>
</g>
</g>
<defs>
<clipPath id="clip0_75_1520">
<rect width="2048" height="2048" fill="white"/>
</clipPath>
</defs>
</svg>
