<svg width="2048" height="2048" viewBox="0 0 2048 2048" fill="none" xmlns="http://www.w3.org/2000/svg">
<mask id="mask0_75_1520" style="mask-type:luminance" maskUnits="userSpaceOnUse" x="299" y="428" width="1450" height="1192">
<path d="M299 429H1748.87V1619.17H299V429Z" fill="white"/>
</mask>
<g mask="url(#mask0_75_1520)">
<path d="M1383.13 1377.03C1370.05 1363.97 1362.66 1346.07 1362.59 1327.6C1362.58 1325.11 1362.57 1322.62 1362.56 1320.13C1362.51 1306.21 1362.46 1292.28 1362.41 1278.35C1362.36 1264.24 1362.31 1250.12 1362.25 1236C1362.2 1221.48 1362.14 1206.97 1362.09 1192.45C1362.04 1178.28 1361.99 1164.1 1361.93 1149.92C1361.88 1135.99 1361.83 1122.07 1361.78 1108.15C1361.73 1094.36 1361.68 1080.58 1361.63 1066.8C1361.57 1053.52 1361.63 1040.23 1361.48 1026.95C1361.26 1008.58 1368.98 990.432 1381.9 977.475C1394.93 964.414 1412.88 956.956 1431.33 956.934C1449.78 956.912 1467.75 964.329 1480.8 977.36C1493.91 990.434 1501.24 1008.3 1501.35 1026.79C1501.36 1029.79 1501.37 1032.8 1501.38 1035.8C1501.43 1050 1501.48 1064.19 1501.54 1078.38C1501.59 1091.99 1501.64 1105.59 1501.69 1119.2C1501.74 1133.3 1501.79 1147.4 1501.85 1161.5C1501.9 1175.75 1501.95 1190 1502 1204.25C1502.06 1218.71 1502.11 1233.16 1502.16 1247.62C1502.22 1261.62 1502.27 1275.62 1502.32 1289.62C1502.37 1302.23 1502.41 1314.83 1502.46 1327.44C1502.53 1345.87 1495.04 1363.88 1482.03 1376.91C1469.01 1389.97 1451.06 1397.43 1432.61 1397.45C1432.58 1397.45 1432.55 1397.45 1432.53 1397.45C1414.11 1397.45 1396.17 1390.04 1383.13 1377.03Z" fill="#381E72"/>
<path d="M633.12 1397.45C620.154 1397.44 607.443 1393.75 596.508 1387.03C621.042 1355.5 634.74 1316.19 634.74 1275.97C634.74 1228.34 615.529 1182 581.862 1148.32C576.24 1142.7 570.263 1137.48 563.988 1132.69C564.005 1128.19 564.021 1123.7 564.037 1119.2C564.063 1112.43 564.088 1105.66 564.113 1098.89C564.124 1098.89 564.135 1098.89 564.146 1098.88V1089.99C564.161 1086.12 564.175 1082.25 564.19 1078.38C564.242 1064.19 564.297 1050 564.346 1035.81C564.357 1032.8 564.362 1029.79 564.381 1026.79C564.491 1008.3 571.815 990.435 584.922 977.36C597.98 964.329 615.947 956.912 634.395 956.934C652.846 956.956 670.794 964.414 683.825 977.475C696.749 990.432 704.47 1008.58 704.251 1026.95C704.093 1040.23 704.153 1053.52 704.101 1066.8C704.052 1080.58 704 1094.36 703.948 1108.15C703.896 1122.07 703.847 1135.99 703.795 1149.92C703.74 1164.1 703.688 1178.28 703.636 1192.45C703.582 1206.97 703.53 1221.48 703.475 1236C703.421 1250.12 703.372 1264.24 703.319 1278.35C703.268 1292.28 703.216 1306.21 703.164 1320.13C703.156 1322.62 703.145 1325.11 703.137 1327.6C703.065 1346.07 695.681 1363.97 682.596 1377.03C669.557 1390.04 651.622 1397.45 633.202 1397.45C633.174 1397.45 633.15 1397.45 633.12 1397.45Z" fill="#381E72"/>
<path d="M1032.86 1618.56C1014.86 1618.67 996.872 1618.15 978.989 1615.92C968.57 1614.62 958.181 1613.23 947.887 1611.15C947.161 1611.01 946.439 1610.85 945.718 1610.68C933.824 1608.75 921.987 1606.5 910.202 1603.84C889.666 1599.19 869.281 1593.66 849.235 1587.21C828.91 1580.68 808.979 1572.99 789.318 1564.67C772.271 1557.47 755.555 1549.46 739.285 1540.64C720.424 1530.42 701.935 1519.55 684.325 1507.29C667.574 1495.62 651.259 1483.14 636.248 1469.28C635.226 1468.34 634.213 1467.39 633.202 1466.43C632.634 1465.89 632.071 1465.35 631.506 1464.81C629.585 1462.96 627.675 1461.1 625.766 1459.24C625.343 1458.83 624.916 1458.41 624.493 1458C624.334 1457.85 624.179 1457.69 624.023 1457.54C624.02 1457.54 624.018 1457.54 624.018 1457.54C623.89 1457.41 623.761 1457.29 623.636 1457.16C623.169 1456.71 622.704 1456.25 622.242 1455.8C616.093 1449.74 610.2 1443.41 604.666 1436.78C597.265 1427.92 590.048 1418.77 583.754 1409.07C582.79 1407.59 581.835 1406.1 580.889 1404.59C581.215 1404.27 581.54 1403.95 581.863 1403.63C615.53 1369.95 634.74 1323.6 634.74 1275.97C634.74 1275.63 634.739 1275.29 634.737 1274.95C639.915 1275.44 645.053 1276.51 650.036 1278.16C658.575 1280.99 666.555 1285.46 673.404 1291.3C675.589 1293.42 677.772 1295.54 679.958 1297.66C684.175 1302.35 687.702 1307.52 690.532 1313.16C690.724 1313.61 690.915 1314.06 691.106 1314.51C692.991 1318.86 695.106 1323.11 697.395 1327.26C700.424 1332.09 703.673 1336.76 707.098 1341.32C712.117 1347.42 717.427 1353.27 722.965 1358.91C724.161 1359.99 725.32 1361.12 726.442 1362.28C735.045 1370.26 744.071 1377.77 753.4 1384.89C766.835 1394.66 780.828 1403.66 795.216 1411.97C795.719 1412.26 796.219 1412.55 796.724 1412.84C811.501 1420.97 826.64 1428.41 842.073 1435.22C846.4 1437.13 850.752 1438.98 855.123 1440.78C870.555 1446.87 886.211 1452.35 902.069 1457.21C908.642 1459.23 915.256 1461.13 921.897 1462.92C938.102 1467.03 954.469 1470.49 970.963 1473.22C972.089 1473.37 973.212 1473.56 974.329 1473.77C978.008 1474.35 981.697 1474.9 985.39 1475.41C1001.15 1477.3 1016.99 1478.52 1032.86 1478.84C1048.73 1478.52 1064.57 1477.31 1080.32 1475.41C1084.02 1474.9 1087.71 1474.35 1091.4 1473.77C1092.51 1473.56 1093.64 1473.37 1094.76 1473.22C1111.26 1470.49 1127.62 1467.03 1143.83 1462.92C1150.47 1461.13 1157.08 1459.23 1163.66 1457.21C1179.52 1452.35 1195.17 1446.87 1210.6 1440.78C1214.97 1438.98 1219.33 1437.13 1223.65 1435.22C1239.08 1428.41 1254.22 1420.97 1269 1412.84C1269.51 1412.55 1270.01 1412.26 1270.51 1411.97C1284.9 1403.66 1298.89 1394.66 1312.33 1384.89C1321.65 1377.77 1330.68 1370.26 1339.29 1362.28C1340.41 1361.12 1341.57 1359.99 1342.76 1358.91C1348.3 1353.27 1353.61 1347.42 1358.63 1341.32C1362.05 1336.76 1365.3 1332.09 1368.33 1327.26C1370.64 1323.08 1372.76 1318.8 1374.66 1314.41C1374.84 1313.99 1375.02 1313.57 1375.2 1313.16C1378.03 1307.52 1381.55 1302.35 1385.77 1297.66C1387.96 1295.54 1390.14 1293.42 1392.32 1291.3C1399.17 1285.46 1407.15 1280.99 1415.69 1278.16C1433.2 1272.35 1452.59 1273.76 1469.08 1282.04C1485.56 1290.32 1498.27 1305.03 1504.08 1322.54C1506.91 1331.08 1508.08 1340.15 1507.5 1349.13C1507.09 1355.3 1505.88 1361.31 1503.88 1367.16C1502.1 1371.39 1500.37 1375.7 1498.45 1379.88C1493.79 1390.02 1488.04 1399.73 1481.97 1409.07C1475.68 1418.77 1468.46 1427.92 1461.06 1436.78C1455.53 1443.41 1449.63 1449.74 1443.49 1455.8C1443.02 1456.25 1442.56 1456.71 1442.09 1457.16C1441.96 1457.29 1441.84 1457.41 1441.71 1457.54L1441.7 1457.54C1441.55 1457.69 1441.39 1457.85 1441.23 1458C1440.81 1458.41 1440.38 1458.83 1439.96 1459.24C1438.05 1461.1 1436.14 1462.96 1434.22 1464.81C1433.66 1465.35 1433.09 1465.89 1432.52 1466.43C1431.51 1467.39 1430.5 1468.34 1429.48 1469.28C1414.47 1483.14 1398.15 1495.62 1381.4 1507.29C1363.79 1519.55 1345.3 1530.42 1326.44 1540.64C1310.17 1549.46 1293.46 1557.47 1276.41 1564.67C1256.75 1572.99 1236.82 1580.68 1216.49 1587.21C1196.45 1593.66 1176.06 1599.19 1155.53 1603.84C1143.74 1606.5 1131.9 1608.75 1120.01 1610.68C1119.29 1610.85 1118.56 1611.01 1117.84 1611.15C1107.55 1613.23 1097.16 1614.62 1086.74 1615.92C1070.26 1617.98 1053.69 1618.58 1037.11 1618.58C1035.69 1618.58 1034.28 1618.57 1032.86 1618.56Z" fill="#381E72"/>
<path d="M1499.83 1376.78C1501.2 1373.58 1502.53 1370.37 1503.88 1367.17C1502.65 1370.09 1501.42 1373.01 1500.19 1375.93L1500.19 1375.93C1457.3 1357.93 1414.4 1339.93 1371.51 1321.93C1371.5 1321.94 1371.49 1321.96 1371.49 1321.98C1372.72 1319.05 1373.95 1316.13 1375.18 1313.21C1372.51 1319.53 1369.36 1325.64 1365.89 1331.55C1367.49 1328.82 1369.1 1326.09 1370.71 1323.36C1366.2 1330.96 1361.14 1338.21 1355.67 1345.16C1357.59 1342.73 1359.5 1340.29 1361.42 1337.86C1354.22 1346.96 1346.36 1355.51 1338.05 1363.61C1340.23 1361.48 1342.42 1359.36 1344.6 1357.24C1342.29 1359.48 1339.98 1361.73 1337.67 1363.97C1339.85 1361.85 1342.04 1359.73 1344.22 1357.61C1333.09 1368.38 1321.17 1378.31 1308.76 1387.58C1311.18 1385.78 1313.59 1383.98 1316.01 1382.18C1301.45 1393.01 1286.22 1402.91 1270.51 1411.98C1268.74 1413 1266.95 1414.01 1265.17 1415.02C1267.78 1413.56 1270.39 1412.09 1272.99 1410.63C1256.96 1419.62 1240.48 1427.8 1223.65 1435.22C1218.02 1437.7 1212.35 1440.09 1206.65 1442.4C1209.41 1441.28 1212.18 1440.17 1214.94 1439.05C1198.11 1445.83 1181.01 1451.89 1163.66 1457.22C1155.63 1459.68 1147.54 1461.96 1139.42 1464.1C1142.3 1463.34 1145.19 1462.58 1148.08 1461.83C1130.11 1466.52 1111.94 1470.41 1093.61 1473.41C1087.62 1474.39 1081.6 1475.26 1075.58 1476.04C1078.54 1475.66 1081.51 1475.28 1084.48 1474.89C1066.75 1477.16 1048.9 1478.59 1031.03 1478.88C1028.56 1478.92 1026.09 1478.94 1023.62 1478.94C1026.63 1478.94 1029.65 1478.95 1032.66 1478.95C1016.96 1478.93 1001.26 1478.05 985.688 1476C988.707 1476.4 991.726 1476.8 994.746 1477.2C988.189 1476.33 981.665 1475.25 975.183 1473.94C957.45 1470.35 938.565 1474.07 923.41 1483.9C907.716 1494.09 896.586 1510.55 892.927 1528.9C889.384 1546.66 893.037 1565.48 902.893 1580.67C913.099 1596.4 929.531 1607.44 947.888 1611.15C958.181 1613.24 968.571 1614.62 978.989 1615.92C998.608 1618.37 1018.36 1618.75 1038.11 1618.52C1056 1618.31 1073.87 1616.94 1091.61 1614.73C1113.1 1612.04 1134.4 1608.62 1155.52 1603.84C1176.06 1599.19 1196.45 1593.66 1216.49 1587.21C1236.82 1580.68 1256.75 1572.99 1276.41 1564.68C1293.46 1557.47 1310.17 1549.46 1326.44 1540.64C1345.3 1530.42 1363.79 1519.55 1381.4 1507.29C1398.15 1495.62 1414.47 1483.14 1429.48 1469.28C1430.5 1468.34 1431.52 1467.39 1432.52 1466.43C1433.09 1465.9 1433.66 1465.35 1434.22 1464.81C1436.73 1462.4 1439.21 1459.97 1441.7 1457.54C1443.62 1455.11 1445.53 1452.68 1447.45 1450.24C1451.05 1444.97 1453.89 1439.32 1455.97 1433.28C1459.92 1421.76 1460.77 1409.28 1458.43 1397.32C1454.94 1379.43 1444.41 1363.3 1429.36 1353C1413.99 1342.47 1394.72 1338.45 1376.43 1342.01C1358.54 1345.5 1342.42 1356.04 1332.11 1371.09C1319.84 1389.01 1316.56 1412.05 1323.4 1432.67C1329.2 1450.18 1341.91 1464.89 1358.4 1473.16C1374.89 1481.44 1394.27 1482.85 1411.78 1477.05C1414.55 1475.93 1417.31 1474.82 1420.08 1473.7C1425.53 1471.09 1430.55 1467.82 1435.15 1463.91C1437.47 1461.66 1439.78 1459.42 1442.09 1457.16C1442.56 1456.71 1443.02 1456.25 1443.49 1455.8C1449.63 1449.74 1455.53 1443.41 1461.06 1436.78C1468.46 1427.92 1475.68 1418.77 1481.97 1409.08C1488.04 1399.73 1493.8 1390.03 1498.45 1379.89C1500.37 1375.7 1502.1 1371.39 1503.88 1367.16C1505.88 1361.31 1507.09 1355.3 1507.5 1349.13C1508.08 1340.15 1506.91 1331.08 1504.08 1322.54C1498.27 1305.03 1485.56 1290.32 1469.08 1282.05C1452.59 1273.77 1433.2 1272.36 1415.69 1278.16C1407.15 1280.99 1399.17 1285.47 1392.32 1291.3C1390.14 1293.42 1387.95 1295.54 1385.77 1297.67C1381.55 1302.36 1378.03 1307.52 1375.19 1313.16C1373.94 1316.08 1372.69 1319.11 1371.44 1322.09C1372.67 1319.17 1373.9 1316.25 1375.13 1313.32C1375.03 1313.55 1374.93 1313.78 1374.84 1314.01C1373.61 1316.93 1372.38 1319.85 1371.15 1322.78C1369.14 1328.63 1367.94 1334.63 1367.53 1340.8C1366.94 1349.78 1368.12 1358.85 1370.95 1367.39C1376.75 1384.91 1389.46 1399.61 1405.95 1407.89C1422.44 1416.17 1441.83 1417.58 1459.34 1411.78C1467.88 1408.95 1475.85 1404.47 1482.71 1398.64C1484.89 1396.51 1487.07 1394.39 1489.26 1392.27C1493.48 1387.58 1497 1382.41 1499.83 1376.78Z" fill="#381E72"/>
<path d="M1292.55 745.435C1286.71 739.589 1283.24 731.658 1282.91 723.425C1282.81 722.774 1282.71 722.122 1282.64 721.469C1282.53 720.406 1282.45 719.343 1282.38 718.278C1281.56 715.669 1280.81 713.044 1280.03 710.416C1279.77 709.785 1279.5 709.159 1279.21 708.539C1279.09 708.339 1278.97 708.14 1278.85 707.943C1277.06 705.534 1275.16 703.217 1273.45 700.756C1271.24 697.593 1269.03 694.44 1267.39 692.036C1266.21 690.348 1265 688.722 1263.65 687.168C1262.15 685.447 1260.93 683.485 1259.7 681.537C1259.51 681.283 1259.32 681.035 1259.12 680.783C1258.55 680.152 1257.98 679.519 1257.42 678.882C1256.38 677.748 1255.28 676.691 1254.16 675.65C1253.4 675.003 1252.63 674.358 1251.85 673.741C1249.81 672.451 1247.79 671.129 1245.89 669.627C1245.25 669.121 1244.6 668.624 1243.95 668.138C1241.92 666.906 1239.85 665.764 1237.83 664.524C1235.14 662.874 1232.58 661.068 1229.8 659.565C1228.18 658.746 1226.57 657.921 1224.96 657.09C1222.63 656.085 1220.26 655.227 1217.92 654.271C1215.83 653.421 1213.8 652.446 1211.73 651.55C1211.47 651.476 1211.22 651.403 1210.96 651.332C1207.6 650.395 1204.31 649.206 1201.1 647.84C1199.49 647.16 1197.87 646.529 1196.24 645.928C1190.06 643.849 1183.87 641.746 1177.73 639.544C1173.55 638.159 1169.34 636.88 1165.29 635.145C1161.8 633.651 1158.34 632.135 1156.37 631.329C1152.86 630.108 1149.39 628.851 1145.98 627.379C1143.04 626.109 1140.11 624.871 1137.13 623.71C1134.17 622.552 1131.3 621.164 1128.41 619.831C1125.57 618.514 1122.64 617.378 1119.78 616.086C1115.31 614.064 1110.96 611.745 1106.62 609.453C1103.42 607.767 1100.16 606.215 1096.99 604.489C1090.19 600.801 1083.68 596.353 1077.42 591.813C1074.36 589.882 1071.26 588.046 1068.3 585.948C1065.74 584.131 1063.3 582.137 1062.31 581.462C1059.38 579.479 1056.5 577.479 1053.77 575.223C1050.62 572.63 1047.47 570.068 1044.47 567.303C1040.85 563.962 1037.31 560.545 1033.68 557.209C1033.41 556.977 1033.14 556.745 1032.86 556.512C1032.6 556.742 1032.33 556.971 1032.05 557.201C1028.43 560.539 1024.88 563.959 1021.26 567.303C1018.26 570.068 1015.1 572.63 1011.96 575.223C1009.3 577.416 1006.51 579.367 1005.03 580.378C1002.43 582.137 999.991 584.131 997.426 585.948C994.467 588.046 991.367 589.882 988.313 591.813C982.054 596.353 975.533 600.801 968.745 604.489C965.568 606.215 962.306 607.767 959.109 609.453C954.763 611.745 950.422 614.064 945.947 616.086C943.087 617.378 940.161 618.514 937.315 619.831C934.43 621.164 931.564 622.552 928.603 623.71C925.623 624.871 922.691 626.109 919.755 627.379C916.34 628.851 912.865 630.108 910.931 630.786C907.385 632.135 903.926 633.651 900.438 635.145C896.389 636.88 892.18 638.159 888.003 639.544C881.853 641.746 875.674 643.849 869.486 645.928C867.855 646.529 866.238 647.16 864.632 647.84C861.419 649.206 858.133 650.395 854.767 651.332C854.51 651.403 854.256 651.476 854.002 651.55C851.931 652.446 849.899 653.421 847.815 654.271C845.468 655.227 843.1 656.085 840.775 657.09C839.16 657.921 837.543 658.746 835.923 659.565C833.147 661.068 830.591 662.874 827.902 664.524C825.878 665.764 823.807 666.906 821.783 668.138C821.13 668.624 820.483 669.121 819.844 669.627C817.937 671.129 815.921 672.451 813.88 673.741C813.101 674.358 812.331 675.003 811.571 675.65C810.446 676.691 809.345 677.748 808.31 678.882C807.747 679.519 807.179 680.152 806.608 680.783C806.414 681.035 806.223 681.283 806.031 681.537C804.805 683.485 803.581 685.447 802.081 687.168C800.726 688.722 799.519 690.348 798.863 691.255C796.694 694.44 794.487 697.593 792.285 700.756C790.569 703.217 788.665 705.534 786.879 707.943C786.756 708.14 786.635 708.339 786.515 708.539C786.234 709.159 785.958 709.785 785.698 710.416C784.922 713.044 784.171 715.669 783.349 718.278C783.283 719.343 783.204 720.406 783.089 721.469C783.016 722.122 782.92 722.774 782.822 723.425C782.486 731.658 779.024 739.589 773.184 745.435C767.026 751.587 758.552 755.1 749.851 755.1C736.725 755.1 724.541 747.028 719.427 734.934C716.878 728.905 716.291 722.157 717.247 715.71C717.367 714.893 717.487 714.076 717.594 713.26C717.646 711.448 717.725 709.634 718.075 707.867C718.457 705.927 718.741 703.925 719.32 702.023C719.632 700.991 719.981 699.969 720.342 698.956C721.145 696.358 721.798 693.713 722.582 691.112C723.44 688.271 724.503 685.466 725.77 682.775C727.01 680.131 728.174 677.437 729.704 674.937C732.108 670.998 734.804 667.247 737.684 663.644C739.596 661.256 741.333 658.691 743.087 656.175C744.469 654.088 745.852 651.998 747.319 649.968C748.338 648.562 749.48 647.269 750.529 645.895C751.679 644.131 752.851 642.377 754.148 640.716C755.692 638.743 757.402 636.913 759.093 635.066C760.366 633.561 761.647 632.05 763.073 630.695C765.057 628.81 767.094 626.98 769.171 625.193C770.285 624.232 771.441 623.322 772.588 622.399C773.129 621.967 773.64 621.489 774.162 621.033C775.626 619.746 777.273 618.815 778.915 617.856C779.456 617.435 779.989 617.003 780.527 616.58C782.447 615.064 784.534 613.703 786.564 612.362C788.624 610.993 790.766 609.786 792.902 608.543C794.861 607.404 796.751 606.174 798.631 604.912C801.19 603.194 803.974 601.847 806.741 600.498C808.058 599.818 809.37 599.126 810.686 598.449C814.134 596.679 817.549 595.206 821.163 593.854C823.313 593.045 825.381 592.029 827.468 591.076C830.719 589.592 834.131 588.655 837.527 587.636C839.264 586.94 840.98 586.185 842.717 585.497C845.834 584.265 849.049 583.257 852.229 582.192C855.1 581.23 857.966 580.252 860.829 579.269C864.64 577.908 868.448 576.561 872.297 575.316C874.592 574.403 876.838 573.39 879.122 572.431C882.744 570.906 886.421 569.576 888.079 568.994C891.081 567.861 894.007 566.593 896.938 565.292C899.965 563.943 903.104 562.82 906.164 561.545C909.21 560.274 912.147 558.747 915.184 557.452C917.684 556.389 920.165 555.31 922.618 554.152C926.718 552.054 930.849 549.997 934.895 547.798C938.714 545.724 942.391 543.381 946.019 540.979C948.843 538.977 951.674 536.994 954.567 535.081C955.962 534.155 957.416 533.314 958.85 532.44C959.809 531.735 960.757 531.022 961.707 530.303C963.513 528.935 965.385 527.656 967.264 526.391C970.083 524.413 972.744 522.162 975.372 519.92C977.844 517.658 980.341 515.415 982.748 513.085C985.767 510.167 988.917 507.408 992.088 504.668C993.175 503.652 994.241 502.619 995.282 501.559C995.836 500.846 996.369 500.119 996.885 499.371C997.317 498.742 997.773 498.133 998.235 497.527C998.412 497.193 998.598 496.863 998.795 496.538C999.437 495.462 1000.05 494.549 1000.67 493.705C1002.17 491.014 1003.92 488.539 1006.17 486.288C1009.17 483.286 1012.75 480.871 1016.66 479.215C1021.77 477.054 1027.38 476.251 1032.86 476.803C1038.35 476.251 1043.96 477.054 1049.07 479.215C1052.98 480.871 1056.56 483.286 1059.56 486.288C1061.81 488.539 1063.55 491.014 1065.06 493.705C1065.68 494.549 1066.29 495.462 1066.93 496.538C1067.13 496.863 1067.31 497.193 1067.49 497.527C1067.95 498.133 1068.41 498.742 1068.84 499.371C1069.36 500.119 1069.89 500.846 1070.45 501.559C1071.49 502.619 1072.55 503.652 1073.64 504.668C1076.81 507.408 1079.96 510.167 1082.98 513.085C1085.39 515.415 1087.89 517.658 1090.36 519.92C1092.99 522.162 1095.65 524.413 1098.47 526.391C1100.35 527.656 1102.22 528.935 1104.02 530.303C1104.97 531.022 1105.92 531.735 1106.88 532.44C1108.31 533.314 1109.77 534.155 1111.17 535.081C1114.06 536.994 1116.89 538.977 1119.71 540.979C1123.34 543.381 1127.02 545.724 1130.83 547.798C1134.89 550 1139.02 552.06 1143.13 554.16C1145.58 555.319 1148.05 556.392 1150.55 557.452C1153.58 558.747 1156.52 560.274 1159.57 561.545C1162.63 562.82 1165.76 563.943 1168.79 565.292C1171.72 566.593 1174.65 567.861 1175.6 568.281C1179.31 569.576 1182.99 570.906 1186.61 572.431C1188.89 573.39 1191.14 574.403 1193.43 575.316C1197.28 576.561 1201.09 577.908 1204.9 579.269C1207.76 580.252 1210.63 581.23 1213.5 582.192C1216.68 583.257 1219.9 584.265 1223.02 585.497C1224.75 586.185 1226.47 586.94 1228.2 587.636C1231.6 588.655 1235.01 589.592 1238.26 591.076C1240.35 592.029 1242.42 593.045 1244.57 593.854C1248.18 595.206 1251.59 596.679 1255.04 598.449C1256.36 599.124 1257.66 599.812 1258.97 600.492C1261.75 601.842 1264.53 603.191 1267.1 604.912C1268.98 606.174 1270.87 607.404 1272.83 608.543C1274.96 609.786 1277.11 610.993 1279.17 612.362C1281.2 613.703 1283.28 615.064 1285.2 616.58C1285.74 617.003 1286.27 617.435 1286.81 617.856C1288.46 618.815 1290.1 619.746 1291.57 621.033C1292.09 621.489 1292.6 621.967 1293.14 622.399C1294.29 623.322 1295.44 624.232 1296.56 625.193C1298.64 626.98 1300.67 628.81 1302.66 630.695C1304.08 632.05 1305.36 633.561 1306.64 635.066C1308.33 636.913 1310.04 638.743 1311.58 640.716C1312.88 642.371 1314.05 644.122 1315.2 645.884C1316.24 647.264 1317.39 648.559 1318.41 649.968C1319.88 651.998 1321.26 654.088 1322.64 656.175C1324.4 658.691 1326.13 661.256 1328.04 663.644C1330.93 667.247 1333.62 670.998 1336.03 674.937C1337.56 677.437 1338.72 680.131 1339.96 682.775C1341.22 685.466 1342.29 688.271 1343.15 691.112C1343.93 693.713 1344.58 696.358 1345.39 698.956C1345.75 699.969 1346.1 700.991 1346.41 702.023C1346.99 703.925 1347.27 705.927 1347.66 707.867C1348.01 709.634 1348.08 711.448 1348.14 713.26C1348.24 714.076 1348.36 714.893 1348.48 715.71C1349.44 722.157 1348.85 728.905 1346.3 734.934C1341.19 747.028 1329 755.1 1315.88 755.1C1307.18 755.1 1298.7 751.587 1292.55 745.435Z" fill="#381E72"/>
<path d="M1283.16 720.662C1283.14 720.614 1283.13 720.566 1283.11 720.519C1283.06 720.938 1283 721.358 1282.94 721.777C1283.03 723.031 1283.11 724.286 1283.2 725.539C1283.05 724.178 1282.79 722.831 1282.64 721.468C1282.53 720.406 1282.45 719.341 1282.38 718.276C1281.56 715.664 1280.81 713.038 1280.03 710.405C1279.77 709.778 1279.5 709.157 1279.21 708.539C1279.1 708.342 1278.98 708.146 1278.86 707.951C1277.07 705.54 1275.16 703.221 1273.45 700.756C1271.19 697.523 1268.94 694.297 1266.72 691.04C1266.94 691.372 1267.17 691.704 1267.39 692.036C1266.21 690.347 1265 688.724 1263.65 687.17C1262.15 685.446 1260.92 683.483 1259.7 681.537C1259.5 681.279 1259.31 681.023 1259.11 680.769C1258.56 680.166 1258.02 679.559 1257.48 678.95C1256.42 677.783 1255.29 676.696 1254.13 675.63C1253.38 674.984 1252.61 674.345 1251.84 673.731C1249.8 672.444 1247.79 671.123 1245.89 669.624C1245.25 669.119 1244.6 668.625 1243.95 668.139C1241.92 666.907 1239.85 665.765 1237.83 664.523C1235.15 662.88 1232.6 661.081 1229.83 659.581C1228.21 658.757 1226.58 657.926 1224.96 657.092C1222.63 656.088 1220.26 655.228 1217.92 654.271C1216.01 653.495 1214.16 652.616 1212.27 651.79C1206.55 650.053 1201.03 647.792 1195.45 645.659C1189.52 643.665 1183.6 641.646 1177.72 639.542C1173.55 638.158 1169.34 636.878 1165.29 635.145C1161.8 633.653 1158.34 632.135 1154.8 630.785C1156.15 631.255 1157.51 631.728 1158.87 632.2C1130.52 621.585 1102.05 609.602 1077.4 591.798C1074.35 589.873 1071.25 588.04 1068.3 585.948C1066.28 584.517 1064.34 582.974 1062.33 581.523C1052 574.622 1043.05 565.987 1034 557.526C1025.37 550.408 1017.5 542.226 1011.68 532.68C997.509 515.26 1001.39 488.753 1023.38 479.215C1038.86 472.31 1057.95 479.632 1065.56 494.402C1066.01 495.051 1066.46 495.75 1066.94 496.537C1067.13 496.863 1067.32 497.194 1067.5 497.528C1067.96 498.133 1068.41 498.742 1068.85 499.368C1069.37 500.122 1069.9 500.853 1070.46 501.569C1071.51 502.634 1072.58 503.673 1073.67 504.695C1076.83 507.426 1079.97 510.175 1082.98 513.084C1085.39 515.415 1087.89 517.659 1090.36 519.924C1092.99 522.164 1095.64 524.409 1098.46 526.386C1100.34 527.652 1102.21 528.933 1104.02 530.303C1104.97 531.023 1105.93 531.739 1106.89 532.444C1108.32 533.316 1109.77 534.155 1111.16 535.078C1114.05 536.988 1116.87 538.967 1119.69 540.965C1123.33 543.37 1127.01 545.72 1130.83 547.797C1134.73 549.915 1138.71 551.904 1142.66 553.923C1154.18 559.273 1165.88 564.211 1177.65 568.994C1176.29 568.521 1174.94 568.049 1173.58 567.579C1177.97 569.1 1182.33 570.628 1186.61 572.431C1188.89 573.388 1191.13 574.4 1193.42 575.309C1197.09 576.498 1200.73 577.782 1204.38 579.083C1212.57 581.87 1220.81 584.544 1228.83 587.812C1238.83 590.92 1248.47 595.187 1257.83 599.908C1263.12 602.285 1267.93 605.475 1272.83 608.543C1277.91 611.341 1282.69 614.63 1287.29 618.166C1294.41 622.708 1300.83 628.506 1306.43 634.843C1308.19 636.765 1309.98 638.661 1311.58 640.715C1312.88 642.372 1314.05 644.124 1315.2 645.887C1316.25 647.267 1317.39 648.561 1318.41 649.968C1319.78 651.865 1321.08 653.814 1322.37 655.766C1334.63 672.443 1340.37 679.028 1345.73 699.871C1347.01 703.806 1347.82 707.873 1348.1 711.999C1352.81 733.483 1338.86 754.949 1315.88 755.097C1293.4 754.298 1282.49 737.239 1283.16 720.662ZM1283.86 714.924C1284.01 714.215 1284.18 713.51 1284.37 712.813C1284.27 712.978 1284.18 713.143 1284.08 713.308C1284.01 713.846 1283.94 714.385 1283.86 714.924ZM1307.11 690.279C1307.11 690.279 1307.11 690.279 1307.12 690.279C1307.04 690.323 1306.97 690.366 1306.89 690.41C1307.17 690.335 1307.45 690.265 1307.73 690.196C1307.52 690.224 1307.32 690.251 1307.11 690.279Z" fill="#381E72"/>
<path d="M1668.44 920.656C1662.08 919.855 1655.93 917.826 1650.11 915.181C1646.64 913.599 1643.12 912.157 1639.6 910.69C1635.72 909.07 1632.02 907.1 1628.3 905.161C1625.51 903.871 1622.65 902.748 1619.89 901.396C1615.4 899.192 1611.01 896.894 1606.76 894.255C1603.66 892.33 1600.66 890.242 1597.59 888.259C1594.21 886.071 1590.82 883.915 1588.56 882.416C1588.16 882.148 1587.76 881.88 1587.36 881.61C1586.72 881.181 1586.07 880.746 1585.43 880.309C1585.28 880.203 1585.12 880.099 1584.96 879.992C1581.72 877.903 1578.31 876.102 1575.1 873.961C1572.37 872.136 1569.49 870.33 1566.96 868.207C1564.74 866.347 1562.61 864.413 1560.49 862.454C1560.18 862.197 1559.87 861.943 1559.56 861.692C1553.6 856.917 1547.96 851.781 1541.97 847.06C1535.66 842.088 1529.8 836.576 1523.82 831.207C1520.63 828.53 1517.49 825.796 1514.23 823.195C1510.5 820.206 1506.93 817.04 1503.38 813.844C1501.39 812.226 1499.35 810.697 1497.26 809.23C1494.99 807.705 1492.73 806.156 1490.48 804.605C1486.66 802.127 1482.78 799.756 1478.87 797.436C1475.05 795.169 1471.25 792.877 1467.34 790.784C1461.5 788.077 1455.54 785.654 1449.61 783.168C1443.32 780.537 1437.02 777.939 1430.63 775.595C1427.02 774.355 1423.41 773.115 1419.82 771.831C1416.82 770.76 1413.87 769.531 1410.89 768.395C1405.15 766.466 1399.37 764.635 1393.52 763.037C1387.97 761.521 1382.35 760.305 1376.72 759.103C1370.53 758.035 1364.32 757.322 1358.06 756.721C1351.43 756.085 1344.81 755.257 1338.18 754.719C1336.9 754.634 1335.62 754.547 1334.35 754.459C1329.19 754.131 1324.03 753.831 1318.87 753.443C1318.76 753.441 1318.64 753.438 1318.53 753.438C1309.77 753.277 1301.44 750.01 1295.2 743.773C1289.04 737.615 1285.53 729.144 1285.53 720.437C1285.53 711.734 1289.04 703.26 1295.2 697.105C1301.27 691.032 1309.89 687.284 1318.53 687.44C1321.55 687.494 1324.55 687.825 1327.56 688.09C1331.72 688.33 1335.88 688.571 1340.05 688.847C1343.37 689.043 1346.71 689.177 1350.01 689.557C1357.95 690.467 1365.91 691.172 1373.86 691.999C1382.73 692.925 1391.41 694.868 1400.11 696.769C1407.76 698.435 1415.27 700.484 1422.72 702.896C1427.96 704.593 1433.18 706.308 1438.34 708.242C1441.58 709.453 1444.77 710.734 1448.01 711.911C1454.96 714.318 1461.85 716.845 1468.66 719.624C1474.95 722.191 1481.24 724.767 1487.47 727.483C1492.4 729.636 1497.25 731.949 1502 734.496C1505.37 736.307 1508.64 738.345 1511.93 740.301C1515.06 742.161 1518.18 744.057 1521.27 745.999C1524.95 748.324 1528.52 750.807 1532.11 753.271C1535.44 755.465 1538.8 757.67 1541.92 760.15C1544.89 762.513 1547.68 765.07 1550.48 767.622C1554.74 771.233 1559.09 774.738 1563.38 778.317C1568.65 782.72 1573.7 787.4 1578.8 792.001C1580.93 793.771 1583.14 795.454 1585.28 797.21C1587.65 799.147 1589.95 801.141 1592.27 803.13C1594.69 805.198 1597.13 807.236 1599.61 809.228C1602.27 811.358 1604.78 813.65 1607.29 815.943C1608.15 816.631 1609.02 817.292 1609.91 817.937C1611.42 818.874 1612.96 819.748 1614.49 820.66C1617.71 822.581 1620.8 824.679 1622.7 826.001C1623.56 826.58 1624.42 827.162 1625.27 827.741C1629.09 830.205 1632.93 832.639 1636.73 835.142C1639.85 837.199 1643.06 839.133 1646.34 840.919C1648.56 841.925 1650.8 842.84 1653.01 843.873C1656.04 845.29 1658.98 846.864 1661.94 848.405C1664.89 849.743 1667.9 850.934 1670.9 852.177C1672.95 853.024 1674.94 853.978 1676.97 854.871C1678.53 854.642 1680.11 854.524 1681.7 854.524C1690.4 854.524 1698.87 858.035 1705.03 864.189C1705.17 864.334 1705.32 864.479 1705.46 864.626C1715.85 874.958 1717.8 892.081 1710.43 904.653C1706.2 911.884 1698.9 917.922 1690.66 919.88C1687.11 920.724 1684.44 921.019 1680.78 921.161C1679.92 921.194 1679.05 921.188 1678.19 921.194C1678.04 921.194 1677.89 921.197 1677.74 921.197C1674.63 921.197 1671.53 921.041 1668.44 920.656Z" fill="#381E72"/>
<path d="M387.541 921.195C363.204 922.293 351.265 905.123 351.252 887.951C351.238 870.238 363.914 852.522 388.762 854.868C399.168 850.623 409.139 845.515 419.386 840.92C430.404 834.82 440.553 827.293 451.237 820.66C464.183 812.621 474.681 801.09 486.928 792.001C519.259 761.817 555.065 734.714 597.067 719.624C619.589 711.103 642.039 701.962 665.615 696.769C682.047 692.608 698.907 691.284 715.716 689.557C726.196 688.699 736.71 688.175 747.201 687.44C764.889 686.992 780.548 702.787 780.199 720.438C780.51 738.241 764.944 753.643 747.201 753.438C733.995 754.201 720.814 755.206 707.671 756.722C675.681 759.134 645.609 771.353 616.122 783.169C588.077 793.509 564.078 811.552 541.909 831.208C528.05 844.157 512.902 855.57 498.773 868.208C485.961 877.532 472.056 885.287 458.97 894.256C448.502 900.646 437.124 905.301 426.131 910.688C414.561 915.753 402.801 921.261 389.976 921.262C389.168 921.262 388.358 921.24 387.541 921.195Z" fill="#381E72"/>
<path d="M519.841 988.706C513.309 983.013 506.57 977.662 499.521 972.63C494.533 969.278 489.547 965.92 484.74 962.303C480.721 959.282 476.752 956.225 472.654 953.324C469.744 951.589 466.786 949.936 463.849 948.248C459.902 945.983 456.156 943.388 452.411 940.798C449.958 939.197 447.474 937.681 444.912 936.247C437.397 932.679 429.729 929.445 421.913 926.59C418.596 925.511 415.264 924.514 411.895 923.593C408.838 922.757 405.779 921.856 402.7 921.066C401.197 920.872 399.689 920.714 398.195 920.452C396.78 920.206 395.365 919.952 393.939 919.758C392.909 919.749 391.882 919.76 390.852 919.76C389.571 919.76 388.27 919.703 386.984 919.741C386.295 919.779 385.604 919.818 384.913 919.84C376.332 920.14 367.577 916.171 361.58 910.174C355.423 904.022 351.915 895.548 351.915 886.842C351.915 878.138 355.423 869.664 361.58 863.509C364.58 860.507 368.158 858.092 372.068 856.436C376.215 854.683 380.441 854 382.249 854.049C385.727 853.828 389.128 853.759 392.617 853.762C395.674 853.768 398.722 853.874 401.768 854.221C404.413 854.524 407.013 855.106 409.652 855.442C417.113 856.39 424.363 858.507 431.589 860.545C439.167 862.682 446.507 865.416 453.856 868.213C459.842 870.492 465.707 873.032 471.463 875.838C475.703 877.906 479.809 880.061 483.816 882.528C486.837 884.389 489.75 886.446 492.659 888.481C496.008 890.587 499.412 892.554 502.871 894.485C503.01 894.565 503.152 894.644 503.294 894.726C502.398 895.392 501.513 896.07 500.63 896.756C499.486 897.6 498.47 898.509 497.686 899.731C497.625 899.829 497.565 899.927 497.505 900.026C495.913 901.127 494.306 902.203 492.684 903.268C488.597 905.956 484.516 908.625 480.538 911.472C478.604 912.854 477.227 914.807 476.79 917.171C476.722 917.539 476.678 917.911 476.659 918.285C475.112 919.413 473.561 920.536 472.012 921.659C469.87 923.205 468.589 925.549 468.272 928.022C468.064 928.218 467.857 928.418 467.652 928.617C465.559 930.658 464.344 933.327 464.601 936.291C464.805 938.668 465.953 940.921 467.758 942.478C469.471 943.956 471.632 944.675 473.782 944.675C475.224 944.675 476.664 944.35 477.962 943.713V943.718C478.014 943.691 478.066 943.661 478.117 943.634C478.251 943.566 478.383 943.494 478.514 943.418C479.451 942.904 480.388 942.394 481.278 941.798C481.994 941.323 482.707 940.847 483.423 940.369C484.551 939.618 485.655 938.82 486.767 938.044C488.979 936.501 491.179 934.93 493.334 933.305C496.517 930.903 499.642 928.447 502.699 925.883C504.36 924.489 506.015 923.079 507.635 921.632C509.206 922.779 511.189 923.274 513.151 923.008C513.465 925.421 514.484 927.696 516.161 929.639C516.513 930.046 516.888 930.417 517.278 930.759C517.776 932.917 518.887 934.925 520.486 936.476C521.484 937.447 522.592 938.152 523.791 938.67V992.001C522.452 990.932 521.134 989.834 519.841 988.706Z" fill="#381E72"/>
<path d="M1383.45 1063.09C1383.58 1061.76 1383.44 1060.46 1383.06 1059.24C1383.09 1059.04 1383.11 1058.85 1383.13 1058.65C1383.28 1057.12 1383.47 1055.58 1383.58 1054.04C1383.8 1050.86 1384.18 1047.41 1382.85 1044.44C1382.88 1044.32 1382.91 1044.2 1382.95 1044.08C1384.62 1038.76 1386.72 1033.6 1388.86 1028.46C1390.37 1024.83 1391.88 1021.2 1393.47 1017.6C1393.51 1017.54 1393.55 1017.49 1393.6 1017.43C1393.88 1017.06 1394.14 1016.68 1394.41 1016.3C1395.05 1016.55 1395.72 1016.75 1396.41 1016.89C1398.95 1017.4 1401.62 1017.06 1403.95 1015.94C1406.43 1014.75 1408.1 1012.86 1409.47 1010.53C1411.49 1007.11 1412.17 1003.04 1413.15 999.222C1413.6 997.468 1414 995.722 1414.37 993.952C1414.97 991.152 1415.56 988.368 1416 985.541C1426.21 981.681 1436.27 977.353 1446.14 972.717C1450.31 970.464 1454.4 968.068 1458.56 965.803C1463.18 963.298 1467.75 960.736 1472.3 958.108C1475.87 956.05 1479.4 953.936 1482.91 951.781C1489.96 950.251 1497.02 948.715 1504.03 946.989C1510.24 945.459 1516.46 943.938 1522.65 942.304C1525.97 941.534 1529.31 940.862 1532.69 940.433C1533.72 940.302 1534.75 940.209 1535.78 940.089C1536.99 939.949 1538.11 939.742 1539.3 939.507C1541.55 939.007 1543.55 938.122 1545.24 936.477C1546.84 934.925 1547.95 932.917 1548.45 930.759C1548.84 930.418 1549.21 930.046 1549.56 929.639C1551.24 927.697 1552.26 925.421 1552.57 923.009C1554.54 923.277 1556.52 922.78 1558.09 921.632C1559.71 923.08 1561.36 924.49 1563.03 925.883C1566.08 928.448 1569.21 930.904 1572.39 933.305C1574.55 934.931 1576.75 936.502 1578.96 938.045C1580.07 938.821 1581.17 939.619 1582.3 940.37C1583.02 940.848 1583.73 941.323 1584.45 941.798C1585.34 942.394 1586.27 942.905 1587.21 943.419C1587.34 943.495 1587.47 943.566 1587.61 943.634C1587.66 943.664 1587.71 943.692 1587.76 943.719C1587.76 943.719 1587.76 943.716 1587.77 943.714C1589.06 944.35 1590.5 944.675 1591.95 944.675C1594.1 944.675 1596.25 943.957 1597.97 942.479C1599.77 940.922 1600.92 938.668 1601.12 936.291C1601.38 933.327 1600.17 930.658 1598.07 928.617C1597.87 928.418 1597.66 928.221 1597.46 928.025C1597.14 925.552 1595.86 923.208 1593.72 921.659C1592.16 920.537 1590.61 919.411 1589.07 918.283C1589.05 917.911 1589 917.54 1588.93 917.171C1588.5 914.808 1587.12 912.855 1585.19 911.472C1581.21 908.626 1577.13 905.957 1573.04 903.269C1571.42 902.203 1569.81 901.127 1568.22 900.026C1568.16 899.928 1568.1 899.829 1568.04 899.731C1567.26 898.51 1566.24 897.6 1565.09 896.756C1564.21 896.07 1563.33 895.393 1562.43 894.726C1562.58 894.645 1562.72 894.565 1562.86 894.486C1566.32 892.555 1569.72 890.587 1573.07 888.481C1575.98 886.446 1578.9 884.389 1581.92 882.529C1585.92 880.062 1590.03 877.906 1594.27 875.838C1600.02 873.033 1605.89 870.492 1611.87 868.214C1619.22 865.416 1626.56 862.682 1634.14 860.546C1641.37 858.508 1648.62 856.391 1656.08 855.443C1658.72 855.107 1661.32 854.525 1663.96 854.222C1667.01 853.875 1670.06 853.768 1673.11 853.763C1676.6 853.759 1680 853.828 1680.82 853.845C1685.29 854 1689.52 854.683 1693.66 856.437C1697.57 858.092 1701.15 860.508 1704.15 863.51C1710.31 869.665 1713.82 878.139 1713.82 886.842C1713.82 895.548 1710.31 904.023 1704.15 910.175C1698.15 916.171 1689.4 920.141 1680.82 919.84C1680.13 919.818 1679.44 919.78 1678.75 919.742C1677.46 919.704 1676.16 919.761 1674.88 919.761C1673.85 919.761 1672.82 919.75 1671.79 919.758C1670.37 919.952 1668.95 920.206 1667.54 920.452C1666.04 920.714 1664.53 920.873 1663.03 921.067C1659.95 921.856 1656.89 922.758 1653.84 923.594C1650.47 924.514 1647.14 925.511 1643.82 926.59C1636 929.445 1628.33 932.68 1620.82 936.25C1618.25 937.684 1615.77 939.198 1613.32 940.799C1609.57 943.389 1605.83 945.984 1601.88 948.248C1598.94 949.937 1595.99 951.59 1593.08 953.324C1588.98 956.225 1585.01 959.282 1580.99 962.304C1576.18 965.921 1571.2 969.278 1566.21 972.63C1559.16 977.662 1552.42 983.014 1545.89 988.707C1541.68 992.381 1537.22 995.755 1532.49 998.763C1528.71 1001.17 1524.83 1003.42 1521.02 1005.79C1514.97 1009.56 1508.87 1013.21 1502.69 1016.78C1502.19 1017.07 1501.69 1017.35 1501.19 1017.64C1497.45 1018.97 1493.71 1020.27 1489.97 1021.61C1476.56 1026.39 1463.54 1032.17 1450.42 1037.7C1442.6 1040.82 1434.7 1043.81 1426.75 1046.62C1425.27 1047.13 1423.79 1047.65 1422.32 1048.18C1422.3 1048.19 1422.28 1048.19 1422.26 1048.2H1422.26H1422.26C1422.26 1048.2 1422.25 1048.2 1422.24 1048.21C1422.19 1048.22 1422.15 1048.24 1422.1 1048.26C1422.08 1048.27 1422.06 1048.27 1422.03 1048.28C1421.92 1048.32 1421.8 1048.37 1421.68 1048.41C1421.78 1048.38 1421.87 1048.34 1421.97 1048.31C1417.8 1049.85 1413.71 1051.56 1409.6 1053.25C1407.45 1054.11 1405.24 1054.79 1403.06 1055.58C1401 1056.33 1398.94 1057.09 1396.9 1057.91C1394.91 1058.72 1392.85 1059.38 1390.86 1060.19C1388.58 1061.11 1386.33 1062.08 1384.1 1063.1C1383.87 1063.19 1383.65 1063.28 1383.42 1063.37C1383.43 1063.27 1383.44 1063.18 1383.45 1063.09Z" fill="#381E72"/>
<path d="M1684.03 854.089C1684.15 854.095 1684.27 854.103 1684.39 854.111C1684.27 854.105 1684.15 854.097 1684.03 854.089Z" fill="#381E72"/>
<path d="M1513.33 939.986C1513.1 940.041 1512.88 940.098 1512.65 940.153C1512.88 940.096 1513.1 940.041 1513.33 939.986Z" fill="#381E72"/>
<path d="M1383.44 1063.09C1383.57 1061.76 1383.43 1060.46 1383.06 1059.24C1383.08 1059.04 1383.1 1058.85 1383.12 1058.65C1383.27 1057.12 1383.47 1055.58 1383.57 1054.04C1383.79 1050.86 1384.17 1047.41 1382.85 1044.44C1382.88 1044.32 1382.91 1044.2 1382.94 1044.08C1384.62 1038.77 1386.72 1033.6 1388.86 1028.46C1390.37 1024.83 1391.88 1021.2 1393.46 1017.6C1393.5 1017.54 1393.55 1017.49 1393.59 1017.43C1393.87 1017.06 1394.14 1016.68 1394.4 1016.3C1395.05 1016.55 1395.72 1016.75 1396.41 1016.89C1398.94 1017.4 1401.61 1017.06 1403.94 1015.94C1406.43 1014.76 1408.09 1012.86 1409.47 1010.53C1411.48 1007.11 1412.17 1003.04 1413.14 999.222C1413.59 997.468 1413.99 995.723 1414.37 993.952C1414.96 991.152 1415.55 988.368 1416 985.544C1426.13 981.708 1436.12 977.416 1445.92 972.819C1458.39 966.066 1470.72 959.075 1482.89 951.786C1489.95 950.254 1497.01 948.716 1504.03 946.989C1510.24 945.46 1516.46 943.938 1522.65 942.304C1525.97 941.534 1529.31 940.862 1532.69 940.433C1533.72 940.302 1534.75 940.209 1535.78 940.089C1536.99 939.949 1538.11 939.742 1539.3 939.507C1541.54 939.007 1543.55 938.122 1545.24 936.477C1546.84 934.926 1547.95 932.918 1548.45 930.76C1548.84 930.418 1549.21 930.047 1549.56 929.639C1551.24 927.697 1552.26 925.422 1552.57 923.009C1554.54 923.277 1556.52 922.78 1558.09 921.633C1559.71 923.08 1561.37 924.49 1563.02 925.883C1566.08 928.448 1569.21 930.904 1572.39 933.306C1574.54 934.931 1576.74 936.502 1578.96 938.045C1580.07 938.821 1581.17 939.619 1582.3 940.37C1583.01 940.848 1583.73 941.324 1584.44 941.799C1585.34 942.394 1586.27 942.905 1587.21 943.419C1587.34 943.492 1587.47 943.566 1587.61 943.635C1587.66 943.662 1587.71 943.692 1587.76 943.719C1587.76 943.717 1587.76 943.717 1587.76 943.714C1589.06 944.35 1590.5 944.675 1591.94 944.675C1594.09 944.675 1596.25 943.957 1597.96 942.479C1599.77 940.922 1600.92 938.668 1601.12 936.291C1601.38 933.328 1600.16 930.658 1598.07 928.618C1597.87 928.418 1597.66 928.219 1597.45 928.022C1597.14 925.553 1595.86 923.209 1593.71 921.66C1592.16 920.537 1590.61 919.414 1589.07 918.283C1589.05 917.912 1589 917.54 1588.93 917.171C1588.5 914.808 1587.12 912.855 1585.18 911.473C1581.21 908.626 1577.13 905.957 1573.04 903.269C1571.42 902.204 1569.81 901.127 1568.22 900.026C1568.16 899.928 1568.1 899.83 1568.04 899.731C1567.26 898.51 1566.24 897.6 1565.09 896.756C1564.22 896.076 1563.34 895.401 1562.45 894.738C1566.14 892.369 1569.91 890.102 1573.78 887.99C1603.5 867.911 1647.96 851.829 1683.44 854.05C1682.27 853.97 1681.09 853.891 1679.91 853.812C1681.27 853.847 1682.59 853.935 1683.87 854.077C1683.92 854.08 1683.97 854.085 1684.03 854.089C1683.98 854.087 1683.94 854.084 1683.89 854.08C1726.76 858.861 1721.6 922.436 1677.79 919.732C1676.82 919.729 1675.84 919.762 1674.88 919.762C1673.84 919.762 1672.81 919.751 1671.77 919.762C1670.35 919.956 1668.94 920.21 1667.53 920.453C1666.04 920.715 1664.53 920.876 1663.02 921.07C1659.95 921.857 1656.89 922.759 1653.83 923.597C1650.45 924.52 1647.11 925.521 1643.79 926.599C1635.98 929.452 1628.32 932.683 1620.82 936.248C1618.24 937.691 1615.75 939.215 1613.28 940.824C1609.55 943.406 1605.81 945.99 1601.88 948.249C1598.93 949.94 1595.98 951.596 1593.06 953.333C1588.97 956.234 1585 959.288 1580.99 962.307C1575.92 966.118 1570.64 969.65 1565.38 973.188C1553.93 981.113 1544.21 991.232 1532.49 998.766C1522.11 1005.12 1511.73 1011.53 1501.18 1017.64C1497.45 1018.98 1493.7 1020.28 1489.97 1021.61C1476.56 1026.39 1463.53 1032.17 1450.42 1037.7C1442.59 1040.83 1434.69 1043.81 1426.75 1046.63C1425.2 1047.16 1423.65 1047.69 1422.11 1048.25C1422.18 1048.23 1422.24 1048.2 1422.31 1048.18C1422.1 1048.26 1421.89 1048.33 1421.68 1048.41C1421.82 1048.36 1421.97 1048.3 1422.11 1048.25C1417.89 1049.81 1413.75 1051.54 1409.6 1053.25C1407.45 1054.11 1405.23 1054.79 1403.06 1055.58C1400.99 1056.33 1398.93 1057.09 1396.9 1057.91C1394.9 1058.72 1392.85 1059.38 1390.86 1060.19C1388.58 1061.12 1386.33 1062.08 1384.09 1063.1C1383.87 1063.19 1383.64 1063.28 1383.41 1063.37C1383.42 1063.27 1383.43 1063.18 1383.44 1063.09Z" fill="#381E72"/>
<path d="M1404.66 1044.95C1404.48 1035.25 1404.36 1025.55 1404.14 1015.85C1406.52 1014.66 1408.13 1012.8 1409.47 1010.53C1411.48 1007.11 1412.17 1003.04 1413.14 999.221C1413.59 997.467 1413.99 995.721 1414.37 993.951C1414.83 991.768 1415.29 989.596 1415.68 987.405C1421.62 982.371 1429.26 979.543 1437.08 979.551C1445.78 979.557 1454.26 983.073 1460.4 989.233C1466.62 995.453 1469.94 1003.82 1470.05 1012.57C1470.12 1018.14 1470.25 1023.7 1470.36 1029.26C1463.69 1032.03 1457.07 1034.9 1450.42 1037.7C1442.59 1040.82 1434.69 1043.81 1426.75 1046.62C1425.24 1047.14 1423.73 1047.67 1422.23 1048.21C1422.26 1048.2 1422.29 1048.19 1422.31 1048.18C1422.25 1048.2 1422.18 1048.23 1422.11 1048.25C1422.11 1048.25 1422.11 1048.25 1422.11 1048.25C1422.11 1048.25 1422.1 1048.25 1422.1 1048.25C1422.03 1048.28 1421.96 1048.31 1421.89 1048.33C1421.82 1048.36 1421.75 1048.38 1421.68 1048.41C1421.75 1048.38 1421.82 1048.36 1421.89 1048.33C1421.9 1048.33 1421.91 1048.33 1421.92 1048.32C1417.77 1049.86 1413.69 1051.56 1409.6 1053.25C1408.04 1053.88 1406.44 1054.41 1404.85 1054.95C1404.79 1051.62 1404.72 1048.28 1404.66 1044.95Z" fill="#381E72"/>
<path d="M1462.92 1066.45C1462.88 1066.46 1462.85 1066.48 1462.82 1066.49C1462.77 1066.51 1462.72 1066.53 1462.66 1066.55C1462.64 1066.56 1462.62 1066.57 1462.6 1066.58C1462.7 1066.54 1462.81 1066.49 1462.92 1066.45Z" fill="#381E72"/>
<path d="M1436.95 1076.26C1436.83 1076.3 1436.7 1076.35 1436.57 1076.39C1436.7 1076.34 1436.82 1076.3 1436.95 1076.26Z" fill="#381E72"/>
<path d="M1436.18 1076.53C1435.97 1076.6 1435.76 1076.68 1435.54 1076.75C1435.76 1076.68 1435.97 1076.6 1436.18 1076.53Z" fill="#381E72"/>
<path d="M1436.56 1076.39C1436.67 1076.35 1436.79 1076.31 1436.9 1076.27C1436.79 1076.31 1436.67 1076.35 1436.57 1076.39H1436.56Z" fill="#381E72"/>
<path d="M1405.48 1088.38C1407.61 1087.6 1409.72 1086.75 1411.86 1085.97C1415.72 1084.57 1419.57 1083.19 1423.36 1081.6C1426.4 1080.32 1429.42 1079.04 1432.49 1077.83C1432.7 1077.76 1432.91 1077.68 1433.11 1077.61C1433.87 1077.34 1434.62 1077.08 1435.38 1076.81C1435.33 1076.83 1435.28 1076.85 1435.23 1076.87C1436.24 1076.51 1437.26 1076.15 1438.27 1075.8C1437.82 1075.96 1437.36 1076.12 1436.9 1076.27C1445.54 1073.26 1454.12 1070.04 1462.6 1066.58C1462.58 1066.58 1462.57 1066.59 1462.56 1066.6C1462.59 1066.58 1462.63 1066.57 1462.66 1066.55C1462.72 1066.53 1462.77 1066.51 1462.82 1066.49C1462.87 1066.47 1462.92 1066.45 1462.98 1066.42C1462.99 1066.42 1463 1066.42 1463.01 1066.41C1465.68 1065.31 1468.34 1064.18 1471 1063.06C1471.04 1065.48 1471.09 1067.89 1471.13 1070.31C1470.86 1070.44 1470.58 1070.57 1470.31 1070.71C1469.77 1070.97 1469.23 1071.23 1468.71 1071.5C1468.71 1071.5 1468.71 1071.5 1468.72 1071.49C1468.67 1071.52 1468.63 1071.54 1468.59 1071.56C1468.59 1071.56 1468.58 1071.57 1468.58 1071.57C1468.58 1071.57 1468.59 1071.57 1468.59 1071.56H1468.59C1468.46 1071.63 1468.33 1071.7 1468.2 1071.77C1468.2 1071.77 1468.19 1071.77 1468.18 1071.78C1468.17 1071.78 1468.17 1071.79 1468.16 1071.79C1468.15 1071.8 1468.14 1071.8 1468.13 1071.81C1468.14 1071.8 1468.14 1071.8 1468.15 1071.8C1468.09 1071.82 1468.04 1071.85 1467.98 1071.88C1468 1071.88 1468.01 1071.87 1468.02 1071.86C1467.98 1071.88 1467.95 1071.9 1467.91 1071.92C1467.91 1071.92 1467.91 1071.92 1467.91 1071.92C1467.91 1071.92 1467.91 1071.92 1467.91 1071.92C1467.91 1071.92 1467.91 1071.92 1467.91 1071.92C1467.9 1071.93 1467.9 1071.93 1467.9 1071.93C1467.9 1071.93 1467.89 1071.93 1467.89 1071.93C1467.89 1071.93 1467.88 1071.94 1467.88 1071.94C1467.88 1071.94 1467.88 1071.94 1467.88 1071.93C1467.86 1071.95 1467.84 1071.96 1467.81 1071.97C1467.81 1071.97 1467.81 1071.97 1467.81 1071.97C1467.81 1071.97 1467.81 1071.97 1467.81 1071.97C1467.37 1072.2 1466.91 1072.38 1466.48 1072.6C1466.04 1072.81 1465.59 1073.03 1465.17 1073.27C1464.93 1073.41 1464.69 1073.54 1464.46 1073.68C1464.24 1073.81 1464.03 1073.94 1463.81 1074.07C1463.66 1074.16 1463.51 1074.25 1463.35 1074.35C1463.29 1074.38 1463.22 1074.43 1463.15 1074.46C1462.9 1074.59 1462.66 1074.73 1462.41 1074.86C1462.41 1074.86 1462.41 1074.86 1462.41 1074.86C1461.81 1075.16 1461.21 1075.45 1460.62 1075.74C1455.48 1077.62 1450.63 1080.22 1446.23 1083.43C1446.06 1083.52 1445.89 1083.61 1445.71 1083.69C1445.55 1083.77 1445.4 1083.85 1445.24 1083.93C1445.18 1083.96 1445.13 1083.99 1445.07 1084.02C1445.09 1084.01 1445.1 1084 1445.11 1083.99C1445.09 1084.01 1445.07 1084.02 1445.05 1084.03C1445.07 1084.02 1445.08 1084.01 1445.09 1084.01C1444.46 1084.34 1443.83 1084.68 1443.2 1085.02C1443.22 1085.02 1443.23 1085.01 1443.24 1085C1443.14 1085.05 1443.05 1085.11 1442.96 1085.17C1442.74 1085.3 1442.53 1085.42 1442.31 1085.55C1442.09 1085.69 1441.86 1085.82 1441.64 1085.95C1441.57 1085.99 1441.51 1086.03 1441.44 1086.07C1440.81 1086.5 1440.17 1086.93 1439.54 1087.36C1439.04 1087.71 1438.53 1088.06 1438.03 1088.41C1437.61 1088.59 1437.19 1088.77 1436.77 1088.95C1433.42 1090.37 1430.29 1092.05 1427.03 1093.56C1426.37 1093.87 1425.72 1094.19 1425.08 1094.52C1424.81 1094.58 1424.53 1094.64 1424.25 1094.71C1420.48 1095.64 1415.7 1097.21 1411.97 1099.13C1411.81 1099.19 1411.65 1099.24 1411.5 1099.29C1410.82 1099.51 1410.13 1099.69 1409.46 1099.93C1408.92 1100.12 1408.37 1100.29 1407.83 1100.5C1407.83 1100.5 1407.82 1100.5 1407.81 1100.51C1407.68 1100.55 1407.54 1100.58 1407.41 1100.63C1407.25 1100.69 1407.11 1100.76 1406.96 1100.84C1406.86 1100.81 1406.74 1100.83 1406.66 1100.9C1406.66 1100.9 1406.66 1100.91 1406.65 1100.91C1406.59 1100.92 1406.54 1100.94 1406.48 1100.96C1406.41 1100.98 1406.35 1101 1406.29 1101.02C1406.21 1101.03 1406.12 1101.05 1406.04 1101.07C1406.03 1101.07 1406.03 1101.07 1406.02 1101.08C1406.03 1101.07 1406.03 1101.07 1406.04 1101.07H1406.04C1406.01 1101.08 1405.98 1101.09 1405.95 1101.09C1405.95 1101.09 1405.95 1101.09 1405.95 1101.09C1405.94 1101.1 1405.94 1101.1 1405.94 1101.1C1405.93 1101.1 1405.93 1101.1 1405.93 1101.1C1405.93 1101.1 1405.92 1101.1 1405.92 1101.1C1405.88 1101.11 1405.85 1101.12 1405.81 1101.13C1405.82 1101.13 1405.83 1101.12 1405.83 1101.12C1405.8 1101.13 1405.75 1101.14 1405.72 1101.15C1405.64 1096.9 1405.56 1092.64 1405.48 1088.38Z" fill="#381E72"/>
<path d="M1378.13 1090.83C1378.19 1089.89 1378.13 1088.96 1377.95 1088.06C1379.4 1086.78 1380.45 1085.23 1381.2 1083.42C1381.89 1081.76 1382.04 1080.06 1382.19 1078.3C1382.44 1076.64 1382.67 1074.97 1382.84 1073.3C1383 1071.58 1383.05 1069.84 1383.13 1068.12C1383.21 1066.44 1383.28 1064.76 1383.45 1063.09C1383.58 1061.77 1383.43 1060.46 1383.06 1059.24C1383.09 1059.05 1383.11 1058.85 1383.13 1058.65C1383.28 1057.12 1383.47 1055.59 1383.58 1054.05C1383.8 1050.86 1384.18 1047.41 1382.85 1044.45C1382.88 1044.32 1382.91 1044.2 1382.95 1044.08C1384.62 1038.77 1386.72 1033.6 1388.86 1028.46C1390.37 1024.83 1391.88 1021.2 1393.47 1017.6C1393.51 1017.54 1393.55 1017.49 1393.6 1017.43C1393.88 1017.06 1394.15 1016.68 1394.41 1016.3C1395.05 1016.55 1395.72 1016.75 1396.41 1016.89C1398.95 1017.4 1401.62 1017.06 1403.95 1015.95C1406.43 1014.76 1408.1 1012.86 1409.47 1010.53C1411.49 1007.11 1412.17 1003.04 1413.15 999.225C1413.6 997.471 1414 995.725 1414.37 993.955C1415 990.975 1415.63 988.01 1416.09 984.992C1416.32 983.467 1416.5 981.949 1416.65 980.416C1416.8 978.908 1417.01 977.488 1416.89 975.955C1416.69 973.373 1415.88 970.805 1414.32 968.716C1415.23 968.065 1416.14 967.404 1417.05 966.759C1418.39 965.82 1419.74 964.875 1421.08 963.929C1422.04 963.981 1423 963.918 1423.94 963.741C1425.37 963.473 1426.59 962.932 1427.84 962.26C1427.83 962.263 1427.83 962.269 1427.82 962.271C1427.7 962.34 1427.57 962.408 1427.44 962.479C1427.57 962.411 1427.7 962.34 1427.82 962.271C1428.96 961.654 1430.11 961.047 1431.23 960.408C1431.34 960.392 1431.44 960.375 1431.55 960.356C1436.12 959.55 1440.74 959.012 1445.29 958.124C1447.82 957.633 1450.35 957.127 1452.87 956.597C1454.91 956.166 1456.97 955.846 1459.03 955.513C1460.45 955.371 1461.88 955.231 1463.29 955.073C1465.67 954.808 1468.1 954.674 1470.45 954.245C1474.48 953.51 1478.49 952.737 1482.5 951.869C1489.69 950.309 1496.89 948.746 1504.03 946.987C1510.24 945.457 1516.46 943.938 1522.65 942.304C1525.97 941.534 1529.31 940.862 1532.69 940.43C1533.72 940.299 1534.75 940.206 1535.78 940.086C1536.98 939.952 1538.1 939.745 1539.28 939.512C1539.27 939.512 1539.27 939.515 1539.26 939.515C1539.27 939.512 1539.29 939.51 1539.3 939.507C1539.33 939.502 1539.35 939.498 1539.37 939.493C1541.58 938.991 1543.56 938.107 1545.24 936.475C1546.84 934.926 1547.95 932.918 1548.45 930.76C1548.84 930.418 1549.21 930.044 1549.56 929.637C1551.24 927.7 1552.26 925.424 1552.57 923.015C1554.54 923.28 1556.52 922.785 1558.09 921.633C1559.71 923.08 1561.37 924.49 1563.03 925.883C1566.08 928.448 1569.21 930.904 1572.39 933.306C1574.55 934.931 1576.74 936.502 1578.96 938.045C1580.07 938.821 1581.17 939.619 1582.3 940.37C1583.02 940.848 1583.73 941.324 1584.45 941.799C1585.34 942.394 1586.27 942.905 1587.21 943.419C1587.34 943.493 1587.47 943.566 1587.61 943.635C1587.66 943.662 1587.71 943.692 1587.76 943.719C1587.76 943.717 1587.76 943.717 1587.77 943.714C1589.06 944.35 1590.5 944.675 1591.95 944.675C1594.1 944.675 1596.25 943.957 1597.97 942.479C1599.77 940.922 1600.92 938.668 1601.12 936.291C1601.38 933.327 1600.17 930.659 1598.07 928.618C1597.87 928.416 1597.66 928.219 1597.46 928.022C1597.14 925.553 1595.85 923.209 1593.72 921.663C1592.16 920.54 1590.61 919.414 1589.07 918.286C1589.05 917.912 1589 917.54 1588.93 917.171C1588.5 914.808 1587.12 912.855 1585.19 911.473C1581.21 908.626 1577.13 905.957 1573.04 903.269C1571.42 902.204 1569.81 901.127 1568.22 900.027C1568.16 899.928 1568.1 899.83 1568.04 899.731C1567.26 898.51 1566.24 897.601 1565.09 896.756C1563.34 895.391 1561.56 894.055 1559.74 892.762C1559.11 892.312 1558.46 891.883 1557.8 891.468C1556.06 890.113 1554.32 888.766 1552.56 887.432C1550.15 885.515 1547.85 883.499 1545.51 881.494C1544.8 880.887 1544.09 880.286 1543.37 879.699C1542.63 878.855 1541.87 878.03 1541.08 877.229C1539.92 876.044 1538.67 875.025 1537.3 874.164C1537.99 873.765 1538.69 873.364 1539.38 872.962C1546.74 868.665 1554.56 865.13 1562.27 861.458C1571.9 856.404 1581.57 851.446 1591.36 846.701C1596.55 844.084 1601.74 841.467 1607.04 839.077C1612.81 836.47 1619.14 834.383 1625.12 832.512C1628.77 831.367 1632.48 830.307 1636.18 829.313C1639.96 828.294 1643.85 827.625 1647.73 826.963C1662.33 822.62 1678.31 823.423 1692.38 829.376C1708.09 836.017 1720.87 848.791 1727.51 864.496C1730.94 872.607 1732.69 881.379 1732.69 890.186C1732.69 896.142 1731.9 901.988 1730.33 907.73C1729.39 910.445 1728.45 913.158 1727.51 915.874C1725.75 920.556 1721.96 926.654 1718.91 930.593C1715.45 935.073 1711.47 939.045 1707 942.512C1702.42 946.047 1697.28 949.046 1691.95 951.278C1688.91 952.549 1685.58 953.753 1682.28 954.499C1678.27 955.403 1674.24 956.245 1670.19 956.939C1670.01 956.969 1669.83 956.999 1669.65 957.031C1667.26 957.687 1664.87 958.376 1662.5 959.091C1657.91 960.919 1653.44 962.976 1652.67 963.345C1647.61 965.874 1642.54 968.388 1637.47 970.868C1633.47 972.969 1629.5 975.111 1625.51 977.209C1619.95 980.129 1614.28 982.82 1608.61 985.527C1604.25 987.931 1599.98 990.491 1595.61 992.895C1590.28 995.832 1584.84 998.575 1579.39 1001.29C1575 1003.6 1570.7 1006.04 1566.51 1008.68C1565.6 1009.34 1564.68 1009.98 1563.73 1010.6C1563.33 1010.88 1562.94 1011.15 1562.53 1011.43C1558.47 1014.51 1554.56 1017.79 1550.38 1020.7C1545.39 1024.17 1540.41 1027.67 1535.21 1030.82C1532.96 1032.19 1530.74 1033.57 1528.54 1035C1528.24 1035.21 1527.94 1035.41 1527.65 1035.61C1527.31 1035.84 1526.97 1036.07 1526.63 1036.3C1525.87 1036.81 1525.17 1037.3 1524.51 1037.75C1522.41 1039.36 1520.2 1040.85 1517.9 1042.2C1517.46 1042.5 1517.02 1042.79 1516.58 1043.08C1515.63 1043.71 1514.68 1044.34 1513.73 1044.97C1507.33 1049.21 1500.98 1053.46 1494.34 1057.33C1487.69 1061.22 1480.84 1064.74 1474.21 1068.67C1473.72 1068.96 1473.22 1069.25 1472.73 1069.53H1472.72C1472.64 1069.52 1472.58 1069.55 1472.51 1069.57C1472.41 1069.6 1472.3 1069.61 1472.19 1069.65C1472.03 1069.7 1471.86 1069.77 1471.72 1069.86C1471.56 1069.97 1471.41 1070.1 1471.26 1070.22C1471.22 1070.25 1471.18 1070.28 1471.14 1070.31C1470.86 1070.45 1470.58 1070.58 1470.31 1070.71C1469.77 1070.98 1469.24 1071.23 1468.71 1071.51C1468.71 1071.5 1468.71 1071.5 1468.71 1071.5C1468.67 1071.52 1468.63 1071.54 1468.59 1071.57C1468.59 1071.57 1468.59 1071.57 1468.58 1071.57C1468.59 1071.57 1468.59 1071.57 1468.59 1071.57C1468.59 1071.57 1468.59 1071.57 1468.59 1071.57C1468.46 1071.63 1468.33 1071.7 1468.2 1071.77C1468.18 1071.78 1468.16 1071.8 1468.13 1071.81C1468.14 1071.81 1468.14 1071.8 1468.15 1071.8C1468.09 1071.83 1468.04 1071.86 1467.99 1071.89C1468 1071.88 1468.01 1071.88 1468.02 1071.87C1467.99 1071.89 1467.95 1071.91 1467.92 1071.92C1467.91 1071.93 1467.91 1071.93 1467.9 1071.93C1467.9 1071.93 1467.9 1071.94 1467.89 1071.94C1467.89 1071.94 1467.89 1071.94 1467.89 1071.94H1467.89C1467.89 1071.94 1467.88 1071.94 1467.88 1071.94C1467.88 1071.94 1467.88 1071.94 1467.89 1071.94C1467.86 1071.95 1467.83 1071.97 1467.81 1071.98C1467.37 1072.2 1466.92 1072.39 1466.48 1072.6C1466.04 1072.82 1465.6 1073.03 1465.17 1073.27C1464.93 1073.41 1464.69 1073.54 1464.46 1073.68C1464.24 1073.81 1464.03 1073.95 1463.81 1074.08C1463.66 1074.17 1463.51 1074.26 1463.36 1074.35C1463.29 1074.39 1463.22 1074.43 1463.16 1074.47C1462.91 1074.6 1462.66 1074.73 1462.41 1074.86C1461.81 1075.16 1461.21 1075.46 1460.6 1075.75C1456.93 1077.1 1453.41 1078.81 1450.08 1080.86C1449.63 1081.06 1449.17 1081.26 1448.72 1081.47C1447.45 1082.02 1446.18 1082.59 1444.92 1083.16C1438.18 1086.81 1431.54 1090.61 1424.59 1093.91C1423.24 1094.55 1421.87 1095.17 1420.5 1095.76C1417.68 1096.64 1414.7 1097.76 1412.17 1099.04C1411.78 1099.18 1411.39 1099.32 1410.99 1099.45C1410.48 1099.61 1409.97 1099.75 1409.46 1099.93C1408.93 1100.12 1408.39 1100.29 1407.86 1100.49C1407.09 1100.73 1406.33 1100.97 1405.56 1101.2C1405.52 1101.21 1405.47 1101.22 1405.43 1101.23C1402.89 1101.99 1400.33 1102.67 1397.75 1103.27C1390.48 1104.97 1383.41 1107.33 1376.16 1109.08C1375.74 1109.18 1375.33 1109.28 1374.91 1109.38C1376.39 1103.27 1377.73 1097.15 1378.13 1090.83Z" fill="#381E72"/>
<path d="M515.358 1020.7C511.173 1017.79 507.255 1014.51 503.199 1011.43C502.794 1011.15 502.396 1010.88 501.996 1010.6C501.054 1009.98 500.128 1009.34 499.224 1008.68C495.028 1006.04 490.733 1003.6 486.34 1001.29C480.888 998.573 475.449 995.831 470.119 992.894C465.754 990.49 461.481 987.93 457.124 985.526C451.458 982.819 445.778 980.128 440.224 977.208C436.231 975.11 432.258 972.968 428.265 970.867C423.186 968.387 418.121 965.873 416.75 965.193C412.289 962.975 407.825 960.918 403.233 959.09C400.856 958.374 398.471 957.686 396.081 957.031C395.903 956.998 395.723 956.968 395.545 956.938C391.491 956.244 387.462 955.402 383.451 954.498C380.149 953.752 376.819 952.548 373.783 951.277C368.454 949.045 363.312 946.046 358.736 942.511C354.259 939.044 350.284 935.072 346.82 930.592C343.774 926.652 339.982 920.555 338.226 915.873C337.281 913.157 336.341 910.445 335.398 907.729C333.825 901.987 333.038 896.141 333.038 890.185C333.038 881.378 334.798 872.606 338.226 864.495C344.867 848.79 357.644 836.016 373.349 829.375C387.423 823.422 403.405 822.619 417.998 826.962C421.883 827.624 425.77 828.293 429.557 829.312C433.253 830.306 436.957 831.366 440.61 832.511C446.59 834.382 452.919 836.469 458.692 839.075C463.997 841.466 469.179 844.083 474.372 846.7C484.166 851.445 493.828 856.403 503.461 861.457C511.176 865.129 518.997 868.664 526.356 872.961C527.045 873.363 527.736 873.764 528.427 874.163C527.058 875.023 525.813 876.043 524.649 877.228C523.862 878.028 523.097 878.853 522.357 879.698C521.638 880.285 520.928 880.886 520.223 881.493C517.885 883.498 515.574 885.514 513.164 887.432C511.408 888.767 509.665 890.111 507.927 891.466C507.269 891.882 506.619 892.311 505.985 892.761C504.168 894.053 502.39 895.389 500.631 896.755C499.486 897.599 498.47 898.509 497.688 899.73C497.626 899.828 497.566 899.927 497.505 900.025C495.913 901.126 494.306 902.202 492.687 903.268C488.6 905.956 484.518 908.625 480.541 911.472C478.607 912.854 477.23 914.807 476.793 917.17C476.722 917.539 476.678 917.911 476.659 918.285C475.113 919.413 473.561 920.539 472.012 921.661C469.87 923.208 468.589 925.551 468.272 928.021C468.064 928.218 467.859 928.414 467.655 928.617C465.562 930.657 464.347 933.326 464.603 936.29C464.808 938.667 465.955 940.921 467.761 942.478C469.471 943.956 471.632 944.674 473.782 944.674C475.225 944.674 476.664 944.349 477.962 943.713C477.962 943.713 477.962 943.715 477.965 943.718C478.014 943.691 478.066 943.661 478.118 943.633C478.251 943.565 478.383 943.491 478.514 943.418C479.451 942.904 480.388 942.393 481.281 941.798C481.997 941.322 482.71 940.847 483.426 940.369C484.554 939.618 485.658 938.82 486.769 938.044C488.982 936.501 491.181 934.93 493.337 933.304C496.519 930.903 499.644 928.447 502.701 925.882C504.36 924.489 506.015 923.079 507.635 921.631C509.206 922.781 511.189 923.279 513.151 923.011C513.465 925.423 514.487 927.696 516.164 929.636C516.516 930.043 516.891 930.417 517.281 930.758C517.776 932.916 518.888 934.924 520.486 936.473C521.484 937.444 522.592 938.151 523.791 938.669V1026.5C520.956 1024.61 518.159 1022.65 515.358 1020.7Z" fill="#381E72"/>
<path d="M1632.78 929.913C1620.47 917.604 1613.45 900.658 1613.45 883.248C1613.45 865.836 1620.47 848.89 1632.78 836.58C1645.09 824.271 1662.04 817.25 1679.45 817.25C1696.86 817.25 1713.8 824.271 1726.11 836.58C1738.42 848.89 1745.44 865.836 1745.44 883.248C1745.44 900.658 1738.42 917.604 1726.11 929.913C1713.8 942.223 1696.86 949.244 1679.45 949.244C1662.04 949.244 1645.09 942.223 1632.78 929.913Z" fill="#381E72"/>
<path d="M339.613 929.913C327.304 917.604 320.285 900.658 320.285 883.248C320.285 865.836 327.304 848.89 339.613 836.58C351.925 824.271 368.871 817.25 386.281 817.25C403.694 817.25 420.639 824.271 432.949 836.58C445.258 848.89 452.277 865.836 452.277 883.248C452.277 900.658 445.258 917.604 432.949 929.913C420.639 942.223 403.694 949.244 386.281 949.244C368.871 949.244 351.925 942.223 339.613 929.913Z" fill="#381E72"/>
<path d="M1678.93 949.523C1678.08 949.481 1677.25 949.441 1676.44 949.4C1674.91 949.356 1673.39 949.258 1671.87 949.107C1668.2 948.799 1664.63 948.266 1661.24 947.157C1660.55 946.974 1659.87 946.777 1659.19 946.572C1656.27 946.015 1653.37 945.389 1650.54 944.471C1638.12 940.437 1626.36 935.082 1614.74 929.143C1608.04 925.717 1601.85 921.59 1595.41 917.721C1592.52 915.981 1589.57 914.348 1586.62 912.717C1586.19 912.263 1585.71 911.848 1585.19 911.474C1581.21 908.627 1577.13 905.958 1573.04 903.27C1571.42 902.205 1569.81 901.128 1568.22 900.027C1568.16 899.929 1568.1 899.831 1568.04 899.732C1567.26 898.511 1566.24 897.601 1565.09 896.757C1563.34 895.391 1561.56 894.055 1559.74 892.763C1559.11 892.313 1558.46 891.884 1557.8 891.468C1556.06 890.114 1554.32 888.767 1552.56 887.433C1551.15 886.311 1549.78 885.155 1548.41 883.989C1547.17 882.827 1545.94 881.647 1544.71 880.478C1543.84 879.751 1542.97 879.025 1542.1 878.298C1541.77 877.938 1541.42 877.58 1541.08 877.227C1539.83 875.96 1538.49 874.881 1537.01 873.982C1535.36 872.562 1533.72 871.122 1532.12 869.641C1530.33 867.98 1528.54 866.308 1526.75 864.645C1525.73 863.858 1524.69 863.087 1523.64 862.325C1520.45 860.183 1517.27 858.014 1514.17 855.733C1511.55 853.802 1509.07 851.679 1506.53 849.658C1503.91 847.581 1501.13 845.729 1498.45 843.741C1497.03 842.686 1495.64 841.615 1494.23 840.561C1488.39 836.843 1482.72 832.928 1477.5 828.349C1475.05 826.194 1472.47 824.23 1469.83 822.342C1464.32 818.84 1458.71 815.504 1452.98 812.398C1448 809.986 1443.02 807.588 1438.17 804.965C1435.57 803.561 1432.98 802.14 1430.39 800.733C1429.68 800.425 1428.97 800.124 1428.26 799.829C1427.38 799.575 1426.49 799.332 1425.6 799.094C1419.72 798.048 1413.82 797.086 1407.95 795.909C1401.48 794.614 1395.06 793.467 1388.53 792.68C1382.55 792.461 1376.59 792.431 1370.6 792.573C1364.77 793.008 1358.94 793.42 1353.11 793.666C1346.92 793.931 1340.76 793.518 1334.6 792.983C1332.66 792.959 1330.72 792.972 1328.78 792.997C1311.45 793.193 1294.32 785.872 1282.11 773.666C1269.8 761.357 1262.78 744.408 1262.78 727.001C1262.78 709.589 1269.8 692.643 1282.11 680.333C1294.52 667.92 1311.29 661.202 1328.78 661.003C1334.82 660.935 1340.83 661.232 1346.84 661.716C1349.49 661.74 1352.15 661.691 1354.81 661.596C1366.13 660.743 1377.49 659.951 1388.83 660.629C1399.34 661.26 1409.78 661.858 1420.12 663.956C1427.88 665.53 1435.64 666.969 1443.45 668.278C1450.02 669.381 1456.56 670.758 1463.02 672.387C1467.22 673.444 1472.11 675.266 1475.89 676.716C1477.55 677.35 1479.25 677.927 1480.87 678.664C1489 682.388 1496.76 686.745 1504.67 690.892C1510.29 693.591 1515.94 696.279 1521.36 699.35C1530.63 704.6 1539.48 710.334 1548.31 716.314C1551.41 718.412 1554.38 720.658 1557.24 723.07C1559.34 724.843 1561.4 726.613 1563.55 728.299C1567.26 730.656 1570.95 733.044 1574.47 735.686C1577.42 737.909 1580.33 740.18 1583.36 742.308C1588.58 745.968 1593.36 750.173 1598.55 753.882C1600.78 755.382 1603 756.898 1605.19 758.458C1609 761.174 1612.43 764.384 1615.92 767.493C1618.34 769.648 1620.7 771.874 1623.07 774.092C1625.21 775.876 1627.35 777.647 1629.46 779.469C1634.83 784.124 1639.9 789.044 1645.2 793.775C1645.88 794.365 1646.58 794.947 1647.29 795.513C1652.65 798.663 1658.29 801.364 1663.55 804.697C1668.52 807.852 1673.5 810.896 1678.65 813.71C1681.5 815.015 1684.38 816.264 1687.28 817.46C1701.96 819.493 1715.7 825.902 1726.23 836.438C1734.29 844.497 1740.23 854.633 1743.25 865.628C1745.67 874.419 1745.9 883.112 1745.01 892.13C1744.72 895.061 1744.13 897.951 1743.24 900.792C1740.93 908.07 1740.24 909.968 1736.57 916.631C1735.19 919.128 1733.6 921.486 1731.79 923.715C1726.71 930.291 1720.08 936.527 1712.74 940.453C1707.86 943.07 1702.23 945.993 1696.75 947.165C1691.26 948.34 1686.3 949.566 1680.76 949.566C1680.15 949.566 1679.54 949.553 1678.93 949.523Z" fill="#381E72"/>
<path d="M368.984 947.165C299.415 927.482 306.636 827.096 378.447 817.46C393.243 811.136 406.875 802.118 420.534 793.778C440.176 775.415 460.468 757.896 482.369 742.308C502.896 727.75 522.213 711.495 544.371 699.347C563.647 689.911 581.811 678.145 602.709 672.384C627.189 667.155 651.819 661.727 676.9 660.629C685.861 660.303 694.796 660.648 703.732 660.992C714.793 661.418 725.854 661.844 736.951 661.005C794.361 659.874 825.219 733.841 783.622 773.666C762.529 795.537 732.925 794.313 704.292 793.089C695.053 792.693 685.915 792.297 677.198 792.68C663.902 794.554 650.604 797.05 637.469 799.829C629.131 803.79 621.198 808.595 612.754 812.398C597.483 819.594 585.586 831.583 571.495 840.56C556.68 851.018 542.557 862.265 528.78 873.946C527.272 874.85 525.912 875.943 524.647 877.227C524.215 877.667 523.789 878.115 523.371 878.571C520.112 881.379 516.869 884.207 513.638 887.053C513.482 887.182 513.323 887.308 513.165 887.433C511.411 888.766 509.668 890.113 507.928 891.465C507.27 891.88 506.62 892.312 505.986 892.763C504.169 894.055 502.391 895.391 500.634 896.757C499.489 897.601 498.47 898.508 497.689 899.732C497.626 899.83 497.566 899.926 497.509 900.027C495.916 901.128 494.307 902.201 492.687 903.269C488.6 905.958 484.519 908.627 480.542 911.473C479.927 911.913 479.367 912.41 478.878 912.959C450.967 930.608 416.352 949.282 385.763 949.282C380.002 949.285 374.388 948.621 368.984 947.165Z" fill="#381E72"/>
<path d="M1263.52 741.261C1263.15 740.264 1263.06 740.026 1262.8 739.346C1260.6 736.117 1258.46 732.839 1256.61 729.402C1253.33 722.884 1248.11 717.658 1243.62 711.97C1237.18 704.837 1229.63 698.852 1222.95 691.959C1217.53 687.793 1212.02 683.676 1206.48 679.669C1201.13 676.21 1196.02 672.435 1190.96 668.58C1185.14 665.231 1178.89 662.709 1172.83 659.841C1165.77 656.639 1158.91 653.088 1152.04 649.529C1142.48 645.275 1132.4 642.36 1122.95 637.85C1113.21 633.523 1103.31 629.499 1093.29 625.868C1084.58 622.765 1076.61 618.181 1069.11 612.796C1066.35 610.819 1063.84 608.554 1061.35 606.248C1058.65 604.595 1055.92 602.978 1053.21 601.336C1045.72 596.974 1039.15 591.433 1032.86 585.535C1026.58 591.433 1020.01 596.971 1012.52 601.336C1009.81 602.978 1007.08 604.595 1004.38 606.248C1001.89 608.554 999.378 610.819 996.621 612.796C989.122 618.181 981.154 622.765 972.442 625.868C962.416 629.499 952.521 633.523 942.78 637.85C933.328 642.36 923.244 645.275 913.694 649.529C906.823 653.088 899.955 656.639 892.902 659.841C886.84 662.709 880.587 665.231 874.771 668.58C869.717 672.435 864.594 676.208 859.257 679.666C853.708 683.674 848.206 687.793 842.778 691.959C836.099 698.852 828.545 704.837 822.106 711.97C818.563 716.251 815.006 720.545 811.63 724.957C808.857 729.864 806.141 734.824 802.866 739.436C798.648 769.653 775.949 794.717 745.104 798.383C695.639 804.309 659.136 758.813 672.943 711.462C674.508 706.094 676.672 700.917 678.601 695.672C681.584 685.813 685.966 676.396 691.959 668.127C696.51 660.497 700.728 652.506 706.225 645.494C717.272 631.127 728.995 617.088 742.708 605.164C749.513 598.476 756.332 591.75 763.968 585.991C771.046 580.591 778.225 575.376 785.593 570.385C793.291 564.757 800.804 558.81 809.078 554.024C820.691 547.221 833.34 542.225 845.464 536.406C852.635 532.614 859.789 528.738 867.321 525.741C874.096 523.045 881.013 520.799 887.717 517.909C898.346 513.139 909.058 508.525 920.056 504.659C926.708 498.737 934.488 494.303 942.042 489.662C946.519 485.457 951.134 481.376 956.086 477.743C958.512 474.877 961.015 472.069 963.643 469.394C966.634 466.703 968.959 463.005 971.66 460.207C974.228 457.295 976.452 455.2 980.02 452.282C988.442 443.152 999.282 436.298 1011.36 432.998C1018.37 431.067 1025.66 430.343 1032.86 430.783C1052.46 429.417 1072.42 437.615 1085.56 452.154C1089.13 455.093 1091.49 457.26 1094.07 460.207C1096.76 463.01 1099.1 466.706 1102.09 469.394C1104.71 472.069 1107.22 474.877 1109.64 477.743C1111.12 478.836 1112.6 479.934 1114.01 481.117C1117.31 483.878 1120.58 486.684 1123.69 489.662C1129.95 493.484 1136.29 497.218 1142.13 501.685C1143.33 502.652 1144.51 503.646 1145.67 504.659C1147.54 505.326 1149.42 505.965 1151.26 506.643C1157.29 509.03 1163.28 511.541 1169.29 513.986C1178.74 518.548 1188.62 522.018 1198.41 525.741C1209.44 530.167 1219.61 536.477 1230.54 541.162C1239.3 545.265 1248.36 549.041 1256.65 554.024C1264.92 558.813 1272.44 564.757 1280.14 570.385C1295.43 580.692 1310.2 591.846 1323.02 605.164C1336.73 617.088 1348.46 631.127 1359.5 645.494C1364.99 652.503 1369.22 660.497 1373.77 668.127C1377.51 673.64 1381.01 679.15 1383.51 685.512C1385.49 690.503 1387.02 695.661 1389.01 700.652C1391.67 707.618 1394.27 714.787 1395.05 722.231C1400.74 763.192 1369.67 799.839 1327.95 798.85C1328.31 798.875 1328.67 798.9 1328.98 798.922C1328.65 798.927 1328.32 798.93 1327.99 798.93C1296.06 798.932 1267.02 773.058 1263.52 741.261Z" fill="#381E72"/>
<path d="M1414.31 1093.61C1396.07 1089.43 1379.96 1077.79 1370.23 1061.82C1360.8 1046.35 1357.77 1027.42 1361.81 1009.77C1363.86 1000.83 1367.68 992.336 1373.01 984.87C1378.36 977.368 1385.52 970.244 1393.6 965.692C1393.84 965.556 1394.08 965.422 1394.32 965.283C1394.36 965.261 1394.39 965.239 1394.43 965.217C1394.46 965.203 1394.49 965.187 1394.51 965.17C1394.83 964.988 1395.15 964.807 1395.47 964.63C1398.94 962.649 1402.4 960.66 1405.87 958.68C1417.39 952.093 1428.92 945.509 1440.44 938.923C1452.19 932.206 1463.94 925.488 1475.69 918.773C1487.6 911.963 1499.52 905.155 1511.43 898.345C1523.59 891.395 1535.74 884.445 1547.9 877.498C1558.96 871.176 1570.02 864.852 1581.08 858.533C1590.24 853.294 1599.41 848.054 1608.58 842.815C1615.25 839.003 1621.92 835.187 1628.59 831.376C1632.35 829.229 1636.1 827.074 1639.87 824.929C1647.85 820.383 1656.08 817.072 1665.2 815.619C1674.06 814.212 1683.17 814.513 1691.91 816.515C1710.15 820.692 1726.25 832.332 1735.99 848.308C1745.42 863.773 1748.45 882.708 1744.41 900.355C1742.36 909.296 1738.54 917.79 1733.21 925.256C1727.84 932.785 1720.7 939.827 1712.61 944.433C1711.29 945.19 1709.96 945.947 1708.64 946.706C1702.76 950.072 1696.87 953.435 1690.98 956.797C1683.32 961.179 1675.65 965.561 1667.99 969.943C1658.1 975.595 1648.21 981.245 1638.32 986.9C1626.32 993.767 1614.3 1000.62 1602.3 1007.49C1590.2 1014.41 1578.09 1021.33 1565.99 1028.24C1554.25 1034.95 1542.51 1041.66 1530.78 1048.37C1519.37 1054.89 1507.96 1061.41 1496.55 1067.94C1486.8 1073.51 1477.05 1079.1 1467.29 1084.66C1467.28 1084.66 1467.27 1084.67 1467.26 1084.67C1466.96 1084.85 1466.66 1085.02 1466.35 1085.2C1458.33 1089.71 1450.16 1093.05 1441.02 1094.51C1437.36 1095.09 1433.67 1095.38 1429.98 1095.38C1424.71 1095.38 1419.44 1094.79 1414.31 1093.61Z" fill="#381E72"/>
<path d="M499.736 1028.24C487.632 1021.33 475.527 1014.41 463.425 1007.49C451.421 1000.62 439.409 993.768 427.406 986.9C417.519 981.245 407.627 975.596 397.738 969.944C390.072 965.562 382.407 961.18 374.741 956.798C368.854 953.435 362.97 950.072 357.086 946.707C355.761 945.947 354.436 945.19 353.111 944.434C345.03 939.828 337.886 932.785 332.513 925.256C327.186 917.79 323.367 909.297 321.318 900.356C317.275 882.708 320.307 863.774 329.735 848.309C339.471 832.333 355.575 820.693 373.813 816.516C382.552 814.513 391.668 814.213 400.522 815.62C409.641 817.073 417.877 820.384 425.86 824.93C429.621 827.074 433.378 829.23 437.134 831.377C443.808 835.188 450.476 839.004 457.147 842.815C466.315 848.055 475.481 853.294 484.646 858.534C495.707 864.853 506.766 871.177 517.827 877.498C519.815 878.632 521.804 879.771 523.79 880.908V890.398V915.209V1042C515.772 1037.41 507.755 1032.82 499.736 1028.24Z" fill="#381E72"/>
<path d="M704.061 1039.22C704.163 1039.08 704.265 1038.94 704.366 1038.81C704.319 1039.05 704.271 1039.3 704.221 1039.54C704.168 1039.43 704.114 1039.32 704.061 1039.22Z" fill="#381E72"/>
<path d="M1543.71 884.304C1543.49 884.103 1543.38 883.829 1543.25 883.565C1543.07 883.243 1542.88 882.927 1542.7 882.602C1542.64 882.482 1542.57 882.361 1542.51 882.239C1542.45 882.144 1542.39 882.047 1542.34 881.949C1542.18 881.655 1542.04 881.351 1541.89 881.048C1541.05 879.593 1540.13 878.178 1539.19 876.784C1538.86 876.36 1538.55 875.929 1538.21 875.513C1537.96 875.247 1537.69 875.003 1537.42 874.748C1537.19 874.528 1536.98 874.297 1536.77 874.062C1536.52 873.804 1536.25 873.556 1536 873.292C1535.72 872.993 1535.46 872.68 1535.2 872.368C1534.9 872.052 1534.59 871.739 1534.3 871.418C1534.04 871.128 1533.78 870.826 1533.52 870.534C1533.45 870.469 1533.39 870.404 1533.33 870.341C1533.04 870.035 1532.88 869.633 1532.9 869.238C1532.73 869.066 1532.56 868.895 1532.39 868.727C1532.07 868.411 1531.68 868.048 1531.45 867.623C1531.35 867.515 1531.25 867.408 1531.16 867.301C1530.79 866.919 1530.41 866.545 1530.08 866.134C1529.89 865.894 1529.7 865.648 1529.57 865.372C1529.32 864.867 1529.44 864.23 1529.82 863.826C1530.16 863.465 1530.68 863.304 1531.17 863.422C1531.51 863.506 1531.77 863.708 1532 863.976C1532.35 864.387 1532.67 864.814 1533.04 865.206L1533.05 865.222C1533.29 865.468 1533.55 865.717 1533.74 866C1533.85 866.115 1533.96 866.231 1534.06 866.345C1534.6 866.859 1535.12 867.375 1535.61 867.929C1535.85 868.186 1536.08 868.443 1536.3 868.708C1536.52 868.977 1536.72 869.265 1536.95 869.53C1537.27 869.842 1537.62 870.135 1537.9 870.478C1538.11 870.735 1538.31 871.002 1538.53 871.254C1538.95 871.738 1539.34 872.25 1539.77 872.726C1540.22 873.191 1540.66 873.664 1541.06 874.18C1541.44 874.666 1542.02 875.163 1542.02 875.832C1542.02 875.887 1542.02 875.942 1542.01 875.996C1542.13 876.168 1542.24 876.341 1542.35 876.513C1542.62 876.377 1542.93 876.327 1543.23 876.371C1543.44 876.3 1543.65 876.283 1543.85 876.312C1543.76 875.991 1543.67 875.673 1543.56 875.354C1543.32 874.633 1543.76 873.824 1544.48 873.6C1545.22 873.371 1545.99 873.797 1546.23 874.518C1546.49 875.276 1546.67 876.036 1546.83 876.815C1546.85 876.884 1546.87 876.952 1546.89 877.02C1547.21 877.781 1547.58 878.518 1547.88 879.291C1548.17 880.037 1548.7 880.99 1548.12 881.73C1547.58 882.413 1546.66 882.472 1546.05 881.94C1546.01 881.945 1545.98 881.949 1545.93 881.952C1545.9 881.954 1545.86 881.954 1545.82 881.953C1545.82 881.989 1545.83 882.026 1545.83 882.064C1545.83 882.138 1545.83 882.211 1545.82 882.283C1545.93 882.529 1546.02 882.792 1546.05 883.044C1546.13 883.67 1545.84 884.282 1545.25 884.552C1545.07 884.638 1544.87 884.68 1544.68 884.68C1544.33 884.68 1543.98 884.547 1543.71 884.304Z" fill="#381E72"/>
<path d="M520.473 884.552C519.883 884.282 519.601 883.67 519.68 883.044C519.711 882.792 519.799 882.529 519.909 882.283C519.9 882.211 519.896 882.138 519.899 882.064C519.901 882.026 519.905 881.989 519.91 881.953C519.871 881.954 519.832 881.954 519.793 881.952C519.752 881.95 519.712 881.946 519.672 881.94C519.068 882.472 518.143 882.413 517.607 881.73C517.023 880.99 517.561 880.037 517.847 879.291C518.6 877.755 519.068 876.168 519.495 874.518C519.735 873.797 520.508 873.371 521.248 873.601C522.538 874.05 522.252 875.304 521.877 876.312C522.081 876.283 522.292 876.301 522.499 876.371C522.795 876.327 523.107 876.377 523.375 876.513C523.489 876.341 523.6 876.168 523.713 875.996C523.612 875.257 524.257 874.702 524.669 874.18C525.483 873.176 526.402 872.274 527.196 871.254C528.883 869.249 530.772 867.258 532.55 865.353C533.243 864.741 533.63 863.705 534.561 863.422C535.651 863.125 536.675 864.359 536.159 865.372C535.227 866.78 533.979 868.016 532.83 869.238C532.874 870.164 531.935 870.742 531.427 871.418C529.857 873.264 527.976 874.83 526.541 876.784C525.343 878.546 524.189 880.344 523.214 882.239C522.603 883.272 522.035 885.228 520.473 884.552Z" fill="#381E72"/>
<path d="M452.997 1576.56C443.793 1576.56 434.833 1572.86 428.312 1566.36C421.826 1559.91 417.942 1550.84 418.021 1541.66C418.204 1520.99 418.393 1500.33 418.578 1479.66C418.808 1454.11 419.037 1428.55 419.267 1403C419.496 1377.22 419.728 1351.45 419.96 1325.68C420.19 1299.86 420.422 1274.04 420.654 1248.23C420.884 1222.8 421.111 1197.37 421.34 1171.95C421.57 1146.21 421.802 1120.48 422.031 1094.75C422.258 1069.55 422.485 1044.34 422.709 1019.14C422.821 1006.72 422.933 994.294 423.043 981.868C429.13 985.73 435.191 989.649 441.373 993.352C455.526 1001.83 469.83 1010.03 484.15 1018.21C486.962 1019.84 489.782 1021.44 492.61 1023.04C492.5 1035.48 492.387 1047.92 492.275 1060.36C492.045 1085.73 491.819 1111.1 491.592 1136.47C491.36 1162.2 491.13 1187.93 490.898 1213.67C490.668 1239.21 490.439 1264.76 490.21 1290.31C489.98 1316.02 489.751 1341.73 489.519 1367.44C489.286 1393.47 489.051 1419.5 488.819 1445.54C488.601 1469.66 488.385 1493.79 488.169 1517.92C488.103 1525.39 488.035 1532.86 487.967 1540.33C487.964 1540.73 487.961 1541.13 487.956 1541.53C487.866 1550.79 484.328 1559.68 477.761 1566.27C471.251 1572.81 462.279 1576.54 453.057 1576.56C453.038 1576.56 453.016 1576.56 452.997 1576.56Z" fill="#381E72"/>
<path d="M389.173 911.755C389.542 910.92 389.928 910.091 390.33 909.27C390.464 909.458 390.601 909.644 390.744 909.827C390.738 909.909 390.735 909.988 390.73 910.07C390.436 910.768 390.189 911.484 389.991 912.212C389.718 912.06 389.445 911.908 389.173 911.755Z" fill="#381E72"/>
<path d="M406.856 1556.15C393.757 1543.05 386.479 1525.19 386.373 1506.7C386.315 1496.33 386.255 1485.95 386.198 1475.58C386.072 1453.33 385.944 1431.09 385.818 1408.84C385.684 1385.63 385.553 1362.42 385.419 1339.21C385.291 1316.23 385.16 1293.25 385.028 1270.26C384.897 1247.31 384.766 1224.36 384.635 1201.4C384.507 1178.56 384.376 1155.73 384.247 1132.89C384.124 1111.63 384.004 1090.37 383.884 1069.11C383.769 1048.93 383.655 1028.75 383.54 1008.56C383.447 992.569 383.358 976.577 383.265 960.579C385.372 961.58 387.485 962.572 389.588 963.59C394.344 966.079 399.084 968.603 403.837 971.097C409.748 974.203 415.532 977.556 421.365 980.808C428.018 985.011 434.623 989.31 441.373 993.353C455.526 1001.83 469.83 1010.03 484.15 1018.22C494.354 1024.1 504.677 1029.78 515.001 1035.45C517.861 1037.02 520.724 1038.59 523.59 1040.15C523.705 1060.31 523.817 1080.46 523.931 1100.62C524.06 1122.69 524.183 1144.76 524.308 1166.83C524.437 1189.38 524.565 1211.94 524.693 1234.49C524.827 1257.69 524.956 1280.89 525.089 1304.08C525.226 1327.25 525.355 1350.43 525.486 1373.59C525.617 1396.5 525.748 1419.41 525.876 1442.32C525.977 1459.95 526.081 1477.58 526.177 1495.2C526.199 1499.04 526.221 1502.87 526.242 1506.7C526.349 1525.11 518.749 1543.16 505.759 1556.15C492.715 1569.2 474.756 1576.64 456.308 1576.64C437.857 1576.63 419.9 1569.2 406.856 1556.15Z" fill="#381E72"/>
<path d="M355.791 1372.7C329.836 1346.74 315.027 1311.01 315.027 1274.29C315.027 1237.57 329.836 1201.84 355.791 1175.87C381.756 1149.91 417.486 1135.11 454.206 1135.11C490.925 1135.11 526.655 1149.92 552.62 1175.87C578.575 1201.84 593.385 1237.57 593.385 1274.29C593.385 1311.01 578.575 1346.74 552.62 1372.7C526.655 1398.66 490.925 1413.46 454.206 1413.46C417.486 1413.46 381.756 1398.66 355.791 1372.7Z" fill="#381E72"/>
<path d="M315.515 1575.86L452.139 1154.13L588.762 1575.86H315.515Z" fill="#381E72"/>
</g>
</svg>
